<svg width="16" height="22" viewBox="0 0 16 22" fill="none" xmlns="http://www.w3.org/2000/svg">
<path d="M15.5 6.85146C15.5 7.73012 15.2632 9.09238 14.8295 10.666C14.3983 12.23 13.7824 13.9677 13.0459 15.5869C12.3075 17.2102 11.4581 18.6919 10.5674 19.759C9.65801 20.8487 8.79666 21.3984 8.04499 21.3984C7.29233 21.3984 6.42523 20.8476 5.50705 19.7573C4.60792 18.6897 3.7474 17.2076 2.99791 15.5843C2.2503 13.9651 1.62331 12.2274 1.18394 10.6636C0.741768 9.08993 0.5 7.72869 0.5 6.85146C0.5 3.41353 3.78236 0.5 8 0.5C12.2176 0.5 15.5 3.41353 15.5 6.85146Z" stroke="#7D8085"/>
<circle cx="8.15625" cy="7.71899" r="3.76758" stroke="#7D8085"/>
</svg>
