<svg width="28" height="28" viewBox="0 0 28 28" fill="none" xmlns="http://www.w3.org/2000/svg">
<path d="M18.6667 2.33333C16.9374 2.28536 15.2595 2.92422 14 4.11016C12.7406 2.92422 11.0627 2.28536 9.33337 2.33333C8.35389 2.33608 7.38706 2.55464 6.50164 2.97346C5.61622 3.39227 4.83397 4.00105 4.21053 4.7565C2.07203 7.322 1.91687 11.4333 2.9377 14.4177C2.94703 14.4387 2.95403 14.4597 2.96337 14.4807C4.8382 19.8333 12.7902 25.6667 14 25.6667C15.1889 25.6667 23.1175 19.9617 25.0367 14.4807C25.046 14.4597 25.053 14.4387 25.0624 14.4177C26.0692 11.4812 25.9607 7.3605 23.7895 4.7565C23.1661 4.00105 22.3838 3.39227 21.4984 2.97346C20.613 2.55464 19.6462 2.33608 18.6667 2.33333ZM14 23.121C12.3772 22.0663 7.8622 18.9 5.81237 15.1667H10.5C10.6921 15.1667 10.8811 15.1193 11.0504 15.0288C11.2198 14.9382 11.3641 14.8072 11.4707 14.6475L12.481 13.1308L14.0607 17.8675C14.1298 18.0745 14.2556 18.258 14.4238 18.3971C14.592 18.5362 14.7958 18.6254 15.0121 18.6544C15.2284 18.6835 15.4485 18.6512 15.6474 18.5614C15.8464 18.4716 16.0161 18.3278 16.1374 18.1463L18.1242 15.1667H22.1889C20.1379 18.9 15.6229 22.0663 14 23.121ZM23.0825 12.8333H17.5C17.308 12.8333 17.1189 12.8807 16.9496 12.9712C16.7803 13.0618 16.6359 13.1928 16.5294 13.3525L15.519 14.8692L13.9394 10.1325C13.8703 9.92547 13.7445 9.74198 13.5763 9.60287C13.4081 9.46377 13.2043 9.37463 12.988 9.34558C12.7717 9.31654 12.5515 9.34875 12.3526 9.43857C12.1537 9.52838 11.984 9.6722 11.8627 9.85366L9.87587 12.8333H4.91753C4.45087 10.6272 4.55353 7.98816 6.0037 6.24983C6.40572 5.75458 6.91332 5.35541 7.4894 5.0815C8.06548 4.80759 8.69548 4.66586 9.33337 4.66666C12.9115 4.66666 12.5382 7.11666 13.9872 7.13066H14C15.4514 7.13066 15.0839 4.66666 18.6667 4.66666C19.305 4.66551 19.9354 4.80708 20.5119 5.081C21.0885 5.35492 21.5964 5.75427 21.9987 6.24983C23.4407 7.98233 23.5527 10.6167 23.0825 12.8333Z" fill="#393D46"/>
</svg>
