<svg width="127" height="106" viewBox="0 0 127 106" fill="none" xmlns="http://www.w3.org/2000/svg">
<path fill-rule="evenodd" clip-rule="evenodd" d="M99.7988 86.5137C98.7117 86.5373 97.6262 86.4161 96.571 86.1535C95.8252 85.9662 95.1213 85.6403 94.496 85.1928C94.0234 84.8542 93.6422 84.4036 93.3864 83.8815C93.1745 83.4405 93.0614 82.9586 93.055 82.4694C93.0268 81.9087 93.1893 81.3551 93.5161 80.8987C93.8245 80.5038 94.2421 80.2082 94.717 80.0485C95.227 79.8737 95.7629 79.786 96.302 79.7891C96.2729 80.7319 96.4448 81.6702 96.8064 82.5414C97.0848 83.2201 97.5637 83.7975 98.1791 84.1967C98.7946 84.5958 99.5172 84.7975 100.25 84.7749C101.384 84.7749 102.265 84.4771 102.892 83.8815C103.196 83.5987 103.437 83.2547 103.598 82.8722C103.759 82.4897 103.838 82.0774 103.829 81.6624C103.843 81.0583 103.655 80.4668 103.296 79.9813C102.858 79.4428 102.313 79.0011 101.696 78.6844C100.827 78.2161 99.9323 77.7975 99.0159 77.4307C97.8794 76.9887 96.8043 76.4027 95.8169 75.6871C95.0988 75.1635 94.5213 74.4705 94.1357 73.6697C93.7883 72.8752 93.6163 72.015 93.6314 71.148C93.6066 70.0576 93.9296 68.9876 94.5536 68.0931C95.1968 67.2055 96.0682 66.5084 97.0754 66.0757C98.2158 65.5803 99.449 65.3346 100.692 65.3552C101.871 65.3222 103.047 65.4729 104.179 65.8019C105.082 66.0997 105.75 66.5 106.182 67.0027C106.602 67.4693 106.833 68.0754 106.831 68.7031C106.83 69.036 106.75 69.364 106.597 69.6597C106.444 69.9555 106.223 70.2104 105.952 70.4035C105.366 70.8646 104.477 71.0951 103.286 71.0951C103.277 70.5064 103.175 69.9227 102.983 69.366C102.794 68.7688 102.464 68.2255 102.023 67.7809C101.786 67.5549 101.505 67.3796 101.198 67.2656C100.89 67.1517 100.563 67.1014 100.236 67.118C99.5098 67.1039 98.8015 67.3434 98.233 67.7953C97.6662 68.2468 97.3828 68.9048 97.3828 69.7694C97.379 70.2926 97.5079 70.8082 97.7574 71.2681C98.1103 71.8321 98.5949 72.3019 99.1696 72.637C100.112 73.2132 101.106 73.7004 102.138 74.0924C103.265 74.5282 104.339 75.0923 105.337 75.7736C106.074 76.249 106.674 76.9084 107.079 77.6868C107.483 78.4651 107.677 79.3354 107.643 80.2118C107.664 81.3746 107.328 82.5161 106.682 83.4829C105.999 84.4661 105.056 85.2396 103.959 85.7164C102.646 86.2799 101.227 86.552 99.7988 86.5137ZM6.74698 86.5139C5.65983 86.5375 4.57437 86.4163 3.51916 86.1537C2.77337 85.9664 2.06945 85.6405 1.44413 85.193C0.971555 84.8544 0.590325 84.4038 0.334574 83.8817C0.122666 83.4407 0.0095575 82.9588 0.00314476 82.4695C-0.0250894 81.9089 0.137451 81.3553 0.464261 80.8989C0.772627 80.504 1.19018 80.2083 1.66509 80.0487C2.17515 79.8739 2.711 79.7862 3.25018 79.7893C3.22105 80.7321 3.39297 81.6704 3.75452 82.5416C4.03291 83.2202 4.51184 83.7977 5.12727 84.1969C5.7427 84.596 6.46531 84.7977 7.19849 84.7751C8.33206 84.7751 9.21267 84.4773 9.8403 83.8817C10.1442 83.5988 10.3847 83.2549 10.5461 82.8724C10.7076 82.4899 10.7862 82.0776 10.7769 81.6626C10.791 81.0585 10.6034 80.467 10.2438 79.9814C9.80627 79.4429 9.26157 79.0013 8.64428 78.6845C7.77532 78.2163 6.88047 77.7977 5.96404 77.4309C4.83027 76.9899 3.75762 76.4055 2.77225 75.6921C2.05416 75.1685 1.47665 74.4754 1.09109 73.6747C0.743619 72.8802 0.571591 72.02 0.586744 71.153C0.561902 70.0626 0.88492 68.9926 1.50898 68.0981C2.1522 67.2105 3.02355 66.5134 4.03071 66.0807C5.17114 65.5853 6.40438 65.3396 7.6476 65.3602C8.82614 65.3272 10.0026 65.4779 11.1348 65.8069C12.0378 66.1047 12.7055 66.505 13.1378 67.0077C13.5576 67.4743 13.7888 68.0804 13.7862 68.7081C13.7856 69.041 13.7055 69.369 13.5526 69.6647C13.3997 69.9605 13.1785 70.2154 12.9072 70.4085C12.3212 70.8696 11.4326 71.1001 10.2414 71.1001C10.2327 70.5114 10.1305 69.9277 9.93877 69.3709C9.74894 68.7738 9.41964 68.2305 8.97811 67.7859C8.74086 67.5599 8.46009 67.3846 8.15289 67.2706C7.8457 67.1566 7.51851 67.1064 7.19128 67.123C6.46517 67.1089 5.75687 67.3484 5.18831 67.8003C4.62152 68.2518 4.33812 68.9098 4.33812 69.7744C4.33437 70.2976 4.46326 70.8132 4.71278 71.2731C5.0656 71.8371 5.55024 72.3069 6.12495 72.642C7.06712 73.2182 8.06089 73.7054 9.09339 74.0974C10.2207 74.5332 11.2941 75.0973 12.2924 75.7785C13.0294 76.254 13.6297 76.9134 14.0341 77.6918C14.4384 78.4701 14.6328 79.3404 14.598 80.2168C14.619 81.3796 14.2838 82.5211 13.6373 83.4878C12.9548 84.4711 12.0117 85.2446 10.9138 85.7214C9.5987 86.2843 8.17695 86.5547 6.74698 86.5139ZM27.18 86.5138C25.7208 86.5478 24.267 86.3234 22.8859 85.8509C21.7687 85.4662 20.8074 84.7275 20.148 83.7471C19.5076 82.7864 19.1873 81.5183 19.1873 79.9428V68.9337C19.2112 68.5389 19.1421 68.1441 18.9856 67.7809C18.8756 67.5587 18.6849 67.3869 18.4524 67.3006C18.2157 67.2212 17.9672 67.1822 17.7175 67.1853H16.4783V65.6578H26.4211V67.1853H25.2203C24.9693 67.182 24.72 67.226 24.4854 67.315C24.2494 67.4157 24.0593 67.6006 23.9522 67.8337C23.794 68.2217 23.7251 68.6403 23.7505 69.0586V80.183C23.7505 81.7969 24.1395 82.9177 24.9177 83.5453C25.6958 84.173 26.7365 84.4852 28.0398 84.482C28.8083 84.5017 29.5716 84.3491 30.2734 84.0353C30.8916 83.7435 31.3976 83.2577 31.7143 82.6519C32.0776 81.9051 32.2509 81.0801 32.2187 80.2503V68.9625C32.2426 68.5677 32.1735 68.1729 32.0169 67.8097C31.9069 67.5875 31.7162 67.4157 31.4838 67.3294C31.247 67.25 30.9986 67.211 30.7489 67.2141H29.5481V65.6866H37.0988V67.2141H35.8596C35.6087 67.2108 35.3594 67.2548 35.1247 67.3438C34.8887 67.4445 34.6986 67.6294 34.5915 67.8625C34.4333 68.2505 34.3644 68.6691 34.3898 69.0874V80.3271C34.4205 81.4817 34.1629 82.6257 33.6405 83.6558C33.1189 84.6082 32.2986 85.3626 31.3061 85.8029C30.2461 86.2768 28.8708 86.5138 27.18 86.5138ZM38.3624 84.6981V86.2256L45.9035 86.2448V84.7173H44.7027C44.4518 84.7206 44.2025 84.6766 43.9678 84.5876C43.729 84.4839 43.5384 84.2933 43.4346 84.0545C43.2804 83.6737 43.2116 83.2638 43.2329 82.8536V70.3651L54.4726 86.2448H57.1144V69.0682C57.089 68.6499 57.158 68.2313 57.3162 67.8433C57.4233 67.6102 57.6133 67.4253 57.8493 67.3246C58.084 67.2356 58.3333 67.1916 58.5843 67.1949H59.7851V65.6674H52.2631V67.1949H53.4639C53.7136 67.1918 53.9621 67.2308 54.1988 67.3102C54.4313 67.3965 54.622 67.5683 54.732 67.7905C54.8885 68.1537 54.9576 68.5485 54.9337 68.9433V80.0389L44.7603 65.6578H38.3624V67.1853H39.5632C39.8129 67.1822 40.0613 67.2212 40.2981 67.3006C40.5305 67.3869 40.7212 67.5587 40.8313 67.7809C40.9878 68.1441 41.0569 68.5389 41.033 68.9337V82.8344C41.0543 83.2446 40.9855 83.6545 40.8313 84.0353C40.7275 84.2741 40.5369 84.4647 40.2981 84.5684C40.0634 84.6574 39.8141 84.7014 39.5632 84.6981H38.3624ZM61.0723 86.2256V84.6981H62.2731C62.5228 84.7012 62.7713 84.6622 63.008 84.5828C63.2405 84.4965 63.4312 84.3247 63.5412 84.1025C63.6951 83.7487 63.7642 83.3638 63.7429 82.9785V68.9337C63.7656 68.539 63.6965 68.1444 63.5412 67.7809C63.4312 67.5587 63.2405 67.3869 63.008 67.3006C62.7713 67.2212 62.5228 67.1822 62.2731 67.1853H61.0723V65.6578H70.3523C72.1775 65.6578 73.6713 65.8596 74.8338 66.263C75.9961 66.6665 76.8559 67.2669 77.4131 68.0643C77.9901 68.9283 78.2823 69.9511 78.2489 70.9895C78.2763 71.8886 78.0781 72.7803 77.6725 73.5833C77.3108 74.2656 76.8101 74.8645 76.2027 75.3413C75.6303 75.7889 75.0002 76.1572 74.3294 76.4364L77.759 82.3445C78.1335 83.0144 78.6099 83.6221 79.1711 84.1457C79.576 84.5063 80.0988 84.7062 80.6409 84.7077H80.7562V86.2352H79.7956C78.8309 86.2492 77.8668 86.1817 76.9136 86.0334C76.2225 85.9317 75.5646 85.6702 74.9923 85.2697C74.4267 84.829 73.9603 84.2742 73.6233 83.6414L70.1938 77.301H68.2917V82.9785C68.2692 83.3639 68.3384 83.749 68.4934 84.1025C68.6058 84.3283 68.8025 84.5008 69.041 84.5828C69.2733 84.66 69.5166 84.6989 69.7615 84.6981H71.0007V86.2256H61.0723ZM69.92 75.6199C71.2457 75.6199 72.1559 75.2644 72.6579 74.5535C73.1598 73.8426 73.4072 72.7859 73.4072 71.3834C73.4358 70.5859 73.3186 69.7899 73.0613 69.0345C72.86 68.4817 72.459 68.0242 71.9374 67.7521C71.2872 67.4558 70.5762 67.3175 69.8623 67.3486H68.3061V75.6199H69.92ZM81.4455 84.6981V86.2256L91.3931 86.216V84.6885H90.1923C89.9368 84.6909 89.6829 84.6469 89.443 84.5588C89.3228 84.5105 89.2135 84.4384 89.1219 84.3468C89.0303 84.2551 88.9581 84.1459 88.9098 84.0257C88.7662 83.6424 88.7024 83.2337 88.7225 82.8249V69.049C88.6987 68.6321 88.7625 68.2148 88.9098 67.8241C88.9597 67.7066 89.0326 67.6001 89.1242 67.5111C89.2157 67.422 89.3241 67.3521 89.443 67.3054C89.6829 67.2173 89.9368 67.1734 90.1923 67.1757H91.3931V65.6482H81.4455V67.1757H82.6463C82.9068 67.1709 83.1658 67.2149 83.4101 67.3054C83.6439 67.4042 83.83 67.5903 83.9288 67.8241C84.0762 68.2148 84.14 68.6321 84.1161 69.049V82.8345C84.1362 83.2433 84.0725 83.652 83.9288 84.0353C83.8334 84.2747 83.6468 84.4665 83.4101 84.5684C83.1658 84.659 82.9068 84.7029 82.6463 84.6981H81.4455ZM109.886 84.6981V86.2256L126.798 86.2208L127 80.9179H125.011L124.771 82.2725C124.723 82.6594 124.622 83.0377 124.469 83.3964C124.341 83.7017 124.138 83.9695 123.878 84.1746C123.6 84.3769 123.261 84.4785 122.917 84.4628H117.153V76.3356H123.984V74.6064H117.153V67.4015H121.99C122.336 67.385 122.678 67.4756 122.97 67.6608C123.231 67.847 123.435 68.1012 123.561 68.3957C123.72 68.7773 123.813 69.1835 123.835 69.5966L123.979 70.9511H125.996L125.881 65.6482H109.886V67.1757H111.087C111.347 67.1709 111.606 67.2149 111.85 67.3054C112.084 67.4042 112.27 67.5903 112.369 67.8241C112.517 68.2148 112.58 68.6321 112.557 69.049V82.9786C112.579 83.3639 112.51 83.749 112.355 84.1025C112.245 84.3247 112.054 84.4966 111.822 84.5829C111.585 84.6622 111.336 84.7012 111.087 84.6981H109.886Z" fill="#393D46"/>
<path fill-rule="evenodd" clip-rule="evenodd" d="M48.1922 102.744V102.204H48.3483C48.502 102.205 48.6553 102.187 48.8046 102.151C48.9468 102.113 49.0721 102.029 49.1601 101.911C49.2612 101.761 49.3094 101.582 49.297 101.401V97.6405C49.3107 97.4579 49.2625 97.276 49.1601 97.1241C49.0683 97.0143 48.9437 96.9368 48.8046 96.9032C48.6553 96.8669 48.502 96.8492 48.3483 96.8504H48.2883V96.31H50.6179V101.353C50.6041 101.543 50.6503 101.732 50.75 101.894C50.8364 102.013 50.9623 102.098 51.1054 102.134C51.2557 102.175 51.4108 102.195 51.5665 102.194H51.7226V102.734L48.1922 102.744ZM49.9094 95.1428C49.7082 95.1504 49.5108 95.0866 49.3522 94.9627C49.2712 94.8866 49.2089 94.7928 49.1701 94.6886C49.1314 94.5845 49.1172 94.4728 49.1288 94.3622C49.1185 94.2496 49.1349 94.1361 49.1767 94.031C49.2184 93.9258 49.2843 93.832 49.369 93.757C49.5284 93.6385 49.7228 93.5768 49.9214 93.5817C50.1182 93.5786 50.3106 93.6402 50.469 93.757C50.6176 93.9217 50.7 94.1356 50.7 94.3574C50.7 94.5793 50.6176 94.7932 50.469 94.9579C50.3096 95.0826 50.1117 95.148 49.9094 95.1428ZM27.9896 102.204V102.744L31.5201 102.734V102.194H31.3639C31.2082 102.195 31.0531 102.175 30.9028 102.134C30.7597 102.098 30.6338 102.013 30.5474 101.894C30.4488 101.732 30.4027 101.543 30.4153 101.353V96.31H28.0857V96.8504H28.1457C28.2994 96.8492 28.4527 96.8669 28.602 96.9032C28.7411 96.9369 28.8658 97.0143 28.9575 97.1242C29.0599 97.276 29.1081 97.4579 29.0944 97.6405V101.401C29.1069 101.582 29.0587 101.761 28.9575 101.911C28.8696 102.029 28.7443 102.113 28.602 102.151C28.4527 102.187 28.2994 102.205 28.1457 102.204H27.9896ZM29.1496 94.9627C29.3083 95.0866 29.5056 95.1504 29.7068 95.1428H29.7116C29.9082 95.1441 30.0995 95.0789 30.2544 94.9579C30.4031 94.7932 30.4854 94.5793 30.4854 94.3574C30.4854 94.1356 30.4031 93.9217 30.2544 93.757C30.0931 93.6444 29.9011 93.584 29.7044 93.584C29.5077 93.584 29.3157 93.6444 29.1544 93.757C29.0719 93.8332 29.0082 93.9275 28.9686 94.0326C28.929 94.1377 28.9145 94.2506 28.9263 94.3623C28.9147 94.4728 28.9288 94.5845 28.9675 94.6887C29.0063 94.7928 29.0686 94.8866 29.1496 94.9627ZM8.63706 102.314C9.28888 102.703 10.0399 102.895 10.7985 102.864C11.5352 102.888 12.2628 102.697 12.8928 102.314C13.4704 101.938 13.9254 101.401 14.2017 100.77C14.7974 99.2781 14.7974 97.6145 14.2017 96.1227C13.9308 95.492 13.4775 94.9567 12.9 94.5857C12.2685 94.2048 11.5404 94.0146 10.8034 94.0381C10.0453 94.0102 9.2952 94.2003 8.64187 94.5857C8.06509 94.9509 7.61608 95.4863 7.35698 96.1179C7.0625 96.8535 6.91955 97.641 6.93669 98.4331C6.92029 99.2299 7.06318 100.022 7.35698 100.763C7.61376 101.399 8.0608 101.941 8.63706 102.314ZM12.1747 101.735C11.7869 102.049 11.2967 102.208 10.7985 102.182C10.3084 102.204 9.8273 102.045 9.44642 101.735C9.07484 101.394 8.8139 100.949 8.6971 100.458C8.5267 99.8007 8.44592 99.1237 8.45694 98.4451C8.45694 97.2707 8.63706 96.3557 8.99251 95.7024C9.34795 95.0492 9.95557 94.7226 10.8106 94.7226C11.3037 94.6974 11.789 94.8537 12.1747 95.1621C12.5378 95.5039 12.789 95.9477 12.8952 96.4349C13.1898 97.7597 13.1898 99.133 12.8952 100.458C12.7883 100.946 12.5373 101.391 12.1747 101.735ZM16.8146 102.655C17.1142 102.799 17.4431 102.87 17.7753 102.864C18.0509 102.877 18.3264 102.834 18.5846 102.737C18.7917 102.645 18.9793 102.515 19.137 102.353C19.3073 102.172 19.4677 101.982 19.6173 101.783H19.7254L19.9295 102.744H21.7188V102.204H21.6827C21.5348 102.21 21.3873 102.183 21.2504 102.127C21.195 102.101 21.1453 102.064 21.104 102.019C21.0628 101.973 21.031 101.92 21.0103 101.863C20.9557 101.695 20.9313 101.518 20.9382 101.342V98.241C20.9382 97.4893 20.7509 96.9561 20.369 96.6439C19.9872 96.3317 19.418 96.178 18.6567 96.178C18.2794 96.1738 17.9029 96.2141 17.5351 96.298C17.2375 96.3564 16.9578 96.484 16.7185 96.6703C16.6178 96.7523 16.5376 96.8566 16.4842 96.975C16.4309 97.0934 16.4058 97.2226 16.4111 97.3524C16.4006 97.4698 16.4231 97.5878 16.4762 97.693C16.5292 97.7983 16.6107 97.8866 16.7113 97.948C16.9842 98.0787 17.2858 98.1382 17.5879 98.1209C17.5848 97.8926 17.6114 97.665 17.6672 97.4436C17.7104 97.2589 17.8165 97.0951 17.9674 96.9801C18.1576 96.8567 18.3824 96.7978 18.6086 96.812C18.8441 96.7936 19.0783 96.8601 19.2691 96.9993C19.4184 97.1331 19.5182 97.3133 19.5525 97.5109C19.5987 97.7595 19.6204 98.0121 19.6173 98.265V98.9615L18.6326 98.9999C17.712 99.0319 17.0275 99.2016 16.5792 99.509C16.3547 99.6691 16.1749 99.884 16.0572 100.133C15.9394 100.383 15.8876 100.658 15.9068 100.933C15.8929 101.31 15.9756 101.683 16.1469 102.019C16.2985 102.295 16.5317 102.517 16.8146 102.655ZM18.9401 101.887C18.7033 102.024 18.433 102.092 18.1595 102.084C17.9844 102.087 17.8121 102.04 17.6624 101.949C17.5259 101.864 17.4219 101.735 17.367 101.584C17.2986 101.39 17.266 101.185 17.2709 100.979C17.2628 100.714 17.3145 100.45 17.4222 100.208C17.531 99.9935 17.711 99.8237 17.9314 99.7276C18.243 99.5964 18.5779 99.5294 18.916 99.5307L19.6245 99.4922V100.453C19.6308 100.75 19.5692 101.045 19.4444 101.315C19.3362 101.551 19.1608 101.75 18.9401 101.887ZM24.8002 102.864C24.4159 102.87 24.0332 102.814 23.6667 102.698C23.3886 102.62 23.1386 102.465 22.9462 102.249C22.7833 102.052 22.6979 101.802 22.706 101.546C22.6901 101.378 22.7306 101.211 22.8212 101.069C22.9117 100.928 23.047 100.821 23.2055 100.765C23.3182 100.721 23.4376 100.696 23.5586 100.693C23.5441 101.083 23.6488 101.469 23.8588 101.798C23.9724 101.952 24.1239 102.074 24.2985 102.152C24.4731 102.23 24.6649 102.262 24.8555 102.244C25.2006 102.269 25.5426 102.166 25.8161 101.954C25.9198 101.865 26.0026 101.754 26.0586 101.63C26.1147 101.505 26.1426 101.37 26.1404 101.233C26.1471 101.064 26.1037 100.897 26.0155 100.753C25.8977 100.595 25.7458 100.465 25.5712 100.374C25.2797 100.213 24.9761 100.075 24.6633 99.9605C24.3041 99.812 23.9572 99.6353 23.6258 99.4321C23.3744 99.2791 23.1622 99.0693 23.0062 98.8197C22.8619 98.5498 22.7914 98.2466 22.8021 97.9407C22.7893 97.6868 22.8418 97.4339 22.9544 97.2061C23.0671 96.9782 23.2362 96.783 23.4457 96.639C23.9516 96.3173 24.5449 96.1604 25.1437 96.1899C25.4966 96.1796 25.8487 96.2317 26.1836 96.3436C26.4208 96.4219 26.6325 96.563 26.796 96.7519C26.9219 96.9039 26.9915 97.0948 26.9929 97.2922C26.9979 97.3965 26.9788 97.5006 26.9371 97.5964C26.8955 97.6921 26.8324 97.7771 26.7528 97.8446C26.545 97.9974 26.2894 98.0707 26.0323 98.0512C26.0515 97.7185 25.9613 97.3886 25.7753 97.1121C25.6802 96.9976 25.5591 96.9075 25.422 96.8494C25.285 96.7914 25.136 96.767 24.9876 96.7783C24.6952 96.756 24.4047 96.8414 24.171 97.0184C24.0797 97.1008 24.0076 97.2022 23.9599 97.3155C23.9122 97.4288 23.8899 97.5512 23.8948 97.6741C23.8925 97.8463 23.9456 98.0146 24.0461 98.1544C24.1759 98.3146 24.3401 98.4434 24.5264 98.5315C24.7522 98.6468 25.0524 98.7716 25.4271 98.923C25.7801 99.0541 26.1182 99.2223 26.4358 99.4249C26.6808 99.5853 26.8842 99.8019 27.029 100.057C27.1677 100.321 27.2356 100.618 27.2259 100.916C27.2411 101.191 27.1897 101.466 27.076 101.717C26.9622 101.968 26.7896 102.187 26.5727 102.357C26.0538 102.717 25.4307 102.895 24.8002 102.864ZM34.2867 102.864C33.9005 102.874 33.5153 102.821 33.1459 102.708C32.8679 102.63 32.6179 102.474 32.4254 102.259C32.2626 102.061 32.1772 101.811 32.1853 101.555C32.1694 101.388 32.2099 101.22 32.3005 101.079C32.391 100.937 32.5263 100.83 32.6848 100.775C32.7975 100.73 32.9169 100.706 33.0378 100.703C33.0233 101.093 33.128 101.478 33.3381 101.807C33.4517 101.961 33.6032 102.083 33.7778 102.162C33.9524 102.24 34.1442 102.272 34.3347 102.254C34.6798 102.279 35.0219 102.175 35.2954 101.963C35.3991 101.875 35.4818 101.764 35.5379 101.639C35.5939 101.515 35.6218 101.38 35.6196 101.243C35.6264 101.074 35.5829 100.907 35.4947 100.763C35.3769 100.604 35.2251 100.475 35.0504 100.383C34.7589 100.222 34.4554 100.084 34.1426 99.9701C33.7834 99.8216 33.4364 99.645 33.1051 99.4417C32.8536 99.2887 32.6414 99.079 32.4855 98.8293C32.3411 98.5594 32.2707 98.2562 32.2813 97.9503C32.2686 97.6964 32.3211 97.4435 32.4337 97.2157C32.5464 96.9878 32.7155 96.7926 32.925 96.6486C33.4309 96.3269 34.0241 96.17 34.6229 96.1995C34.9759 96.1893 35.3279 96.2413 35.6629 96.3532C35.9001 96.4315 36.1117 96.5726 36.2753 96.7615C36.4012 96.9136 36.4707 97.1044 36.4722 97.3019C36.4771 97.4062 36.458 97.5102 36.4164 97.606C36.3748 97.7018 36.3117 97.7867 36.232 97.8542C36.0243 98.007 35.7687 98.0803 35.5116 98.0608C35.5308 97.7281 35.4405 97.3983 35.2546 97.1217C35.1595 97.0072 35.0383 96.9171 34.9013 96.8591C34.7642 96.801 34.6153 96.7766 34.4668 96.7879C34.1745 96.7656 33.884 96.851 33.6503 97.0281C33.559 97.1104 33.4869 97.2118 33.4392 97.3251C33.3914 97.4384 33.3692 97.5609 33.3741 97.6837C33.3718 97.8559 33.4248 98.0243 33.5254 98.164C33.6552 98.3242 33.8193 98.453 34.0057 98.5411C34.2315 98.6564 34.5317 98.7813 34.9063 98.9326C35.2594 99.0637 35.5975 99.232 35.915 99.4345C36.1616 99.5914 36.3674 99.8046 36.5154 100.057C36.6542 100.321 36.7221 100.618 36.7124 100.916C36.7276 101.191 36.6762 101.466 36.5624 101.717C36.4487 101.968 36.276 102.188 36.0591 102.357C35.5403 102.717 34.9172 102.895 34.2867 102.864ZM40.7711 102.204V102.744L47.3877 102.739L47.4717 100.136H46.8353L46.6912 101.036C46.6607 101.216 46.6083 101.391 46.5351 101.558C46.4642 101.729 46.3416 101.873 46.1844 101.971C46.0271 102.069 45.8432 102.115 45.6585 102.103H43.3289V95.4983C43.3161 95.3187 43.3579 95.1396 43.449 94.9843C43.5252 94.874 43.6386 94.7947 43.7684 94.7609C43.911 94.7231 44.058 94.7045 44.2055 94.7057H44.4456V94.1653H40.7711V94.7057H41.0113C41.1639 94.7043 41.3159 94.7246 41.4628 94.7657C41.5932 94.8064 41.7054 94.8914 41.7798 95.0059C41.8719 95.1722 41.9136 95.3616 41.8999 95.5511V101.363C41.9121 101.551 41.8704 101.738 41.7798 101.903C41.7069 102.019 41.5942 102.105 41.4628 102.144C41.3161 102.186 41.1639 102.206 41.0113 102.204H40.7711ZM52.7433 105.177C53.174 105.476 53.8185 105.626 54.6767 105.626C55.7974 105.628 56.626 105.428 57.1624 105.026C57.4183 104.833 57.624 104.582 57.762 104.293C57.9 104.004 57.9662 103.686 57.9549 103.366C57.9625 103.04 57.8908 102.717 57.746 102.425C57.5976 102.149 57.3667 101.926 57.0855 101.788C56.7101 101.614 56.2984 101.531 55.8847 101.548H54.5037C54.313 101.566 54.1211 101.529 53.9514 101.44C53.9029 101.402 53.8645 101.353 53.8394 101.297C53.8143 101.241 53.8032 101.179 53.8073 101.118C53.8016 100.957 53.8574 100.8 53.9634 100.679C54.0679 100.562 54.1944 100.466 54.3356 100.398C54.4373 100.416 54.5399 100.43 54.643 100.438C54.7751 100.458 54.888 100.458 54.9841 100.458C55.7398 100.458 56.3002 100.261 56.6652 99.8669C57.0338 99.4604 57.2293 98.9262 57.2104 98.3779C57.2168 98.0871 57.1679 97.7978 57.0663 97.5253C56.979 97.3006 56.8575 97.0908 56.7061 96.9032C56.7783 96.8621 56.8548 96.8291 56.9342 96.8048C57.0203 96.7811 57.1091 96.769 57.1984 96.7688C57.2575 96.7637 57.3169 96.7734 57.3714 96.7969C57.4258 96.8203 57.4737 96.8569 57.5106 96.9032C57.5755 96.9897 57.6093 97.0954 57.6067 97.2035C57.7056 97.2143 57.8057 97.2025 57.8994 97.1688C57.993 97.135 58.0778 97.0804 58.147 97.0089C58.251 96.8808 58.3063 96.72 58.3032 96.555C58.3033 96.472 58.2871 96.3898 58.2553 96.3132C58.2236 96.2365 58.177 96.1669 58.1182 96.1083C58.0408 96.0394 57.9503 95.9868 57.8521 95.9538C57.7538 95.9208 57.6499 95.908 57.5466 95.9162C57.3853 95.9151 57.2256 95.9487 57.0783 96.0146C56.937 96.0741 56.8057 96.1551 56.6892 96.2548C56.573 96.3543 56.4624 96.4601 56.3578 96.5718C56.1863 96.4467 55.9934 96.3539 55.7886 96.298C55.526 96.2157 55.2521 96.1751 54.9769 96.1779C54.1915 96.1779 53.6175 96.3749 53.2309 96.7712C53.0298 96.9898 52.8745 97.2466 52.7743 97.5263C52.674 97.8059 52.6309 98.1028 52.6473 98.3995C52.6403 98.7956 52.7443 99.1858 52.9475 99.5259C53.1359 99.846 53.4283 100.092 53.776 100.222C53.5306 100.357 53.311 100.534 53.1276 100.746C52.9828 100.928 52.9063 101.155 52.9115 101.387C52.9051 101.626 52.9911 101.858 53.1516 102.036C53.283 102.19 53.4471 102.313 53.6319 102.396C53.3601 102.431 53.0962 102.513 52.8514 102.636C52.6276 102.749 52.4372 102.919 52.299 103.128C52.1567 103.359 52.0857 103.626 52.0949 103.897C52.0843 104.148 52.1384 104.397 52.252 104.622C52.3655 104.846 52.5347 105.037 52.7433 105.177ZM55.9928 104.829C55.5753 104.961 55.1382 105.02 54.7007 105.004C54.3949 105.018 54.0896 104.968 53.8049 104.855C53.6028 104.774 53.4336 104.628 53.3245 104.44C53.2261 104.255 53.1765 104.048 53.1804 103.839C53.1625 103.597 53.2286 103.356 53.3678 103.157C53.4901 103.004 53.6586 102.895 53.8481 102.845C54.0429 102.787 54.2452 102.758 54.4485 102.758H55.6854C55.9829 102.741 56.2798 102.803 56.5451 102.939C56.6507 103.017 56.7335 103.122 56.785 103.244C56.8365 103.365 56.8548 103.497 56.8381 103.628C56.8426 103.881 56.7761 104.131 56.646 104.348C56.4879 104.577 56.258 104.746 55.9928 104.829ZM55.5365 99.6772C55.3603 99.7934 55.1517 99.8506 54.9408 99.8405C54.7914 99.8519 54.6415 99.8242 54.5059 99.7602C54.3703 99.6962 54.2537 99.5981 54.1675 99.4754C53.9848 99.1389 53.9015 98.7575 53.9274 98.3755C53.9177 98.0841 53.9501 97.793 54.0234 97.5109C54.0738 97.3046 54.1871 97.1191 54.3476 96.9801C54.5141 96.8535 54.7199 96.7898 54.9288 96.8C55.1413 96.7909 55.3508 96.8525 55.5244 96.9753C55.6836 97.1113 55.7947 97.2948 55.8415 97.4989C55.9119 97.7807 55.9442 98.0706 55.9375 98.361C55.9438 98.6383 55.9139 98.9152 55.8487 99.1848C55.8042 99.3799 55.6939 99.5537 55.5365 99.6772ZM58.6514 102.744V102.204H58.7235C58.8856 102.205 59.0471 102.185 59.2038 102.144C59.3449 102.108 59.4685 102.023 59.552 101.903C59.651 101.74 59.6971 101.549 59.6841 101.358V94.9506C59.6983 94.7687 59.65 94.5875 59.5472 94.4367C59.4564 94.3253 59.3316 94.2468 59.1918 94.2133C59.0425 94.1762 58.8893 94.1577 58.7355 94.1581H58.6274V93.6177H61.005V96.0794C61.005 96.2403 61.005 96.4084 60.9882 96.5838C60.9772 96.6992 60.9692 96.8333 60.9603 96.984L60.9602 96.9848C60.9556 97.0629 60.9507 97.1455 60.945 97.2322H61.0171C61.1286 96.9994 61.2835 96.7899 61.4734 96.615C61.645 96.4608 61.8483 96.346 62.069 96.2788C62.3028 96.2096 62.5456 96.1756 62.7895 96.1779C63.0721 96.159 63.3556 96.1988 63.6222 96.2947C63.8888 96.3905 64.1327 96.5405 64.3385 96.7351C64.6988 97.1073 64.8789 97.6957 64.8789 98.5195V101.341C64.8673 101.534 64.9062 101.726 64.9918 101.899C65.0618 102.016 65.1745 102.102 65.3064 102.139C65.4563 102.182 65.6117 102.202 65.7675 102.199H65.8035V102.739H63.558V98.6564C63.5813 98.2389 63.4881 97.8232 63.289 97.4556C63.1089 97.1722 62.7895 97.0305 62.3284 97.0305C62.0557 97.0187 61.7877 97.1037 61.5718 97.2706C61.3626 97.4484 61.2105 97.684 61.1347 97.9479C61.0366 98.2717 60.9896 98.6087 60.9954 98.947V101.421C60.9838 101.6 61.0283 101.778 61.1227 101.93C61.2029 102.049 61.3244 102.135 61.4638 102.17C61.6211 102.207 61.7824 102.225 61.9441 102.223H61.9801V102.763L58.6514 102.744ZM67.7368 102.451C68.0234 102.726 68.4637 102.864 69.0577 102.864C69.3061 102.866 69.5539 102.843 69.7975 102.795C69.97 102.763 70.139 102.713 70.3018 102.648V102.048C70.1649 102.074 70.0472 102.093 69.9247 102.108C69.791 102.125 69.6562 102.134 69.5213 102.134C69.398 102.14 69.2749 102.119 69.1614 102.07C69.0478 102.022 68.9466 101.949 68.8656 101.855C68.688 101.605 68.6031 101.3 68.6255 100.993V97.0305H70.1865V96.31H68.6255V94.8306H67.953C67.9093 95.0885 67.8368 95.3407 67.7368 95.5823C67.6586 95.7721 67.5444 95.945 67.4006 96.0915C67.2704 96.23 67.1102 96.3368 66.9323 96.4037C66.7648 96.4735 66.5854 96.5102 66.4039 96.5118V97.0305H67.3045V100.993C67.3045 101.687 67.4486 102.175 67.7368 102.451ZM70.8158 102.744V102.204H70.9791C71.1328 102.205 71.2861 102.187 71.4354 102.151C71.5776 102.113 71.7029 102.029 71.7909 101.911C71.892 101.761 71.9402 101.582 71.9278 101.402V97.6405C71.9415 97.4579 71.8933 97.276 71.7909 97.1242C71.6991 97.0144 71.5745 96.9369 71.4354 96.9032C71.2861 96.8669 71.1328 96.8492 70.9791 96.8504H70.9191V96.31H73.2487V101.353C73.2349 101.543 73.2811 101.732 73.3808 101.894C73.4667 102.013 73.5916 102.098 73.7338 102.134C73.8849 102.175 74.0408 102.195 74.1973 102.194H74.3414V102.734L70.8158 102.744ZM72.533 95.1428C72.3311 95.15 72.1332 95.0863 71.9734 94.9627C71.8937 94.8858 71.8324 94.7918 71.7941 94.6878C71.7559 94.5838 71.7416 94.4726 71.7524 94.3623C71.7407 94.2506 71.7552 94.1377 71.7948 94.0326C71.8344 93.9276 71.898 93.8332 71.9806 93.7571C72.1408 93.643 72.3327 93.5817 72.5294 93.5817C72.7261 93.5817 72.9179 93.643 73.0781 93.7571C73.2284 93.921 73.3117 94.1352 73.3117 94.3575C73.3117 94.5798 73.2284 94.794 73.0781 94.9579C72.9231 95.0804 72.7305 95.1457 72.533 95.1428ZM74.8217 102.204V102.744L78.1816 102.79V102.249H78.1336C77.9719 102.252 77.8105 102.234 77.6533 102.196C77.5158 102.16 77.3964 102.074 77.317 101.956C77.2236 101.804 77.1799 101.626 77.1921 101.447V98.9734C77.1883 98.6489 77.2303 98.3255 77.317 98.0128C77.3852 97.7373 77.5311 97.4873 77.7373 97.2923C77.9616 97.1078 78.2471 97.0144 78.5371 97.0305C78.7176 97.0117 78.8998 97.0412 79.0652 97.1159C79.2306 97.1905 79.3732 97.3078 79.4785 97.4556C79.6786 97.823 79.7726 98.2387 79.7499 98.6564V102.739H82.0075V102.199H81.9474C81.7908 102.202 81.6346 102.182 81.4839 102.139C81.4197 102.121 81.3597 102.09 81.3074 102.049C81.255 102.008 81.2113 101.957 81.1789 101.899C81.0964 101.725 81.0592 101.533 81.0708 101.341V98.5195C81.0708 97.6958 80.8955 97.1074 80.5424 96.7351C80.3491 96.5438 80.1177 96.3953 79.8632 96.2993C79.6088 96.2033 79.3369 96.162 79.0654 96.1779C78.8231 96.175 78.5812 96.2008 78.3449 96.2548C78.1208 96.31 77.9116 96.4141 77.7325 96.5598C77.5139 96.7529 77.3331 96.985 77.1993 97.2443H77.1393L76.9832 96.31H74.8745V96.8528H74.9226C75.0843 96.8499 75.2457 96.8676 75.4029 96.9056C75.5388 96.9387 75.6582 97.0197 75.7391 97.1338C75.8344 97.2902 75.8789 97.4722 75.8664 97.6549V101.358C75.8791 101.549 75.8348 101.738 75.7391 101.903C75.6575 102.025 75.5331 102.11 75.3909 102.144C75.2287 102.186 75.0614 102.206 74.8938 102.204H74.8217ZM85.1176 105.626C84.2595 105.626 83.615 105.476 83.1843 105.177C82.9757 105.037 82.8065 104.846 82.6929 104.622C82.5794 104.397 82.5253 104.148 82.5359 103.897C82.5267 103.626 82.5977 103.359 82.74 103.128C82.8781 102.919 83.0685 102.749 83.2924 102.636C83.5372 102.512 83.8011 102.431 84.0729 102.396C83.8881 102.313 83.724 102.19 83.5926 102.036C83.4321 101.858 83.3461 101.626 83.3524 101.387C83.3473 101.155 83.4238 100.928 83.5686 100.746C83.752 100.534 83.9715 100.357 84.217 100.222C83.8693 100.092 83.5768 99.8459 83.3885 99.5258C83.1853 99.1857 83.0813 98.7955 83.0882 98.3994C83.0721 98.103 83.1151 97.8063 83.2149 97.5267C83.3147 97.2472 83.4692 96.9903 83.6694 96.7711C84.0585 96.3756 84.6413 96.1779 85.4178 96.1779C85.6923 96.1751 85.9654 96.2156 86.2272 96.298C86.4327 96.3539 86.6264 96.4467 86.7988 96.5718C86.9031 96.4607 87.0129 96.3549 87.1278 96.2547C87.2455 96.1555 87.3775 96.0745 87.5193 96.0146C87.6702 95.947 87.8342 95.9133 87.9996 95.9161C88.1026 95.9077 88.2062 95.9204 88.304 95.9535C88.4019 95.9865 88.492 96.0392 88.5688 96.1082C88.6283 96.1664 88.6756 96.2359 88.7077 96.3126C88.7399 96.3893 88.7564 96.4717 88.7561 96.555C88.7593 96.7199 88.704 96.8807 88.6 97.0089C88.5307 97.0803 88.446 97.135 88.3524 97.1687C88.2587 97.2024 88.1586 97.2143 88.0597 97.2034C88.0607 97.0956 88.027 96.9903 87.9636 96.9032C87.9266 96.8568 87.8788 96.8203 87.8243 96.7968C87.7699 96.7733 87.7105 96.7637 87.6514 96.7687C87.5621 96.7689 87.4733 96.781 87.3872 96.8047C87.3076 96.8286 87.231 96.8616 87.159 96.9032C87.3105 97.0907 87.432 97.3005 87.5193 97.5252C87.6209 97.7977 87.6698 98.087 87.6634 98.3778C87.6827 98.9267 87.4861 99.4612 87.1158 99.8668C86.754 100.261 86.1936 100.458 85.4347 100.458C85.3386 100.458 85.2233 100.458 85.0912 100.438C84.9889 100.43 84.8871 100.416 84.7862 100.398C84.6449 100.466 84.5185 100.561 84.414 100.679C84.3071 100.799 84.2512 100.957 84.2579 101.118C84.2538 101.179 84.2648 101.241 84.29 101.297C84.3151 101.353 84.3535 101.402 84.402 101.44C84.5717 101.529 84.7636 101.566 84.9543 101.548H86.3353C86.749 101.531 87.1607 101.613 87.5361 101.788C87.8177 101.926 88.0489 102.148 88.1966 102.425C88.4043 102.861 88.4599 103.354 88.3545 103.825C88.2492 104.297 87.989 104.719 87.6154 105.026C87.071 105.427 86.2384 105.628 85.1176 105.626ZM85.1417 105.004L85.1458 105.004L85.1489 105.004H85.1417ZM85.3818 99.8404L85.3865 99.8406C85.2352 99.8539 85.0832 99.8271 84.9456 99.7629C84.8073 99.6983 84.6885 99.5983 84.6013 99.473C84.4186 99.1365 84.3353 98.755 84.3611 98.373C84.3544 98.0823 84.3884 97.7921 84.462 97.5108C84.5142 97.3053 84.6272 97.1203 84.7862 96.98C84.9538 96.8539 85.1602 96.7901 85.3698 96.7999C85.5817 96.7895 85.7908 96.8513 85.963 96.9752C86.1238 97.1102 86.236 97.2941 86.2824 97.4988C86.3529 97.7806 86.3852 98.0706 86.3785 98.361C86.3841 98.6384 86.3534 98.9153 86.2872 99.1848C86.2439 99.3803 86.1334 99.5545 85.975 99.6771C85.8012 99.7928 85.595 99.8501 85.3865 99.8406L85.389 99.8404H85.3818ZM92.4066 102.204V102.744L99.0231 102.739L99.1072 100.136H98.4707L98.3266 101.036C98.295 101.216 98.2426 101.391 98.1705 101.558C98.0997 101.729 97.977 101.873 97.8198 101.971C97.6626 102.069 97.4787 102.115 97.2939 102.103H94.9643V95.4983C94.9503 95.3186 94.9922 95.1391 95.0844 94.9843C95.1598 94.8741 95.2723 94.7948 95.4014 94.7609C95.5448 94.7231 95.6926 94.7045 95.8409 94.7057H96.0811V94.1653H92.4066V94.7057H92.6467C92.7985 94.7043 92.9497 94.7245 93.0958 94.7657C93.2266 94.807 93.3393 94.8917 93.4152 95.0059C93.5073 95.1722 93.549 95.3616 93.5353 95.5511V101.363C93.5475 101.551 93.5059 101.738 93.4152 101.903C93.341 102.019 93.2276 102.104 93.0958 102.144C92.95 102.186 92.7986 102.206 92.6467 102.204H92.4066ZM101.149 102.828C100.941 102.835 100.737 102.769 100.572 102.643C100.417 102.454 100.332 102.218 100.332 101.973C100.332 101.729 100.417 101.492 100.572 101.303C100.739 101.18 100.942 101.117 101.149 101.123C101.355 101.118 101.558 101.181 101.725 101.303C101.88 101.492 101.965 101.729 101.965 101.973C101.965 102.218 101.88 102.454 101.725 102.643C101.56 102.769 101.356 102.834 101.149 102.828ZM103.142 102.204V102.744L109.754 102.739L109.838 100.136H109.201L109.057 101.036C109.026 101.216 108.973 101.391 108.901 101.558C108.83 101.729 108.708 101.873 108.551 101.971C108.393 102.069 108.209 102.115 108.025 102.103H105.695V95.4983C105.681 95.3186 105.723 95.1391 105.815 94.9843C105.89 94.8741 106.003 94.7948 106.132 94.7609C106.276 94.7231 106.423 94.7045 106.572 94.7057H106.824V94.1653H103.149V94.7057H103.401C103.553 94.7043 103.704 94.7245 103.851 94.7657C103.981 94.807 104.094 94.8917 104.17 95.0059C104.262 95.1722 104.304 95.3616 104.29 95.5511V101.363C104.302 101.551 104.261 101.738 104.17 101.903C104.096 102.019 103.982 102.104 103.851 102.144C103.705 102.186 103.553 102.206 103.401 102.204H103.142ZM111.884 102.828C111.676 102.835 111.473 102.769 111.308 102.643C111.152 102.454 111.067 102.218 111.067 101.973C111.067 101.729 111.152 101.492 111.308 101.303C111.474 101.18 111.677 101.117 111.884 101.123C112.091 101.118 112.293 101.181 112.46 101.303C112.616 101.492 112.701 101.729 112.701 101.973C112.701 102.218 112.616 102.454 112.46 102.643C112.295 102.769 112.092 102.834 111.884 102.828ZM115.587 102.314C116.217 102.699 116.946 102.89 117.684 102.864C118.086 102.862 118.486 102.81 118.875 102.708C119.163 102.638 119.437 102.522 119.687 102.365C119.871 102.247 120.029 102.091 120.148 101.908C120.242 101.765 120.294 101.599 120.299 101.428C120.301 101.329 120.281 101.232 120.239 101.142C120.203 101.066 120.15 101 120.083 100.948C119.938 101.135 119.773 101.306 119.591 101.459C119.384 101.631 119.148 101.765 118.895 101.855C118.574 101.963 118.236 102.013 117.898 102.004C117.381 102.031 116.872 101.876 116.457 101.567C116.071 101.243 115.793 100.809 115.66 100.323C115.48 99.7071 115.395 99.0674 115.407 98.4258C115.396 97.744 115.477 97.0638 115.647 96.4037C115.762 95.9136 116.027 95.4713 116.404 95.138C116.801 94.8332 117.293 94.6792 117.792 94.7033C118.084 94.6883 118.372 94.773 118.609 94.9435C118.805 95.1 118.955 95.3078 119.041 95.5439C119.128 95.7833 119.173 96.036 119.173 96.2908C119.472 96.3066 119.768 96.222 120.014 96.0506C120.116 95.9764 120.198 95.8788 120.255 95.7659C120.311 95.6531 120.34 95.5283 120.338 95.4022C120.338 95.1457 120.241 94.8986 120.067 94.7105C119.838 94.4797 119.552 94.3139 119.238 94.2302C118.78 94.0985 118.305 94.0378 117.828 94.05C117.069 94.0243 116.318 94.2186 115.667 94.6096C115.08 94.9829 114.618 95.5221 114.339 96.1587C114.026 96.8797 113.873 97.6595 113.889 98.4451C113.872 99.2408 114.017 100.032 114.315 100.77C114.574 101.401 115.018 101.939 115.587 102.314Z" fill="#7D8085"/>
<path fill-rule="evenodd" clip-rule="evenodd" d="M84.1212 19.299H84.8869C83.7755 13.8511 80.816 8.95443 76.5094 5.43767C72.2027 1.92091 66.8133 0 61.2532 0C55.6931 0 50.3037 1.92091 45.9971 5.43767C41.6904 8.95443 38.731 13.8511 37.6195 19.299H38.3852C39.4913 14.0533 42.3672 9.34737 46.5307 5.97018C50.6942 2.593 55.8922 0.749892 61.2532 0.749892C66.6142 0.749892 71.8122 2.593 75.9758 5.97018C80.1393 9.34737 83.0151 14.0533 84.1212 19.299ZM61.2543 48.2395C72.8917 48.2395 82.6479 39.9308 84.887 28.9351H84.1293C83.0249 34.1844 80.1489 38.8941 75.9837 42.2742C71.8184 45.6543 66.6175 47.4991 61.2533 47.4991C55.8892 47.4991 50.6882 45.6543 46.523 42.2742C42.3578 38.8941 39.4817 34.1844 38.3774 28.9351H37.6196C39.8588 39.9348 49.6169 48.2395 61.2543 48.2395Z" fill="#7D8085"/>
<path fill-rule="evenodd" clip-rule="evenodd" d="M62.5439 20.2346L64.3332 21.3722L67.7518 36.7361L49.1032 24.7788L49.0472 24.7528L48.3315 24.293C48.2555 24.247 47.8257 23.9851 47.2559 23.5853C47.2436 23.5853 47.2359 23.5768 47.2259 23.5657C47.2213 23.5606 47.2162 23.555 47.2099 23.5493C45.5304 22.1311 44.4344 20.1421 44.1329 17.9646C43.8314 15.7872 44.3456 13.5752 45.5766 11.754C45.6047 11.7014 45.6382 11.6518 45.6765 11.606C45.7505 11.5141 45.8245 11.4221 45.8884 11.3301C46.1183 11.0462 46.3483 10.7704 46.5782 10.5145L46.6601 10.4305C50.5306 6.12418 55.5026 4.49083 57.9277 4.22293C60.8042 3.74449 63.7507 3.90488 66.5583 4.69275C69.2633 5.44098 71.7565 6.81009 73.8394 8.69117C75.7479 10.445 77.3144 12.5376 78.4596 14.8627V18.6452C77.2641 15.3086 75.6387 12.5936 73.5915 10.5105C71.5635 8.42396 69.0144 6.91783 66.2084 6.14817C63.604 5.41232 60.8691 5.26145 58.1996 5.70635H58.1176C56.9941 5.8183 54.683 6.40407 52.196 7.8555C50.867 8.62906 49.6411 9.56746 48.5474 10.6484C48.4901 10.6926 48.4368 10.7448 48.3832 10.7974C48.3713 10.8091 48.3594 10.8207 48.3475 10.8323C48.1141 11.0493 47.8963 11.2824 47.6957 11.5301L47.6777 11.548C46.9654 12.4225 46.447 13.4383 46.1568 14.5282C45.8666 15.6181 45.8112 16.7573 45.9944 17.8702C46.1775 18.9831 46.595 20.0444 47.2192 20.9838C47.8434 21.9232 48.66 22.7193 49.615 23.3194L53.2315 25.6485L65.5007 33.5214L62.5439 20.2346ZM75.8485 35.7365C71.9781 40.0328 67.006 41.6682 64.581 41.9341C61.7042 42.4118 58.7576 42.2501 55.9504 41.4603C53.2457 40.7111 50.7528 39.3421 48.6693 37.4618C46.7609 35.7088 45.1943 33.6168 44.0491 31.2923V27.5078C45.2473 30.8465 46.87 33.5587 48.9172 35.6446C50.9472 37.7268 53.4958 39.2298 56.3002 39.9988C58.9038 40.7347 61.6375 40.8883 64.3071 40.4487L64.3891 40.4387C65.5146 40.3287 67.8237 39.7409 70.3127 38.2895C71.6462 37.521 72.8768 36.5866 73.9753 35.5086C74.0366 35.4596 74.0933 35.4043 74.1509 35.3484C74.1589 35.3405 74.1671 35.3326 74.1752 35.3247C74.4081 35.1073 74.6259 34.8741 74.8269 34.627L74.8449 34.607C75.5573 33.7325 76.0757 32.7167 76.3659 31.6268C76.6561 30.5369 76.7115 29.3978 76.5283 28.2849C76.3452 27.1719 75.9277 26.1106 75.3035 25.1712C74.6793 24.2318 73.8627 23.4357 72.9077 22.8356L69.2791 20.5125L57.012 12.6336L59.9628 25.9264L58.1735 24.7868L54.7569 9.4349L73.4055 21.3902L73.4615 21.4182L74.1772 21.876C74.2532 21.922 74.683 22.1839 75.2528 22.5837C75.2651 22.5837 75.2728 22.5922 75.2828 22.6033C75.2874 22.6084 75.2925 22.6141 75.2988 22.6197C76.9779 24.0381 78.0736 26.0272 78.3751 28.2045C78.6766 30.3818 78.1627 32.5937 76.9321 34.4151C76.9035 34.4667 76.87 34.5156 76.8321 34.561L76.8321 34.5611C76.7582 34.653 76.6842 34.7449 76.6202 34.8369C76.3903 35.1228 76.1604 35.3967 75.9305 35.6546L75.8485 35.7365Z" fill="#393D46"/>
</svg>
