<svg width="21" height="21" viewBox="0 0 21 21" fill="none" xmlns="http://www.w3.org/2000/svg">
<path d="M18.75 0C19.9688 0 21 1.03125 21 2.25V18.75C21 20.0156 19.9688 21 18.75 21H12.2812V13.875H15L15.5156 10.5H12.2812V8.34375C12.2812 7.40625 12.75 6.51562 14.2031 6.51562H15.6562V3.65625C15.6562 3.65625 14.3438 3.42188 13.0312 3.42188C10.4062 3.42188 8.67188 5.0625 8.67188 7.96875V10.5H5.71875V13.875H8.67188V21H2.25C0.984375 21 0 20.0156 0 18.75V2.25C0 1.03125 0.984375 0 2.25 0H18.75Z" fill="#E2E2E2"/>
</svg>
