<svg width="16" height="604" viewBox="0 0 16 604" fill="none" xmlns="http://www.w3.org/2000/svg">
<path d="M6.7979 309.525L0.421743 303.149C-0.000208333 302.68 -0.000208259 301.977 0.421743 301.555L1.50006 300.476C1.92202 300.054 2.67215 300.054 3.0941 300.476L7.59492 305.024L12.1426 300.476C12.5646 300.054 13.2678 300.054 13.7367 300.476L14.7681 301.555C15.2369 301.977 15.2369 302.68 14.7681 303.149L8.39194 309.525C7.96998 309.947 7.26673 309.947 6.7979 309.525Z" fill="#7D8085"/>
<path d="M6.7979 407.543L0.421743 401.166C-0.000208333 400.698 -0.000208259 399.994 0.421743 399.572L1.50006 398.494C1.92202 398.072 2.67215 398.072 3.0941 398.494L7.59492 403.042L12.1426 398.494C12.5646 398.072 13.2678 398.072 13.7367 398.494L14.7681 399.572C15.2369 399.994 15.2369 400.698 14.7681 401.166L8.39194 407.543C7.96998 407.965 7.26673 407.965 6.7979 407.543Z" fill="#7D8085"/>
<path d="M6.7979 505.56L0.421743 499.184C-0.000208333 498.715 -0.000208259 498.012 0.421743 497.59L1.50006 496.512C1.92202 496.09 2.67215 496.09 3.0941 496.512L7.59492 501.059L12.1426 496.512C12.5646 496.09 13.2678 496.09 13.7367 496.512L14.7681 497.59C15.2369 498.012 15.2369 498.715 14.7681 499.184L8.39194 505.56C7.96998 505.982 7.26673 505.982 6.7979 505.56Z" fill="#7D8085"/>
<path d="M6.7979 603.578L0.421743 597.202C-0.000208333 596.733 -0.000208259 596.03 0.421743 595.608L1.50006 594.53C1.92202 594.108 2.67215 594.108 3.0941 594.53L7.59492 599.077L12.1426 594.53C12.5646 594.108 13.2678 594.108 13.7367 594.53L14.7681 595.608C15.2369 596.03 15.2369 596.733 14.7681 597.202L8.39194 603.578C7.96998 604 7.26673 604 6.7979 603.578Z" fill="#7D8085"/>
<path d="M6.7979 211.507L0.421743 205.131C-0.000208333 204.662 -0.000208259 203.959 0.421743 203.537L1.50006 202.459C1.92202 202.037 2.67215 202.037 3.0941 202.459L7.59492 207.006L12.1426 202.459C12.5646 202.037 13.2678 202.037 13.7367 202.459L14.7681 203.537C15.2369 203.959 15.2369 204.662 14.7681 205.131L8.39194 211.507C7.96998 211.929 7.26673 211.929 6.7979 211.507Z" fill="#7D8085"/>
<path d="M6.7979 111.489L0.421743 105.113C-0.000208333 104.644 -0.000208259 103.941 0.421743 103.519L1.50006 102.44C1.92202 102.018 2.67215 102.018 3.0941 102.44L7.59492 106.988L12.1426 102.44C12.5646 102.018 13.2678 102.018 13.7367 102.44L14.7681 103.519C15.2369 103.941 15.2369 104.644 14.7681 105.113L8.39194 111.489C7.96998 111.911 7.26673 111.911 6.7979 111.489Z" fill="#7D8085"/>
<path d="M6.91801 9.47046L0.541858 3.09431C0.119907 2.62547 0.119907 1.92222 0.541858 1.50027L1.62018 0.42195C2.04213 -1.07245e-06 2.79227 -1.01736e-06 3.21422 0.42195L7.71503 4.96965L12.2627 0.421951C12.6847 -2.90778e-07 13.3879 -2.39126e-07 13.8568 0.421951L14.8882 1.50027C15.357 1.92222 15.357 2.62548 14.8882 3.09431L8.51205 9.47046C8.0901 9.89242 7.38685 9.89242 6.91801 9.47046Z" fill="#7D8085"/>
</svg>
