<svg width="28" height="24" viewBox="0 0 28 24" fill="none" xmlns="http://www.w3.org/2000/svg">
<path d="M24.75 14.1562C24.6094 14.6719 24.1406 15 23.625 15H9.89062L10.2188 16.5H22.7812C23.4844 16.5 24.0469 17.2031 23.8594 17.9062L23.625 19.0312C24.5156 19.4531 25.125 20.3438 25.125 21.375C25.125 22.8281 23.9062 24 22.5 24C21.0469 24 19.875 22.8281 19.875 21.375C19.875 20.6719 20.1562 20.0156 20.625 19.5H10.8281C11.2969 20.0156 11.625 20.6719 11.625 21.375C11.625 22.8281 10.4062 24 9 24C7.54688 24 6.375 22.8281 6.375 21.375C6.375 20.4375 6.89062 19.5938 7.6875 19.125L4.35938 3H1.125C0.46875 3 0 2.53125 0 1.875V1.125C0 0.515625 0.46875 0 1.125 0H5.90625C6.42188 0 6.89062 0.421875 7.03125 0.9375L7.45312 3H25.8281C26.5781 3 27.0938 3.70312 26.9531 4.40625L24.75 14.1562Z" fill="#7D8085"/>
</svg>
