<svg width="14" height="14" viewBox="0 0 14 14" fill="none" xmlns="http://www.w3.org/2000/svg">
<path d="M5.8125 5.34375L8.8125 7.03125L5.8125 8.71875V5.34375ZM14 1.5V12.5C14 13.3438 13.3125 14 12.5 14H1.5C0.65625 14 0 13.3438 0 12.5V1.5C0 0.6875 0.65625 0 1.5 0H12.5C13.3125 0 14 0.6875 14 1.5ZM12.6875 7.03125C12.6875 7.03125 12.6875 5.15625 12.4375 4.28125C12.3125 3.78125 11.9062 3.375 11.4375 3.25C10.5312 3 7 3 7 3C7 3 3.4375 3 2.53125 3.25C2.0625 3.375 1.65625 3.78125 1.53125 4.28125C1.3125 5.15625 1.3125 7.03125 1.3125 7.03125C1.3125 7.03125 1.3125 8.875 1.53125 9.78125C1.65625 10.2812 2.0625 10.6562 2.53125 10.7812C3.4375 11 7 11 7 11C7 11 10.5312 11 11.4375 10.7812C11.9062 10.6562 12.3125 10.2812 12.4375 9.78125C12.6875 8.875 12.6875 7.03125 12.6875 7.03125Z" fill="#222222"/>
</svg>
