<svg width="48" height="49" viewBox="0 0 48 49" fill="none" xmlns="http://www.w3.org/2000/svg">
<path fill-rule="evenodd" clip-rule="evenodd" d="M47.2224 19.5981H48C46.8713 14.0658 43.866 9.09322 39.4926 5.52195C35.1192 1.95068 29.6463 0 24 0C18.3537 0 12.8808 1.95068 8.50738 5.52195C4.13397 9.09322 1.12866 14.0658 0 19.5981H0.777564C1.90075 14.2711 4.82121 9.49225 9.04926 6.06272C13.2773 2.63319 18.5559 0.761515 24 0.761515C29.4441 0.761515 34.7227 2.63319 38.9507 6.06272C43.1788 9.49225 46.0992 14.2711 47.2224 19.5981ZM24.001 48.9872C35.8188 48.9872 45.7262 40.5497 48 29.3836H47.2306C46.1091 34.7142 43.1884 39.497 38.9587 42.9294C34.7289 46.3619 29.4473 48.2353 24 48.2353C18.5527 48.2353 13.2711 46.3619 9.04136 42.9294C4.81158 39.497 1.89094 34.7142 0.769447 29.3836H0C2.27382 40.5538 12.1832 48.9872 24.001 48.9872Z" fill="#7D8085"/>
<path fill-rule="evenodd" clip-rule="evenodd" d="M25.3107 20.5483L27.1277 21.7035L30.5993 37.3055L11.6616 25.1629L11.6048 25.1365L10.878 24.6696C10.8008 24.6229 10.3644 24.3569 9.78575 23.9509C9.77321 23.9509 9.76545 23.9423 9.75526 23.931C9.75059 23.9258 9.74542 23.9201 9.73905 23.9143C8.03345 22.4742 6.92053 20.4543 6.61434 18.2431C6.30815 16.0319 6.8303 13.7856 8.08037 11.9362C8.10898 11.8828 8.14299 11.8324 8.18188 11.7859C8.257 11.6925 8.33212 11.5992 8.39708 11.5058C8.63056 11.2175 8.86403 10.9373 9.09751 10.6774L9.18074 10.5922C13.1112 6.21913 18.1603 4.56046 20.6229 4.28841C23.544 3.80255 26.5362 3.96543 29.3873 4.76551C32.1343 5.52534 34.6661 6.91566 36.7813 8.82591C38.7193 10.6069 40.3102 12.7319 41.4731 15.0931V18.9343C40.259 15.5459 38.6085 12.7889 36.5296 10.6734C34.4702 8.55456 31.8815 7.02508 29.032 6.24349C26.3873 5.49623 23.61 5.34302 20.8991 5.79482H20.8158C19.6748 5.90851 17.3279 6.50336 14.8024 7.97728C13.4528 8.76283 12.2079 9.71578 11.0973 10.8135C11.0391 10.8583 10.985 10.9114 10.9305 10.9648C10.9185 10.9766 10.9064 10.9885 10.8942 11.0002C10.6572 11.2206 10.4361 11.4573 10.2324 11.7088L10.2141 11.7271C9.49075 12.6151 8.96428 13.6467 8.66958 14.7534C8.37487 15.8602 8.31866 17.017 8.50465 18.1472C8.69065 19.2773 9.1146 20.3551 9.74845 21.3091C10.3823 22.2631 11.2116 23.0715 12.1814 23.6809L15.854 26.0461L28.3133 34.041L25.3107 20.5483ZM38.8217 36.2905C34.8912 40.6534 29.8421 42.3141 27.3795 42.5841C24.4582 43.0692 21.4658 42.9049 18.6151 42.1029C15.8686 41.3421 13.337 39.9519 11.2211 38.0425C9.28318 36.2623 7.69234 34.1379 6.52935 31.7773V27.9342C7.74612 31.3246 9.39396 34.0789 11.4729 36.1971C13.5344 38.3115 16.1225 39.8379 18.9704 40.6188C21.6143 41.3661 24.3904 41.5221 27.1014 41.0756L27.1846 41.0655C28.3276 40.9538 30.6725 40.3569 33.2001 38.883C34.5542 38.1026 35.8039 37.1537 36.9194 36.059C36.9817 36.0092 37.0393 35.9531 37.0977 35.8963C37.1059 35.8883 37.1142 35.8803 37.1224 35.8722C37.359 35.6514 37.5801 35.4147 37.7843 35.1637L37.8025 35.1434C38.5259 34.2554 39.0524 33.2238 39.3471 32.117C39.6418 31.0102 39.698 29.8534 39.512 28.7233C39.326 27.5931 38.9021 26.5154 38.2682 25.5614C37.6344 24.6074 36.8051 23.799 35.8353 23.1896L32.1505 20.8305L19.6932 12.8295L22.6897 26.3283L20.8727 25.1711L17.4031 9.58116L36.3408 21.7217L36.3976 21.7502L37.1245 22.2151C37.2016 22.2618 37.6381 22.5277 38.2167 22.9338C38.2292 22.9338 38.237 22.9424 38.2472 22.9537C38.2519 22.9589 38.257 22.9646 38.2634 22.9703C39.9686 24.4107 41.0812 26.4306 41.3874 28.6417C41.6936 30.8527 41.1717 33.0989 39.9221 34.9485C39.893 35.001 39.859 35.0506 39.8206 35.0967C39.7454 35.1901 39.6703 35.2835 39.6054 35.3769C39.3719 35.6672 39.1384 35.9453 38.9049 36.2072L38.8217 36.2905Z" fill="#393D46"/>
</svg>
