<svg width="59" height="53" viewBox="0 0 59 53" fill="none" xmlns="http://www.w3.org/2000/svg">
<circle cx="25.3457" cy="27.0827" r="25.3457" fill="#D9D9D9"/>
<path d="M56.3746 5.90277L56.3745 5.90273L53.1442 2.64002C52.3023 1.78968 50.9284 1.78935 50.0861 2.63932L25.7669 27.1789L17.1169 18.4423C17.1169 18.4423 17.1169 18.4423 17.1169 18.4423C16.2768 17.5938 14.9065 17.5913 14.0634 18.4369L10.8095 21.7003C10.8095 21.7003 10.8094 21.7003 10.8094 21.7003C9.97397 22.5382 9.9716 23.8933 10.8041 24.7342L24.2368 38.3014C25.079 39.152 26.4534 39.152 27.2956 38.3014L25.8729 36.8928L27.2956 38.3014L56.3745 8.93121C57.2049 8.0925 57.2049 6.74149 56.3746 5.90277Z" fill="#E2E2E2" stroke="#393D46" stroke-width="4"/>
</svg>
