<svg width="14" height="14" viewBox="0 0 14 14" fill="none" xmlns="http://www.w3.org/2000/svg">
<path d="M12.5 0C13.3125 0 14 0.6875 14 1.5V12.5C14 13.3438 13.3125 14 12.5 14H1.5C0.65625 14 0 13.3438 0 12.5V1.5C0 0.6875 0.65625 0 1.5 0H12.5ZM10.9688 4.96875C11.3438 4.6875 11.7188 4.3125 12 3.90625C11.625 4.0625 11.2188 4.1875 10.8125 4.21875C11.2188 3.96875 11.5625 3.59375 11.7188 3.09375C11.3125 3.34375 10.875 3.5 10.4062 3.59375C10.0312 3.1875 9.5 2.9375 8.90625 2.9375C7.65625 2.9375 6.625 4.09375 6.90625 5.46875C5.21875 5.375 3.6875 4.5625 2.6875 3.3125C2.5 3.625 2.40625 3.96875 2.40625 4.375C2.40625 5.0625 2.75 5.6875 3.3125 6.0625C2.96875 6.0625 2.65625 5.96875 2.40625 5.8125V5.84375C2.40625 6.84375 3.09375 7.65625 4.03125 7.84375C3.71875 7.9375 3.4375 7.9375 3.09375 7.875C3.375 8.6875 4.125 9.28125 5.03125 9.3125C4.3125 9.84375 3.4375 10.1875 2.46875 10.1875C2.3125 10.1875 2.15625 10.1875 2 10.1562C2.90625 10.75 3.96875 11.0625 5.125 11.0625C8.90625 11.0625 10.9688 7.9375 10.9688 5.25C10.9688 5.15625 10.9688 5.0625 10.9688 4.96875Z" fill="#222222"/>
</svg>
