<svg width="136" height="22" viewBox="0 0 136 22" fill="none" xmlns="http://www.w3.org/2000/svg">
<path d="M5.79656 4.00458H0V0.406224H15.4551V4.00458H9.63361V21.1377H5.79656V4.00458Z" fill="#3A2E87"/>
<path d="M36.6639 0.406224H40.5009V21.1235H36.6639V0.406224Z" fill="#3A2E87"/>
<path d="M44.8084 0.406224H49.5112C54.6059 0.406224 56.8184 1.77787 58.0226 2.81463C59.9821 4.49267 61.4356 7.57087 61.4356 10.8201C61.4356 14.5431 59.5046 18.1272 56.4799 19.7768C54.5774 20.8456 51.9196 21.1235 49.5931 21.1235H44.8084V0.406224ZM48.6419 17.5394H49.4542C51.5277 17.5394 52.8708 17.4004 54.4955 16.5311C56.5369 15.4124 57.6021 13.0325 57.6021 10.8308C57.6095 9.87415 57.4164 8.92661 57.0354 8.04915C56.6543 7.17168 56.0937 6.38374 55.3897 5.73607C53.7936 4.27891 51.7771 4.00101 49.3723 4.00101H48.6419V17.5394Z" fill="#3A2E87"/>
<path d="M74.1226 4.76901e-05C76.2491 0.0120283 78.3245 0.652834 80.0875 1.8418C81.8506 3.03076 83.2226 4.71474 84.0306 6.68174C84.8387 8.64873 85.0468 10.8108 84.6288 12.8958C84.2107 14.9809 83.1852 16.8956 81.6813 18.399C80.1773 19.9025 78.2623 20.9274 76.1771 21.3448C74.0919 21.7621 71.9299 21.5533 69.9632 20.7446C67.9964 19.9358 66.3129 18.5634 65.1245 16.7999C63.9362 15.0364 63.296 12.9608 63.2848 10.8343C63.281 9.41017 63.5588 7.99934 64.1021 6.68294C64.6455 5.36653 65.4437 4.17052 66.4509 3.16367C67.4581 2.15682 68.6544 1.359 69.9709 0.816067C71.2875 0.273138 72.6984 -0.0041832 74.1226 4.76901e-05ZM74.1226 17.974C78.0701 17.974 81.1198 14.6429 81.1198 10.8058C81.1198 6.82979 78.0131 3.58415 74.1226 3.58415C70.2321 3.58415 67.1218 6.82979 67.1218 10.8058C67.1218 14.6571 70.1751 17.974 74.1226 17.974Z" fill="#3A2E87"/>
<path d="M87.6073 0.406224H91.9752L100.544 15.4659H100.601V0.406224H104.434V21.1235H100.159L91.5014 6.07452H91.4301V21.1377H87.6073V0.406224Z" fill="#3A2E87"/>
<path d="M108.663 0.406224H112.5V21.1235H108.663V0.406224Z" fill="#3A2E87"/>
<path d="M135.886 15.3696C134.265 19.1782 130.289 21.5545 126.313 21.5545C123.446 21.5265 120.706 20.3717 118.684 18.3397C116.662 16.3078 115.521 13.5618 115.507 10.6953C115.534 7.86286 116.674 5.1546 118.68 3.155C120.686 1.15539 123.398 0.0247756 126.231 0.00713697C128.298 -0.00217058 130.323 0.591406 132.058 1.71521C133.793 2.83901 135.163 4.44428 136 6.33454H131.632C130.146 4.62799 128.386 3.59124 126.088 3.59124C122.729 3.59124 119.341 6.61243 119.341 10.7559C119.341 14.6499 122.547 17.9811 126.231 17.9811C128.999 17.9811 130.506 16.3565 131.436 15.3767L135.886 15.3696Z" fill="#3A2E87"/>
<path d="M17.4111 0.406224H22.6946C25.4771 0.406224 27.6325 0.42404 29.0505 1.02614C30.2932 1.56325 31.3476 2.45845 32.0793 3.59749C32.8109 4.73653 33.1866 6.06775 33.1583 7.42123C33.1583 10.4282 31.5871 12.6335 28.9151 13.4137L33.6927 21.1199H29.0434L22.52 10.4317H26.0827C28.9329 10.4317 29.1217 8.32973 29.1217 7.41767C29.1217 6.56618 28.6728 5.35129 27.6966 4.88101C26.4426 4.27178 24.8465 4.38579 23.115 4.38579H21.2018V21.1306H17.4111V0.406224Z" fill="#3A2E87"/>
</svg>
