<svg width="20" height="20" viewBox="0 0 20 20" fill="none" xmlns="http://www.w3.org/2000/svg">
<path d="M14.9508 4.28428L15.6646 3.03519C15.827 2.75122 15.9137 2.42772 15.9155 2.09922L15.9176 1.713C15.9201 1.17681 15.6655 0.673124 15.2432 0.358342L15.0882 0.255655C14.573 -0.0446577 13.9331 -0.0431265 13.4191 0.260061L13.0893 0.454624C12.8076 0.621248 12.5732 0.859436 12.4112 1.14356L4.27822 15.3759C4.14331 15.6121 4.06184 15.869 4.03619 16.139L3.69531 19.6885L4.19369 19.9685L7.01716 17.855C7.22438 17.6999 7.39528 17.5065 7.52466 17.2799L14.6407 4.82703L15.4562 5.30262L11.697 11.8819C11.6113 12.0317 11.6635 12.2227 11.8133 12.3082C11.8621 12.3362 11.9155 12.3494 11.968 12.3494C12.0767 12.3494 12.182 12.293 12.2396 12.192L16.3064 5.07497L14.9508 4.28428ZM12.9538 1.45347C13.0624 1.26334 13.2192 1.10387 13.4063 0.993092L13.7368 0.798249C13.8973 0.703624 14.0774 0.656342 14.2575 0.656342C14.3798 0.656342 14.5025 0.678155 14.6188 0.721936L14.7866 0.803592C15.1003 0.992936 15.2938 1.33872 15.2926 1.7095L15.2905 2.09584C15.2892 2.31681 15.231 2.53425 15.122 2.72497L14.411 3.96931L12.311 2.7445C12.2858 2.72984 12.9538 1.45347 12.9538 1.45347ZM6.98206 16.9698C6.89541 17.1216 6.78125 17.251 6.643 17.3545L4.38503 19.0446L4.65816 16.1985C4.67525 16.0195 4.73141 15.8423 4.82081 15.6858L11.9373 3.23203C11.9559 3.25047 14.1008 4.51209 14.1008 4.51209L6.98206 16.9698Z" fill="#393D46"/>
</svg>
