<svg width="21" height="21" viewBox="0 0 21 21" fill="none" xmlns="http://www.w3.org/2000/svg">
<path d="M10.5 4.26562C12.1406 4.26562 13.6875 4.92188 14.8594 6.09375C16.0312 7.26562 16.7344 8.8125 16.7344 10.4531C16.7344 13.875 13.875 16.6406 10.5 16.6406H10.4531C9.375 16.6406 8.29688 16.3594 7.3125 15.7969L7.125 15.6562L4.78125 16.2656L5.39062 13.9688L5.25 13.7344C4.64062 12.75 4.3125 11.625 4.3125 10.4531C4.3125 7.03125 7.07812 4.26562 10.5 4.26562ZM14.1094 13.125C14.25 12.6562 14.25 12.2812 14.2031 12.2344C14.1562 12.1406 14.0625 12.0938 13.875 12C13.6875 11.9062 12.75 11.4375 12.6094 11.3906C12.4219 11.3438 12.2812 11.2969 12.1875 11.4844C12.0469 11.6719 11.7188 12.0938 11.5781 12.2344C11.4844 12.3281 11.3906 12.375 11.2031 12.2812C10.0781 11.7188 9.375 11.2969 8.67188 10.0312C8.48438 9.70312 8.85938 9.75 9.1875 9.04688C9.28125 8.90625 9.23438 8.8125 9.1875 8.71875C9.14062 8.625 8.76562 7.6875 8.625 7.35938C8.48438 6.98438 8.29688 7.03125 8.20312 7.03125C8.10938 7.03125 7.96875 7.03125 7.82812 7.03125C7.73438 7.03125 7.5 7.07812 7.35938 7.26562C7.17188 7.45312 6.70312 7.875 6.70312 8.8125C6.70312 9.70312 7.35938 10.5938 7.45312 10.7344C7.54688 10.8281 8.76562 12.7031 10.6406 13.5469C11.8125 14.0156 12.2812 14.0625 12.8438 13.9688C13.2188 13.9219 13.9688 13.5469 14.1094 13.125ZM18.75 0C19.9688 0 21 1.03125 21 2.25V18.75C21 20.0156 19.9688 21 18.75 21H2.25C0.984375 21 0 20.0156 0 18.75V2.25C0 1.03125 0.984375 0 2.25 0H18.75ZM10.4531 17.9062C14.5781 17.9062 18 14.5781 18 10.4531C18 8.48438 17.1562 6.60938 15.75 5.20312C14.3438 3.79688 12.4688 3 10.4531 3C6.375 3 3.04688 6.375 3.04688 10.4531C3.04688 11.7656 3.375 13.0312 4.03125 14.1562L3 18L6.9375 16.9688C8.01562 17.5781 9.23438 17.9062 10.4531 17.9062Z" fill="#E2E2E2"/>
</svg>
