<svg width="24" height="24" viewBox="0 0 24 24" fill="none" xmlns="http://www.w3.org/2000/svg">
<path d="M12 0C18.629 0 24 5.37097 24 12C24 18.629 18.629 24 12 24C5.37097 24 0 18.629 0 12C0 5.37097 5.37097 0 12 0ZM12 4.64516C9.62903 4.64516 7.74194 6.58065 7.74194 8.90323C7.74194 11.2742 9.62903 13.1613 12 13.1613C14.3226 13.1613 16.2581 11.2742 16.2581 8.90323C16.2581 6.58065 14.3226 4.64516 12 4.64516ZM12 21.2903C14.8065 21.2903 17.371 20.0323 19.0645 18C18.1452 16.3065 16.3548 15.0968 14.3226 15.0968C14.1774 15.0968 14.0806 15.1452 13.9355 15.1935C13.3548 15.3871 12.6774 15.4839 12 15.4839C11.2742 15.4839 10.6452 15.3871 10.0161 15.1935C9.87097 15.1452 9.77419 15.0968 9.67742 15.0968C7.59677 15.0968 5.80645 16.3065 4.8871 18C6.58065 20.0323 9.14516 21.2903 12 21.2903Z" fill="#E2E2E2"/>
</svg>
