<svg width="176" height="49" viewBox="0 0 176 49" fill="none" xmlns="http://www.w3.org/2000/svg">
<path fill-rule="evenodd" clip-rule="evenodd" d="M150.97 26.8487C149.97 26.8703 148.971 26.7588 148 26.5172C147.314 26.3449 146.666 26.045 146.091 25.6333C145.656 25.3217 145.305 24.9072 145.07 24.4268C144.875 24.021 144.771 23.5776 144.765 23.1274C144.739 22.6116 144.889 22.1022 145.189 21.6823C145.473 21.3189 145.857 21.0469 146.294 20.9C146.764 20.7392 147.257 20.6585 147.753 20.6614C147.726 21.5288 147.884 22.3921 148.217 23.1937C148.473 23.8182 148.914 24.3495 149.48 24.7167C150.046 25.084 150.711 25.2696 151.386 25.2488C152.429 25.2488 153.239 24.9748 153.816 24.4268C154.096 24.1665 154.317 23.85 154.466 23.4981C154.614 23.1462 154.687 22.7668 154.678 22.385C154.691 21.8292 154.518 21.2849 154.188 20.8381C153.785 20.3427 153.284 19.9363 152.716 19.6449C151.916 19.214 151.093 18.8289 150.25 18.4914C149.204 18.0847 148.215 17.5456 147.306 16.8871C146.646 16.4053 146.114 15.7677 145.76 15.0309C145.44 14.2999 145.282 13.5085 145.296 12.7107C145.273 11.7074 145.57 10.7229 146.144 9.89989C146.736 9.08319 147.538 8.44181 148.464 8.0437C149.514 7.58787 150.648 7.36184 151.792 7.38077C152.877 7.35037 153.959 7.48904 155.001 7.79178C155.832 8.06579 156.446 8.43408 156.844 8.89666C157.23 9.32594 157.443 9.88366 157.44 10.4612C157.44 10.7675 157.366 11.0692 157.225 11.3413C157.085 11.6135 156.881 11.8481 156.632 12.0257C156.092 12.4499 155.275 12.6621 154.179 12.6621C154.171 12.1203 154.077 11.5833 153.9 11.071C153.726 10.5216 153.423 10.0217 153.016 9.61261C152.798 9.40469 152.54 9.24339 152.257 9.13854C151.974 9.03368 151.673 8.98747 151.372 9.00273C150.704 8.98978 150.053 9.21014 149.529 9.62588C149.008 10.0413 148.747 10.6468 148.747 11.4423C148.744 11.9237 148.862 12.3981 149.092 12.8212C149.417 13.3401 149.862 13.7724 150.391 14.0807C151.258 14.6109 152.172 15.0592 153.122 15.4198C154.16 15.8208 155.147 16.3398 156.066 16.9667C156.744 17.4041 157.296 18.0109 157.668 18.727C158.04 19.4431 158.219 20.2439 158.187 21.0503C158.207 22.1202 157.898 23.1704 157.303 24.06C156.675 24.9646 155.808 25.6763 154.797 26.115C153.59 26.6335 152.284 26.8838 150.97 26.8487ZM65.3538 26.8488C64.3535 26.8704 63.3548 26.759 62.3839 26.5173C61.6977 26.345 61.05 26.0452 60.4747 25.6334C60.0399 25.3218 59.6891 24.9073 59.4538 24.4269C59.2588 24.0211 59.1547 23.5777 59.1488 23.1276C59.1229 22.6117 59.2724 22.1023 59.5731 21.6824C59.8568 21.3191 60.241 21.047 60.678 20.9001C61.1473 20.7393 61.6403 20.6586 62.1364 20.6615C62.1096 21.529 62.2678 22.3922 62.6005 23.1939C62.8566 23.8183 63.2973 24.3496 63.8635 24.7169C64.4298 25.0841 65.0947 25.2697 65.7692 25.2489C66.8122 25.2489 67.6225 24.9749 68.2 24.4269C68.4795 24.1666 68.7009 23.8501 68.8494 23.4982C68.9979 23.1463 69.0703 22.767 69.0618 22.3851C69.0747 21.8293 68.9021 21.285 68.5712 20.8383C68.1687 20.3428 67.6675 19.9365 67.0995 19.645C66.3 19.2141 65.4766 18.829 64.6334 18.4915C63.5903 18.0857 62.6033 17.5481 61.6967 16.8917C61.036 16.4099 60.5046 15.7722 60.1499 15.0355C59.8301 14.3044 59.6719 13.513 59.6858 12.7152C59.663 11.712 59.9602 10.7275 60.5344 9.90443C61.1262 9.08773 61.9279 8.44635 62.8546 8.04824C63.9039 7.59241 65.0386 7.36638 66.1825 7.38532C67.2668 7.35492 68.3493 7.49358 69.391 7.79633C70.2219 8.07034 70.8362 8.43863 71.234 8.90121C71.6203 9.33049 71.8329 9.8882 71.8306 10.4657C71.83 10.772 71.7563 11.0738 71.6156 11.3459C71.475 11.618 71.2714 11.8526 71.0218 12.0302C70.4826 12.4545 69.665 12.6666 68.569 12.6666C68.561 12.1249 68.467 11.5879 68.2906 11.0756C68.1159 10.5262 67.8129 10.0262 67.4067 9.61716C67.1884 9.40924 66.93 9.24793 66.6474 9.14308C66.3647 9.03823 66.0637 8.99202 65.7626 9.00727C65.0945 8.99432 64.4428 9.21468 63.9197 9.63042C63.3982 10.0459 63.1374 10.6513 63.1374 11.4468C63.134 11.9282 63.2526 12.4026 63.4822 12.8257C63.8068 13.3447 64.2527 13.7769 64.7815 14.0853C65.6484 14.6154 66.5627 15.0637 67.5127 15.4244C68.55 15.8254 69.5376 16.3444 70.4561 16.9712C71.1343 17.4087 71.6866 18.0154 72.0586 18.7315C72.4307 19.4477 72.6095 20.2485 72.5775 21.0548C72.5968 22.1247 72.2884 23.175 71.6936 24.0645C71.0656 24.9692 70.1978 25.6809 69.1877 26.1196C67.9777 26.6375 66.6695 26.8863 65.3538 26.8488ZM84.1547 26.8487C82.8121 26.88 81.4744 26.6735 80.2037 26.2388C79.1758 25.8848 78.2913 25.2052 77.6846 24.303C77.0953 23.4191 76.8007 22.2524 76.8007 20.8028V10.6733C76.8227 10.3101 76.7591 9.94679 76.6151 9.61263C76.5139 9.40818 76.3384 9.25009 76.1245 9.17068C75.9067 9.09766 75.6781 9.0618 75.4483 9.06462H74.3081V7.65922H83.4565V9.06462H82.3516C82.1207 9.06163 81.8913 9.10211 81.6754 9.18395C81.4583 9.27659 81.2834 9.44673 81.1848 9.66125C81.0393 10.0182 80.9759 10.4034 80.9992 10.7882V21.0238C80.9992 22.5087 81.3572 23.5399 82.0732 24.1174C82.7891 24.6949 83.7467 24.9822 84.9458 24.9792C85.6529 24.9974 86.3552 24.857 87.0009 24.5682C87.5697 24.2998 88.0353 23.8528 88.3267 23.2954C88.661 22.6083 88.8204 21.8492 88.7908 21.0857V10.6998C88.8128 10.3366 88.7492 9.97332 88.6052 9.63916C88.504 9.4347 88.3285 9.27661 88.1146 9.19721C87.8968 9.12418 87.6682 9.08832 87.4384 9.09114H86.3335V7.68574H93.281V9.09114H92.1408C91.9099 9.08815 91.6805 9.12863 91.4646 9.21046C91.2474 9.3031 91.0726 9.47325 90.974 9.68777C90.8285 10.0448 90.765 10.4299 90.7884 10.8147V21.1564C90.8166 22.2187 90.5797 23.2713 90.099 24.2191C89.6191 25.0953 88.8643 25.7895 87.9511 26.1946C86.9758 26.6306 85.7104 26.8487 84.1547 26.8487ZM94.4418 25.1781V26.5835L101.38 26.6012V25.1958H100.276C100.045 25.1988 99.8153 25.1583 99.5994 25.0765C99.3796 24.981 99.2043 24.8057 99.1088 24.5859C98.9669 24.2356 98.9035 23.8585 98.9232 23.481V11.9903L109.265 26.6012H111.696V10.7971C111.672 10.4122 111.736 10.0271 111.881 9.67009C111.98 9.45557 112.155 9.28542 112.372 9.19278C112.588 9.11095 112.817 9.07047 113.048 9.07346H114.153V7.66806H107.232V9.07346H108.337C108.566 9.07064 108.795 9.1065 109.013 9.17953C109.227 9.25893 109.402 9.41702 109.503 9.62147C109.647 9.95563 109.711 10.3189 109.689 10.6822V20.8912L100.329 7.65922H94.4418V9.06462H95.5467C95.7764 9.0618 96.005 9.09766 96.2229 9.17068C96.4367 9.25009 96.6122 9.40818 96.7134 9.61263C96.8575 9.94679 96.921 10.3101 96.899 10.6733V23.4633C96.9187 23.8408 96.8553 24.2179 96.7134 24.5682C96.6179 24.788 96.4426 24.9633 96.2229 25.0588C96.0069 25.1406 95.7776 25.1811 95.5467 25.1781H94.4418ZM115.338 26.5835V25.1781H116.443C116.672 25.1809 116.901 25.1451 117.119 25.072C117.333 24.9926 117.508 24.8345 117.609 24.6301C117.751 24.3045 117.814 23.9504 117.795 23.5959V10.6733C117.816 10.3102 117.752 9.94712 117.609 9.61263C117.508 9.40818 117.333 9.25009 117.119 9.17068C116.901 9.09766 116.672 9.0618 116.443 9.06462H115.338V7.65922H123.876C125.556 7.65922 126.93 7.84484 128 8.21608C129.069 8.58732 129.86 9.13975 130.373 9.87339C130.904 10.6683 131.173 11.6094 131.142 12.5649C131.167 13.3922 130.985 14.2126 130.611 14.9514C130.279 15.5792 129.818 16.1302 129.259 16.5689C128.732 16.9807 128.153 17.3197 127.535 17.5766L130.691 23.0126C131.036 23.629 131.474 24.1881 131.99 24.6699C132.363 25.0016 132.844 25.1856 133.343 25.1869H133.449V26.5923H132.565C131.677 26.6053 130.79 26.5432 129.913 26.4067C129.277 26.3131 128.672 26.0725 128.145 25.704C127.625 25.2985 127.196 24.7881 126.886 24.2058L123.73 18.3721H121.98V23.5959C121.96 23.9505 122.023 24.3049 122.166 24.6301C122.269 24.8378 122.45 24.9966 122.67 25.072C122.883 25.143 123.107 25.1789 123.333 25.1781H124.473V26.5835H115.338ZM123.478 16.8253C124.698 16.8253 125.536 16.4982 125.997 15.8441C126.459 15.19 126.687 14.2178 126.687 12.9273C126.713 12.1935 126.605 11.4611 126.369 10.7661C126.183 10.2575 125.815 9.83652 125.335 9.58612C124.736 9.31352 124.082 9.18631 123.425 9.21488H121.993V16.8253H123.478ZM134.085 25.1781V26.5835L143.237 26.5746V25.1692H142.132C141.897 25.1714 141.664 25.1309 141.443 25.0499C141.332 25.0054 141.232 24.9391 141.148 24.8548C141.063 24.7705 140.997 24.67 140.952 24.5593C140.82 24.2067 140.762 23.8307 140.78 23.4545V10.7794C140.758 10.3958 140.817 10.0119 140.952 9.65238C140.998 9.5442 141.065 9.44627 141.15 9.36431C141.234 9.28236 141.334 9.21802 141.443 9.17507C141.664 9.09403 141.897 9.0536 142.132 9.05574H143.237V7.65035H134.085V9.05574H135.189C135.429 9.05132 135.667 9.09179 135.892 9.17507C136.107 9.26597 136.279 9.43721 136.369 9.65238C136.505 10.0119 136.564 10.3958 136.542 10.7794V23.4633C136.56 23.8395 136.502 24.2155 136.369 24.5682C136.282 24.7885 136.11 24.9649 135.892 25.0587C135.667 25.142 135.429 25.1825 135.189 25.1781H134.085ZM160.252 25.1781V26.5835L175.814 26.5791L175.999 21.6999H174.169L173.949 22.9462C173.904 23.3023 173.811 23.6504 173.67 23.9804C173.552 24.2613 173.365 24.5076 173.126 24.6963C172.87 24.8825 172.559 24.976 172.243 24.9615H166.939V17.4837H173.224V15.8927H166.939V9.26346H171.39C171.708 9.24836 172.022 9.3317 172.291 9.50211C172.531 9.67338 172.719 9.90732 172.835 10.1783C172.982 10.5294 173.067 10.9032 173.087 11.2832L173.219 12.5295H175.075L174.969 7.65035H160.252V9.05574H161.357C161.597 9.05132 161.835 9.09179 162.06 9.17507C162.275 9.26597 162.446 9.43721 162.537 9.65238C162.673 10.0119 162.732 10.3958 162.71 10.7794V23.5959C162.73 23.9504 162.667 24.3048 162.524 24.6301C162.423 24.8345 162.247 24.9926 162.034 25.072C161.816 25.145 161.587 25.1809 161.357 25.1781H160.252Z" fill="#E2E2E2"/>
<path fill-rule="evenodd" clip-rule="evenodd" d="M103.489 41.7821V41.2849H103.633C103.774 41.286 103.915 41.2697 104.053 41.2363C104.184 41.2017 104.299 41.1238 104.38 41.0153C104.473 40.8776 104.517 40.7127 104.506 40.5469V37.0864C104.518 36.9184 104.474 36.751 104.38 36.6113C104.295 36.5102 104.181 36.439 104.053 36.408C103.915 36.3746 103.774 36.3583 103.633 36.3594H103.578V35.8622H105.721V40.5027C105.708 40.677 105.751 40.851 105.843 40.9999C105.922 41.1098 106.038 41.1881 106.17 41.2208C106.308 41.2585 106.451 41.2771 106.594 41.2761H106.738V41.7733L103.489 41.7821ZM105.069 34.7883C104.884 34.7953 104.702 34.7366 104.557 34.6225C104.482 34.5525 104.425 34.4662 104.389 34.3704C104.353 34.2746 104.34 34.1718 104.351 34.0701C104.342 33.9664 104.357 33.862 104.395 33.7653C104.433 33.6685 104.494 33.5822 104.572 33.5132C104.719 33.4042 104.898 33.3474 105.08 33.3519C105.261 33.349 105.438 33.4057 105.584 33.5132C105.721 33.6647 105.797 33.8616 105.797 34.0657C105.797 34.2698 105.721 34.4666 105.584 34.6181C105.437 34.7329 105.255 34.793 105.069 34.7883ZM84.8994 41.2849V41.7821L88.1477 41.7733V41.2761H88.0041C87.8608 41.2769 87.7181 41.2584 87.5798 41.2208C87.4481 41.1881 87.3323 41.1098 87.2528 40.9999C87.1621 40.8506 87.1196 40.677 87.1313 40.5027V35.8622H84.9878V36.3594H85.043C85.1845 36.3583 85.3255 36.3746 85.4629 36.408C85.5909 36.439 85.7055 36.5102 85.7899 36.6113C85.8842 36.751 85.9285 36.9184 85.9159 37.0864V40.5469C85.9274 40.7127 85.883 40.8776 85.7899 41.0153C85.709 41.1238 85.5937 41.2017 85.4629 41.2363C85.3255 41.2697 85.1845 41.286 85.043 41.2849H84.8994ZM85.9667 34.6225C86.1127 34.7366 86.2943 34.7953 86.4794 34.7883H86.4838C86.6647 34.7895 86.8407 34.7295 86.9832 34.6181C87.12 34.4666 87.1957 34.2698 87.1957 34.0657C87.1957 33.8616 87.12 33.6647 86.9832 33.5132C86.8348 33.4096 86.6582 33.3541 86.4772 33.3541C86.2962 33.3541 86.1195 33.4096 85.9711 33.5132C85.8952 33.5833 85.8366 33.6701 85.8002 33.7668C85.7637 33.8635 85.7504 33.9673 85.7612 34.0701C85.7505 34.1718 85.7635 34.2746 85.7992 34.3704C85.8348 34.4663 85.8922 34.5525 85.9667 34.6225ZM67.0936 41.3866C67.6933 41.7448 68.3844 41.9206 69.0824 41.8926C69.7602 41.9143 70.4296 41.7385 71.0093 41.3866C71.5407 41.0406 71.9594 40.5467 72.2136 39.9657C72.7617 38.5931 72.7617 37.0625 72.2136 35.6899C71.9643 35.1096 71.5472 34.6171 71.0159 34.2756C70.4349 33.9252 69.765 33.7502 69.0868 33.7718C68.3893 33.7462 67.6992 33.921 67.098 34.2756C66.5673 34.6117 66.1542 35.1043 65.9158 35.6855C65.6449 36.3623 65.5133 37.0868 65.5291 37.8156C65.514 38.5488 65.6455 39.2775 65.9158 39.9591C66.1521 40.5449 66.5634 41.0434 67.0936 41.3866ZM70.3486 40.8541C69.9917 41.1427 69.5407 41.2891 69.0824 41.2651C68.6314 41.2849 68.1887 41.1386 67.8383 40.8541C67.4964 40.5397 67.2563 40.1303 67.1489 39.6785C66.9921 39.074 66.9177 38.4511 66.9279 37.8267C66.9279 36.7461 67.0936 35.9042 67.4207 35.3032C67.7477 34.7021 68.3068 34.4016 69.0934 34.4016C69.5472 34.3784 69.9937 34.5223 70.3486 34.806C70.6827 35.1205 70.9138 35.5288 71.0115 35.9771C71.2826 37.196 71.2826 38.4596 71.0115 39.6785C70.9132 40.1278 70.6822 40.5374 70.3486 40.8541ZM74.6166 41.7004C74.8923 41.8322 75.1949 41.8981 75.5005 41.8926C75.7541 41.9048 76.0076 41.865 76.2452 41.7755C76.4358 41.6914 76.6083 41.5714 76.7534 41.4219C76.9101 41.2555 77.0577 41.0807 77.1954 40.8982H77.2948L77.4826 41.7821H79.1289V41.2849H79.0958C78.9596 41.2903 78.8239 41.2662 78.698 41.2142C78.647 41.1902 78.6012 41.1564 78.5633 41.1147C78.5254 41.073 78.4961 41.0242 78.477 40.9711C78.4268 40.8165 78.4043 40.6541 78.4107 40.4916V37.6388C78.4107 36.9472 78.2384 36.4566 77.887 36.1694C77.5357 35.8821 77.012 35.7407 76.3115 35.7407C75.9644 35.7368 75.618 35.7739 75.2795 35.8511C75.0057 35.9049 74.7484 36.0222 74.5282 36.1937C74.4356 36.2691 74.3617 36.3651 74.3126 36.474C74.2636 36.583 74.2405 36.7018 74.2454 36.8212C74.2357 36.9292 74.2564 37.0378 74.3052 37.1347C74.3541 37.2315 74.429 37.3128 74.5216 37.3692C74.7727 37.4895 75.0502 37.5443 75.3281 37.5283C75.3252 37.3183 75.3497 37.1089 75.4011 36.9052C75.4408 36.7353 75.5385 36.5845 75.6773 36.4787C75.8523 36.3652 76.0591 36.311 76.2673 36.324C76.4839 36.3071 76.6995 36.3683 76.875 36.4964C77.0124 36.6195 77.1042 36.7853 77.1357 36.9671C77.1782 37.1959 77.1982 37.4283 77.1954 37.6609V38.3018L76.2894 38.3371C75.4423 38.3666 74.8125 38.5227 74.4 38.8056C74.1934 38.9528 74.028 39.1506 73.9197 39.38C73.8114 39.6095 73.7637 39.8629 73.7813 40.116C73.7685 40.4623 73.8446 40.8061 74.0023 41.1148C74.1417 41.3687 74.3563 41.5732 74.6166 41.7004ZM76.5722 40.9932C76.3544 41.1194 76.1057 41.1822 75.8541 41.1744C75.693 41.1771 75.5344 41.1342 75.3966 41.0507C75.2711 40.9722 75.1754 40.854 75.1248 40.7148C75.0619 40.5361 75.032 40.3474 75.0365 40.1579C75.029 39.914 75.0766 39.6716 75.1757 39.4486C75.2758 39.2514 75.4414 39.0951 75.6441 39.0067C75.9309 38.886 76.239 38.8243 76.5501 38.8255L77.202 38.7901V39.674C77.2078 39.9476 77.1511 40.2189 77.0363 40.4673C76.9368 40.6845 76.7753 40.8674 76.5722 40.9932ZM81.9659 41.8926C81.6123 41.898 81.2601 41.8465 80.9229 41.7401C80.6671 41.6684 80.4371 41.525 80.26 41.3269C80.1101 41.1451 80.0316 40.9149 80.039 40.6794C80.0244 40.5256 80.0617 40.3713 80.145 40.2411C80.2283 40.1109 80.3528 40.0124 80.4986 39.9613C80.6023 39.9206 80.7122 39.8982 80.8235 39.895C80.8101 40.254 80.9065 40.6086 81.0997 40.9115C81.2043 41.0531 81.3436 41.1653 81.5043 41.2373C81.6649 41.3093 81.8414 41.3386 82.0167 41.3225C82.3342 41.3452 82.649 41.25 82.9006 41.0551C82.996 40.9733 83.0722 40.8715 83.1237 40.7569C83.1753 40.6423 83.201 40.5178 83.1989 40.3922C83.2052 40.2367 83.1652 40.0829 83.084 39.9502C82.9756 39.8047 82.8359 39.6854 82.6752 39.6011C82.407 39.453 82.1278 39.326 81.8399 39.221C81.5094 39.0844 81.1902 38.9218 80.8853 38.7349C80.654 38.594 80.4587 38.4011 80.3152 38.1714C80.1824 37.923 80.1176 37.644 80.1274 37.3626C80.1157 37.129 80.1639 36.8963 80.2676 36.6867C80.3713 36.477 80.5269 36.2974 80.7196 36.1649C81.1851 35.8689 81.7309 35.7246 82.2819 35.7517C82.6067 35.7423 82.9306 35.7902 83.2387 35.8931C83.457 35.9652 83.6517 36.095 83.8022 36.2688C83.918 36.4087 83.9821 36.5843 83.9834 36.766C83.9879 36.8619 83.9704 36.9577 83.9321 37.0458C83.8937 37.1339 83.8357 37.2121 83.7624 37.2742C83.5713 37.4148 83.3361 37.4822 83.0995 37.4642C83.1172 37.1581 83.0342 36.8547 82.8631 36.6002C82.7756 36.4949 82.6641 36.412 82.538 36.3586C82.4119 36.3051 82.2748 36.2827 82.1383 36.2931C81.8692 36.2725 81.602 36.3511 81.3869 36.5141C81.3029 36.5898 81.2366 36.6831 81.1927 36.7874C81.1488 36.8916 81.1283 37.0043 81.1328 37.1173C81.1307 37.2757 81.1795 37.4306 81.272 37.5593C81.3915 37.7066 81.5425 37.8252 81.714 37.9062C81.9217 38.0123 82.1979 38.1272 82.5426 38.2664C82.8675 38.387 83.1786 38.5419 83.4707 38.7282C83.6962 38.8759 83.8833 39.0751 84.0165 39.3094C84.1442 39.553 84.2067 39.8256 84.1977 40.1005C84.2118 40.3535 84.1644 40.6063 84.0598 40.8371C83.9551 41.0679 83.7963 41.2701 83.5967 41.4263C83.1193 41.7572 82.546 41.9211 81.9659 41.8926ZM90.6939 41.8926C90.3385 41.9016 89.9841 41.8531 89.6442 41.749C89.3884 41.6772 89.1584 41.5338 88.9813 41.3357C88.8315 41.1539 88.7529 40.9238 88.7603 40.6883C88.7457 40.5344 88.783 40.3801 88.8663 40.2499C88.9496 40.1198 89.0741 40.0213 89.22 39.9701C89.3236 39.9294 89.4335 39.907 89.5448 39.9038C89.5314 40.2628 89.6278 40.6174 89.821 40.9203C89.9256 41.0619 90.0649 41.1742 90.2256 41.2462C90.3862 41.3182 90.5628 41.3475 90.7381 41.3313C91.0556 41.354 91.3703 41.2588 91.622 41.0639C91.7173 40.9821 91.7935 40.8803 91.8451 40.7657C91.8966 40.6512 91.9223 40.5266 91.9203 40.401C91.9265 40.2456 91.8865 40.0918 91.8054 39.9591C91.697 39.8135 91.5573 39.6942 91.3966 39.6099C91.1284 39.4619 90.8491 39.3348 90.5613 39.2298C90.2307 39.0932 89.9115 38.9307 89.6067 38.7437C89.3753 38.6029 89.1801 38.4099 89.0366 38.1802C88.9038 37.9319 88.839 37.6529 88.8487 37.3714C88.837 37.1379 88.8853 36.9052 88.9889 36.6955C89.0926 36.4859 89.2482 36.3062 89.4409 36.1738C89.9064 35.8778 90.4523 35.7334 91.0032 35.7605C91.328 35.7511 91.6519 35.799 91.9601 35.902C92.1784 35.974 92.3731 36.1038 92.5235 36.2776C92.6394 36.4175 92.7034 36.5932 92.7047 36.7748C92.7093 36.8708 92.6917 36.9665 92.6534 37.0546C92.6151 37.1428 92.557 37.2209 92.4838 37.283C92.2926 37.4236 92.0574 37.491 91.8208 37.4731C91.8385 37.167 91.7555 36.8635 91.5844 36.6091C91.4969 36.5037 91.3854 36.4208 91.2593 36.3674C91.1332 36.314 90.9962 36.2915 90.8596 36.3019C90.5906 36.2814 90.3233 36.36 90.1083 36.5229C90.0243 36.5987 89.958 36.692 89.914 36.7962C89.8701 36.9005 89.8497 37.0131 89.8542 37.1262C89.8521 37.2846 89.9009 37.4395 89.9934 37.5681C90.1128 37.7154 90.2638 37.834 90.4353 37.915C90.643 38.0211 90.9193 38.136 91.264 38.2752C91.5888 38.3959 91.8999 38.5507 92.1921 38.7371C92.419 38.8814 92.6083 39.0775 92.7445 39.3094C92.8722 39.553 92.9346 39.8256 92.9257 40.1005C92.9397 40.3535 92.8924 40.6063 92.7877 40.8371C92.6831 41.0679 92.5242 41.2701 92.3247 41.4263C91.8473 41.7571 91.274 41.9211 90.6939 41.8926ZM96.6614 41.2849V41.7821L102.749 41.7777L102.827 39.3823H102.241L102.108 40.211C102.08 40.3761 102.032 40.5372 101.965 40.6905C101.9 40.8479 101.787 40.9809 101.642 41.0709C101.497 41.1608 101.328 41.2032 101.158 41.1921H99.0148V35.1153C99.003 34.9501 99.0415 34.7853 99.1253 34.6424C99.1955 34.5409 99.2998 34.468 99.4192 34.4369C99.5504 34.4021 99.6856 34.385 99.8214 34.3861H100.042V33.8889H96.6614V34.3861H96.8824C97.0228 34.3848 97.1626 34.4034 97.2978 34.4413C97.4178 34.4787 97.521 34.5569 97.5895 34.6623C97.6742 34.8153 97.7126 34.9895 97.7 35.1639V40.5115C97.7112 40.6844 97.6729 40.8569 97.5895 41.0087C97.5225 41.1155 97.4187 41.194 97.2978 41.2297C97.1629 41.2687 97.0229 41.2873 96.8824 41.2849H96.6614ZM107.676 44.0206C108.072 44.2961 108.665 44.4338 109.455 44.4338C110.486 44.4353 111.248 44.2511 111.742 43.8814C111.977 43.7044 112.166 43.4731 112.293 43.2073C112.42 42.9414 112.481 42.6489 112.471 42.3544C112.478 42.0544 112.412 41.7571 112.279 41.4882C112.142 41.2344 111.93 41.0296 111.671 40.9026C111.326 40.7421 110.947 40.6663 110.566 40.6816H109.295C109.12 40.6985 108.943 40.664 108.787 40.5822C108.743 40.5474 108.707 40.5022 108.684 40.4506C108.661 40.399 108.651 40.3425 108.655 40.2861C108.649 40.138 108.701 39.9934 108.798 39.8817C108.894 39.774 109.011 39.6862 109.141 39.6232C109.234 39.6405 109.329 39.653 109.424 39.6607C109.545 39.6784 109.649 39.6784 109.737 39.6784C110.433 39.6784 110.948 39.4972 111.284 39.1348C111.623 38.7608 111.803 38.2693 111.786 37.7648C111.792 37.4973 111.747 37.231 111.653 36.9803C111.573 36.7736 111.461 36.5805 111.322 36.408C111.388 36.3702 111.459 36.3398 111.532 36.3174C111.611 36.2956 111.693 36.2844 111.775 36.2842C111.829 36.2796 111.884 36.2885 111.934 36.3101C111.984 36.3317 112.028 36.3653 112.062 36.408C112.122 36.4875 112.153 36.5848 112.15 36.6842C112.242 36.6942 112.334 36.6833 112.42 36.6523C112.506 36.6213 112.584 36.571 112.648 36.5052C112.743 36.3873 112.794 36.2394 112.791 36.0876C112.791 36.0112 112.776 35.9356 112.747 35.8651C112.718 35.7945 112.675 35.7305 112.621 35.6766C112.55 35.6132 112.467 35.5648 112.376 35.5344C112.286 35.5041 112.19 35.4923 112.095 35.4998C111.947 35.4988 111.8 35.5297 111.664 35.5904C111.534 35.6451 111.414 35.7196 111.306 35.8114C111.199 35.9029 111.098 36.0003 111.001 36.103C110.844 35.9879 110.666 35.9025 110.478 35.8511C110.236 35.7753 109.984 35.7381 109.731 35.7407C109.008 35.7407 108.48 35.9219 108.124 36.2865C107.939 36.4877 107.796 36.7239 107.704 36.9812C107.612 37.2385 107.572 37.5117 107.587 37.7847C107.581 38.1491 107.677 38.5081 107.864 38.821C108.037 39.1156 108.306 39.3418 108.626 39.4619C108.4 39.5858 108.198 39.7489 108.029 39.9436C107.896 40.111 107.826 40.3197 107.83 40.5336C107.825 40.7535 107.904 40.9672 108.051 41.1302C108.172 41.2721 108.323 41.3853 108.493 41.4617C108.243 41.4944 108 41.5691 107.775 41.6827C107.569 41.7869 107.394 41.943 107.267 42.1357C107.136 42.3477 107.071 42.5937 107.079 42.8428C107.069 43.0738 107.119 43.3034 107.224 43.5096C107.328 43.7158 107.484 43.8918 107.676 44.0206ZM110.666 43.7002C110.281 43.8216 109.879 43.8762 109.477 43.8615C109.195 43.8747 108.914 43.828 108.652 43.7245C108.467 43.6501 108.311 43.5155 108.21 43.3422C108.12 43.1724 108.074 42.9822 108.078 42.7897C108.061 42.567 108.122 42.3453 108.25 42.1622C108.363 42.0214 108.518 41.9206 108.692 41.8749C108.871 41.8215 109.058 41.7947 109.245 41.7954H110.383C110.656 41.7789 110.93 41.8361 111.174 41.9611C111.271 42.0334 111.347 42.1302 111.394 42.2417C111.442 42.3531 111.459 42.4752 111.443 42.5953C111.447 42.8284 111.386 43.0581 111.267 43.2582C111.121 43.4684 110.91 43.624 110.666 43.7002ZM110.246 38.9603C110.084 39.0672 109.892 39.1199 109.698 39.1105C109.56 39.121 109.422 39.0956 109.297 39.0367C109.173 38.9778 109.065 38.8875 108.986 38.7746C108.818 38.465 108.741 38.1141 108.765 37.7626C108.756 37.4945 108.786 37.2266 108.854 36.9671C108.9 36.7773 109.004 36.6066 109.152 36.4787C109.305 36.3623 109.494 36.3036 109.687 36.313C109.882 36.3046 110.075 36.3613 110.235 36.4743C110.381 36.5994 110.483 36.7683 110.526 36.956C110.591 37.2153 110.621 37.4821 110.615 37.7493C110.62 38.0044 110.593 38.2592 110.533 38.5073C110.492 38.6867 110.391 38.8467 110.246 38.9603ZM113.113 41.7821V41.2849H113.179C113.328 41.2864 113.477 41.2678 113.621 41.2297C113.751 41.1968 113.864 41.1183 113.941 41.0087C114.032 40.8579 114.075 40.6828 114.063 40.5071V34.6115C114.076 34.4441 114.031 34.2773 113.937 34.1386C113.853 34.0361 113.738 33.9639 113.61 33.9331C113.472 33.8989 113.331 33.8819 113.19 33.8823H113.091V33.3851H115.278V35.65C115.278 35.7981 115.278 35.9528 115.263 36.1141C115.253 36.2202 115.245 36.3436 115.237 36.4822V36.4823V36.4824V36.4824V36.4825V36.4825C115.233 36.5546 115.228 36.6307 115.223 36.7107H115.289C115.392 36.4965 115.534 36.3038 115.709 36.1428C115.867 36.0009 116.054 35.8953 116.257 35.8335C116.472 35.7699 116.696 35.7386 116.92 35.7407C117.18 35.7233 117.441 35.7599 117.686 35.8481C117.931 35.9363 118.156 36.0743 118.345 36.2533C118.677 36.5958 118.842 37.1372 118.842 37.8952V40.4916C118.832 40.6686 118.868 40.8454 118.946 41.0043C119.011 41.1125 119.114 41.1917 119.236 41.2252C119.374 41.2646 119.517 41.2833 119.66 41.2805H119.693V41.7777H117.627V38.0211C117.649 37.637 117.563 37.2545 117.38 36.9162C117.214 36.6555 116.92 36.5251 116.496 36.5251C116.245 36.5142 115.998 36.5925 115.8 36.7461C115.607 36.9096 115.467 37.1264 115.398 37.3692C115.307 37.6671 115.264 37.9773 115.269 38.2885V40.5645C115.259 40.7291 115.3 40.8929 115.386 41.033C115.46 41.1428 115.572 41.2215 115.7 41.254C115.845 41.2881 115.993 41.3044 116.142 41.3026H116.175V41.7998L113.113 41.7821ZM121.471 41.5125C121.734 41.7659 122.14 41.8926 122.686 41.8926C122.915 41.8948 123.143 41.8733 123.367 41.8285C123.526 41.7991 123.681 41.754 123.831 41.6937V41.1413C123.705 41.1656 123.597 41.1833 123.484 41.1965C123.361 41.2129 123.237 41.221 123.113 41.2209C122.999 41.2266 122.886 41.2066 122.781 41.1622C122.677 41.1178 122.584 41.0502 122.509 40.9645C122.346 40.7337 122.268 40.4533 122.288 40.1712V36.5251H123.725V35.8622H122.288V34.501H121.67C121.629 34.7383 121.563 34.9703 121.471 35.1927C121.399 35.3673 121.294 35.5263 121.161 35.6611C121.042 35.7885 120.894 35.8868 120.731 35.9484C120.576 36.0126 120.411 36.0464 120.244 36.0478V36.5251H121.073V40.1712C121.073 40.8098 121.206 41.2584 121.471 41.5125ZM124.303 41.7821V41.2849H124.453C124.594 41.286 124.735 41.2697 124.873 41.2363C125.004 41.2017 125.119 41.1238 125.2 41.0153C125.293 40.8776 125.337 40.7127 125.326 40.5469V37.0864C125.338 36.9184 125.294 36.751 125.2 36.6113C125.115 36.5102 125.001 36.439 124.873 36.408C124.735 36.3746 124.594 36.3583 124.453 36.3594H124.398V35.8622H126.541V40.5027C126.528 40.677 126.571 40.851 126.663 40.9998C126.742 41.1092 126.857 41.1874 126.987 41.2208C127.126 41.2583 127.27 41.2769 127.414 41.2761H127.546V41.7733L124.303 41.7821ZM125.883 34.7882C125.697 34.7948 125.515 34.7362 125.368 34.6225C125.294 34.5517 125.238 34.4652 125.203 34.3696C125.168 34.2739 125.154 34.1715 125.164 34.0701C125.154 33.9673 125.167 33.8635 125.203 33.7668C125.24 33.6701 125.298 33.5833 125.374 33.5132C125.522 33.4083 125.698 33.3518 125.879 33.3518C126.06 33.3518 126.237 33.4083 126.384 33.5132C126.522 33.664 126.599 33.8611 126.599 34.0657C126.599 34.2702 126.522 34.4673 126.384 34.6181C126.241 34.7308 126.064 34.7909 125.883 34.7882ZM127.989 41.2849V41.7821L131.081 41.8241V41.3269H131.037C130.888 41.3293 130.739 41.3129 130.595 41.2783C130.468 41.2445 130.358 41.166 130.285 41.0573C130.199 40.9169 130.159 40.7532 130.17 40.5889V38.3128C130.167 38.0142 130.206 37.7167 130.285 37.4289C130.348 37.1755 130.482 36.9454 130.672 36.766C130.878 36.5962 131.141 36.5103 131.408 36.5251C131.574 36.5079 131.742 36.535 131.894 36.6037C132.046 36.6724 132.177 36.7803 132.274 36.9163C132.458 37.2543 132.545 37.6368 132.524 38.0211V41.7777H134.601V41.2805H134.546C134.402 41.2833 134.258 41.2647 134.119 41.2253C134.06 41.2088 134.005 41.1808 133.957 41.1429C133.909 41.1049 133.869 41.0578 133.839 41.0043C133.763 40.8445 133.729 40.6682 133.739 40.4916V37.8952C133.739 37.1372 133.578 36.5958 133.253 36.2533C133.075 36.0773 132.862 35.9407 132.628 35.8524C132.394 35.764 132.144 35.726 131.894 35.7407C131.671 35.738 131.449 35.7617 131.231 35.8114C131.025 35.8622 130.832 35.958 130.668 36.092C130.467 36.2697 130.3 36.4833 130.177 36.7218H130.122L129.978 35.8622H128.038V36.3616H128.082C128.231 36.3589 128.38 36.3753 128.524 36.4102C128.649 36.4407 128.759 36.5152 128.834 36.6201C128.921 36.764 128.962 36.9316 128.951 37.0997V40.5071C128.962 40.6822 128.922 40.8568 128.834 41.0087C128.758 41.1202 128.644 41.1991 128.513 41.2297C128.364 41.2687 128.21 41.2873 128.056 41.2849H127.989ZM137.463 44.4338C136.673 44.4338 136.08 44.2961 135.684 44.0206C135.492 43.8918 135.337 43.7158 135.232 43.5096C135.128 43.3033 135.078 43.0737 135.088 42.8428C135.079 42.5937 135.144 42.3477 135.275 42.1357C135.402 41.943 135.578 41.7868 135.784 41.6827C136.009 41.5691 136.252 41.4943 136.502 41.4617C136.332 41.3853 136.181 41.2721 136.06 41.1302C135.912 40.9672 135.833 40.7535 135.839 40.5336C135.834 40.3197 135.904 40.1109 136.038 39.9436C136.206 39.7489 136.408 39.5858 136.634 39.4619C136.314 39.3417 136.045 39.1156 135.872 38.821C135.685 38.5081 135.589 38.1491 135.596 37.7847C135.581 37.5119 135.62 37.239 135.712 36.9817C135.804 36.7245 135.946 36.4881 136.131 36.2865C136.489 35.9226 137.025 35.7406 137.739 35.7406C137.992 35.7381 138.243 35.7754 138.484 35.8511C138.673 35.9026 138.851 35.9879 139.01 36.103C139.106 36.0008 139.207 35.9035 139.313 35.8114C139.421 35.72 139.542 35.6456 139.673 35.5904C139.812 35.5282 139.963 35.4972 140.115 35.4998C140.209 35.4921 140.305 35.5037 140.395 35.5341C140.485 35.5645 140.568 35.613 140.638 35.6766C140.693 35.7301 140.737 35.794 140.766 35.8646C140.796 35.9352 140.811 36.011 140.811 36.0876C140.814 36.2394 140.763 36.3873 140.667 36.5052C140.603 36.571 140.525 36.6213 140.439 36.6523C140.353 36.6833 140.261 36.6942 140.17 36.6842C140.171 36.585 140.14 36.4882 140.082 36.408C140.048 36.3653 140.004 36.3317 139.953 36.3101C139.903 36.2885 139.849 36.2796 139.794 36.2842C139.712 36.2844 139.63 36.2956 139.551 36.3174C139.478 36.3394 139.408 36.3698 139.341 36.408C139.481 36.5805 139.592 36.7736 139.673 36.9803C139.766 37.231 139.811 37.4972 139.805 37.7648C139.823 38.2698 139.642 38.7616 139.302 39.1348C138.969 39.4972 138.453 39.6784 137.755 39.6784C137.666 39.6784 137.56 39.6784 137.439 39.6607C137.345 39.653 137.251 39.6405 137.158 39.6232C137.028 39.6861 136.912 39.774 136.816 39.8817C136.717 39.9929 136.666 40.1378 136.672 40.2861C136.668 40.3425 136.678 40.399 136.701 40.4506C136.725 40.5022 136.76 40.5474 136.805 40.5822C136.961 40.664 137.137 40.6985 137.313 40.6816H138.583C138.964 40.6661 139.343 40.7419 139.688 40.9026C139.947 41.029 140.16 41.2339 140.296 41.4882C140.487 41.8895 140.538 42.3432 140.441 42.777C140.344 43.2108 140.105 43.5996 139.761 43.8814C139.26 44.2511 138.494 44.4353 137.463 44.4338ZM137.485 43.8615L137.489 43.8616C137.207 43.875 136.926 43.829 136.663 43.7267C136.477 43.652 136.322 43.5175 136.221 43.3444C136.131 43.1746 136.085 42.9844 136.089 42.792C136.072 42.5695 136.132 42.3482 136.259 42.1644C136.372 42.0244 136.527 41.9238 136.701 41.8771C136.88 41.8237 137.066 41.7969 137.253 41.7976H138.391C138.664 41.7808 138.937 41.8381 139.18 41.9633C139.278 42.0348 139.354 42.1312 139.402 42.2423C139.45 42.3534 139.467 42.4753 139.452 42.5953C139.456 42.8284 139.395 43.0581 139.275 43.2582C139.129 43.4689 138.917 43.6245 138.672 43.7002C138.29 43.8214 137.89 43.876 137.489 43.8616L137.492 43.8615H137.485ZM137.706 39.1105L137.71 39.1107C137.571 39.1229 137.431 39.0982 137.305 39.0392C137.177 38.9798 137.068 38.8877 136.988 38.7724C136.82 38.4628 136.743 38.1118 136.767 37.7603C136.761 37.4929 136.792 37.2259 136.86 36.967C136.908 36.778 137.012 36.6078 137.158 36.4787C137.312 36.3626 137.502 36.304 137.695 36.313C137.89 36.3034 138.082 36.3603 138.241 36.4743C138.389 36.5984 138.492 36.7676 138.535 36.956C138.6 37.2153 138.629 37.4821 138.623 37.7493C138.628 38.0045 138.6 38.2593 138.539 38.5072C138.499 38.6872 138.398 38.8474 138.252 38.9602C138.092 39.0667 137.902 39.1194 137.71 39.1107L137.713 39.1105H137.706ZM144.169 41.2849V41.7821L150.257 41.7777L150.334 39.3823H149.749L149.616 40.211C149.587 40.3759 149.539 40.5368 149.473 40.6905C149.407 40.8479 149.294 40.9809 149.15 41.0709C149.005 41.1608 148.836 41.2032 148.666 41.1921H146.522V35.1153C146.51 34.95 146.548 34.7848 146.633 34.6424C146.702 34.5411 146.806 34.4681 146.925 34.4369C147.057 34.4021 147.193 34.385 147.329 34.3861H147.55V33.8889H144.169V34.3861H144.39C144.53 34.3848 144.669 34.4034 144.803 34.4413C144.924 34.4793 145.027 34.5572 145.097 34.6623C145.182 34.8153 145.22 34.9895 145.208 35.1639V40.5115C145.219 40.6844 145.181 40.8569 145.097 41.0087C145.029 41.1152 144.925 41.1936 144.803 41.2297C144.669 41.2687 144.53 41.2873 144.39 41.2849H144.169ZM152.212 41.8595C152.021 41.8657 151.833 41.8055 151.682 41.6893C151.539 41.5157 151.46 41.2977 151.46 41.0728C151.46 40.8479 151.539 40.63 151.682 40.4563C151.835 40.3434 152.022 40.2851 152.212 40.2906C152.402 40.2857 152.589 40.344 152.742 40.4563C152.885 40.63 152.963 40.8479 152.963 41.0728C152.963 41.2977 152.885 41.5157 152.742 41.6893C152.59 41.8049 152.403 41.8649 152.212 41.8595ZM154.047 41.2849V41.7821L160.131 41.7777L160.208 39.3823H159.623L159.49 40.211C159.461 40.3759 159.413 40.5368 159.346 40.6905C159.281 40.8479 159.168 40.9809 159.024 41.0709C158.879 41.1608 158.71 41.2032 158.54 41.1921H156.396V35.1153C156.383 34.95 156.422 34.7848 156.507 34.6424C156.576 34.5411 156.68 34.4681 156.799 34.4369C156.93 34.4021 157.066 34.385 157.203 34.3861H157.435V33.8889H154.054V34.3861H154.286C154.426 34.3848 154.565 34.4034 154.699 34.4413C154.82 34.4793 154.923 34.5572 154.993 34.6623C155.078 34.8153 155.116 34.9895 155.104 35.1639V40.5115C155.115 40.6844 155.077 40.8569 154.993 41.0087C154.925 41.1152 154.821 41.1936 154.699 41.2297C154.565 41.2687 154.426 41.2873 154.286 41.2849H154.047ZM162.09 41.8595C161.899 41.8657 161.712 41.8055 161.56 41.6893C161.417 41.5157 161.339 41.2977 161.339 41.0728C161.339 40.8479 161.417 40.63 161.56 40.4563C161.713 40.3434 161.9 40.2851 162.09 40.2906C162.28 40.2857 162.467 40.344 162.621 40.4563C162.763 40.63 162.842 40.8479 162.842 41.0728C162.842 41.2977 162.763 41.5157 162.621 41.6893C162.468 41.8049 162.281 41.8649 162.09 41.8595ZM165.497 41.3866C166.077 41.7408 166.747 41.9168 167.426 41.8926C167.796 41.8909 168.164 41.8427 168.522 41.749C168.787 41.6845 169.039 41.5778 169.269 41.433C169.439 41.3246 169.583 41.1815 169.693 41.0131C169.78 40.8815 169.828 40.7285 169.833 40.5712C169.834 40.4805 169.816 40.3905 169.777 40.3082C169.744 40.2384 169.695 40.1771 169.634 40.1292C169.5 40.3016 169.348 40.4593 169.181 40.5999C168.99 40.7579 168.773 40.8813 168.54 40.9645C168.245 41.0634 167.934 41.1098 167.623 41.1015C167.148 41.1259 166.679 40.9837 166.297 40.6993C165.942 40.4007 165.687 40.0016 165.563 39.5547C165.398 38.9878 165.32 38.3992 165.331 37.809C165.321 37.1817 165.395 36.5558 165.552 35.9484C165.658 35.4974 165.901 35.0905 166.248 34.7838C166.613 34.5034 167.066 34.3617 167.526 34.3839C167.794 34.37 168.059 34.448 168.277 34.6048C168.458 34.7489 168.595 34.9401 168.675 35.1573C168.755 35.3776 168.796 35.6101 168.796 35.8445C169.072 35.859 169.344 35.7813 169.57 35.6235C169.664 35.5552 169.74 35.4654 169.792 35.3616C169.843 35.2577 169.87 35.143 169.868 35.0269C169.868 34.7909 169.779 34.5636 169.618 34.3905C169.408 34.1781 169.145 34.0256 168.856 33.9485C168.435 33.8274 167.997 33.7715 167.559 33.7828C166.86 33.7591 166.169 33.9379 165.57 34.2977C165.03 34.6411 164.605 35.1372 164.348 35.723C164.061 36.3864 163.92 37.1039 163.935 37.8267C163.919 38.5588 164.052 39.2866 164.326 39.9657C164.565 40.5461 164.973 41.0412 165.497 41.3866Z" fill="#E2E2E2"/>
<path fill-rule="evenodd" clip-rule="evenodd" d="M47.0228 19.5152H47.7971C46.6732 14.0063 43.6806 9.05478 39.3257 5.49861C34.9707 1.94243 29.521 0 23.8985 0C18.2761 0 12.8263 1.94243 8.47141 5.49861C4.11649 9.05478 1.12389 14.0063 0 19.5152H0.774276C1.89272 14.2108 4.80083 9.45212 9.01101 6.03709C13.2212 2.62206 18.4775 0.758296 23.8985 0.758296C29.3196 0.758296 34.5759 2.62206 38.7861 6.03709C42.9963 9.45212 45.9043 14.2108 47.0228 19.5152ZM23.8995 48.7802C35.6674 48.7802 45.5329 40.3783 47.7971 29.2594H47.0309C45.9141 34.5675 43.0058 39.33 38.7939 42.748C34.582 46.1659 29.3228 48.0314 23.8985 48.0314C18.4743 48.0314 13.215 46.1659 9.00313 42.748C4.79124 39.33 1.88295 34.5675 0.766194 29.2594H0C2.26421 40.3824 12.1317 48.7802 23.8995 48.7802Z" fill="#E2E2E2"/>
<path fill-rule="evenodd" clip-rule="evenodd" d="M25.2042 20.4614L27.0135 21.6117L30.4705 37.1478L11.6129 25.0565L11.5562 25.0302L10.8325 24.5653C10.7557 24.5188 10.321 24.2539 9.74488 23.8496C9.7324 23.8496 9.72467 23.841 9.71452 23.8298C9.70988 23.8246 9.70473 23.8189 9.69838 23.8132C7.99999 22.3792 6.89178 20.3678 6.58688 18.166C6.28198 15.9641 6.80193 13.7273 8.04672 11.8857C8.0752 11.8325 8.10907 11.7824 8.1478 11.7361C8.2226 11.6431 8.2974 11.5501 8.36209 11.4571C8.59458 11.17 8.82706 10.891 9.05955 10.6323L9.14244 10.5474C13.0563 6.19281 18.084 4.54115 20.5363 4.27025C23.445 3.78644 26.4246 3.94864 29.2636 4.74533C31.9989 5.50195 34.52 6.8864 36.6263 8.78856C38.5561 10.562 40.1403 12.6781 41.2983 15.0293V18.8542C40.0894 15.4801 38.4458 12.7348 36.3756 10.6282C34.3249 8.51836 31.7473 6.99535 28.9098 6.21707C26.2762 5.47297 23.5107 5.3204 20.8112 5.77029H20.7283C19.5922 5.8835 17.2552 6.47583 14.7403 7.94353C13.3964 8.72576 12.1568 9.67468 11.0508 10.7677C10.9929 10.8124 10.9391 10.8652 10.8848 10.9184C10.8728 10.9302 10.8608 10.942 10.8487 10.9537C10.6127 11.1731 10.3924 11.4089 10.1896 11.6593L10.1714 11.6775C9.45113 12.5617 8.92689 13.5889 8.63343 14.691C8.33997 15.7932 8.284 16.945 8.46921 18.0704C8.65441 19.1958 9.07657 20.269 9.70774 21.219C10.3389 22.1689 11.1647 22.9739 12.1304 23.5807L15.7875 25.9359L28.1941 33.897L25.2042 20.4614ZM38.6575 36.137C34.7437 40.4815 29.7159 42.1351 27.2637 42.404C24.3547 42.8871 21.375 42.7235 18.5364 41.9249C15.8014 41.1673 13.2806 39.783 11.1737 37.8817C9.2439 36.1089 7.65978 33.9936 6.50171 31.6429V27.816C7.71334 31.1921 9.35422 33.9348 11.4244 36.044C13.4771 38.1495 16.0543 39.6695 18.8902 40.4471C21.5229 41.1912 24.2872 41.3465 26.9867 40.9019L27.0696 40.8918C28.2078 40.7807 30.5428 40.1863 33.0597 38.7186C34.4081 37.9415 35.6525 36.9966 36.7633 35.9065C36.8253 35.8569 36.8827 35.8011 36.9408 35.7445C36.949 35.7365 36.9572 35.7285 36.9655 35.7205C37.201 35.5007 37.4212 35.2649 37.6245 35.015L37.6427 34.9948C38.363 34.1105 38.8872 33.0833 39.1807 31.9812C39.4742 30.8791 39.5301 29.7272 39.3449 28.6018C39.1597 27.4764 38.7376 26.4032 38.1064 25.4533C37.4752 24.5033 36.6494 23.6983 35.6837 23.0915L32.0145 20.7424L19.6099 12.7752L22.5938 26.2169L20.7844 25.0646L17.3295 9.54061L36.1871 21.6299L36.2437 21.6582L36.9675 22.1211C37.0443 22.1676 37.4789 22.4325 38.0551 22.8368C38.0676 22.8368 38.0753 22.8454 38.0855 22.8566C38.0901 22.8618 38.0953 22.8675 38.1016 22.8732C39.7996 24.3075 40.9075 26.3188 41.2124 28.5205C41.5173 30.7222 40.9976 32.9589 39.7533 34.8007C39.7243 34.853 39.6904 34.9024 39.6522 34.9483C39.5774 35.0413 39.5026 35.1343 39.4379 35.2273C39.2054 35.5164 38.9729 35.7933 38.7404 36.0541L38.6575 36.137Z" fill="#E2E2E2"/>
</svg>
