<svg width="24" height="24" viewBox="0 0 24 24" fill="none" xmlns="http://www.w3.org/2000/svg">
<path d="M12 4.96875C15.7461 4.96875 18.7812 8.00391 18.7812 11.75C18.7812 15.4961 15.7461 18.5312 12 18.5312C8.25391 18.5312 5.21875 15.4961 5.21875 11.75C5.21875 8.00391 8.25391 4.96875 12 4.96875ZM12 7.59375C10.6602 7.59375 9.59375 8.6875 9.59375 10C9.59375 11.3398 10.6602 12.4062 12 12.4062C13.3125 12.4062 14.4062 11.3398 14.4062 10C14.4062 8.6875 13.3125 7.59375 12 7.59375ZM12 17C13.5859 17 15.0352 16.2891 15.9922 15.1406C15.4727 14.1836 14.4609 13.5 13.3125 13.5C13.2305 13.5 13.1758 13.5273 13.0938 13.5547C12.7656 13.6641 12.3828 13.7188 12 13.7188C11.5898 13.7188 11.2344 13.6641 10.8789 13.5547C10.7969 13.5273 10.7422 13.5 10.6875 13.5C9.51172 13.5 8.5 14.1836 7.98047 15.1406C8.9375 16.2891 10.3867 17 12 17Z" fill="#222222"/>
</svg>
