<svg width="17" height="48" viewBox="0 0 17 48" fill="none" xmlns="http://www.w3.org/2000/svg">
<path d="M16.9966 1.08683C17.0288 0.810672 16.8311 0.560684 16.5549 0.528465L12.0546 0.0034357C11.7785 -0.0287827 11.5285 0.168969 11.4963 0.445127C11.4641 0.721285 11.6618 0.971274 11.938 1.00349L15.9382 1.47019L15.4715 5.47041C15.4393 5.74657 15.637 5.99656 15.9132 6.02878C16.1894 6.06099 16.4393 5.86324 16.4716 5.58708L16.9966 1.08683ZM16.1842 0.63367C10.522 5.11274 3.51124 12.845 0.973858 21.4892C-0.298635 25.8242 -0.449987 30.4046 1.27788 34.9111C3.00525 39.4163 6.59065 43.7952 12.6983 47.7652L13.247 46.921C7.27252 43.0376 3.852 38.8123 2.21799 34.5506C0.584485 30.2903 0.716306 25.9413 1.93994 21.7727C4.3948 13.4097 11.2281 5.83799 16.8089 1.42332L16.1842 0.63367Z" fill="#FCAF17"/>
</svg>
