<svg width="185" height="24" viewBox="0 0 185 24" fill="none" xmlns="http://www.w3.org/2000/svg">
<path d="M56.0693 4.71226V9.264H63.4105V13.4983H56.0693V18.4353H64.3737V22.8336H50.5865V0.324604H64.3737V4.71226H56.0693Z" fill="#1D1D1B"/>
<path d="M73.4451 0.324604V13.7908C73.4451 15.1368 73.7769 16.1737 74.4404 16.9014C75.1039 17.6291 76.0765 17.9917 77.3583 17.9894C78.6378 17.9894 79.6211 17.6267 80.3084 16.9014C80.9957 16.176 81.337 15.1392 81.3322 13.7908V0.324604H86.815V13.7587C86.8718 15.544 86.4282 17.3097 85.5344 18.8562C84.7139 20.215 83.5169 21.3067 82.0884 21.9989C80.5835 22.7226 78.9318 23.0888 77.262 23.0691C75.6151 23.0985 73.9841 22.7417 72.4998 22.0274C71.102 21.3389 69.9455 20.2432 69.1823 18.8847C68.3278 17.3198 67.9066 15.5551 67.9623 13.7729V0.324604H73.4451Z" fill="#1D1D1B"/>
<path d="M91.306 5.59696C92.2344 3.88635 93.6299 2.47481 95.3298 1.52679C97.1182 0.536011 99.1357 0.0328605 101.18 0.067799C103.853 0.067799 106.141 0.772918 108.043 2.18315C109.95 3.60216 111.299 5.64436 111.857 7.95487H105.828C105.423 7.06605 104.759 6.32012 103.923 5.81456C103.074 5.31194 102.102 5.05392 101.116 5.06901C100.344 5.04226 99.5766 5.18636 98.8674 5.49101C98.1582 5.79565 97.5251 6.25331 97.0135 6.83121C95.9647 8.02028 95.4403 9.59222 95.4403 11.547C95.4403 13.5019 95.9647 15.0726 97.0135 16.2593C97.5251 16.8372 98.1582 17.2949 98.8674 17.5995C99.5766 17.9042 100.344 18.0483 101.116 18.0215C102.101 18.0375 103.072 17.7833 103.923 17.2867C104.759 16.7808 105.422 16.0349 105.828 15.1463H111.857C111.301 17.4537 109.951 19.492 108.043 20.9038C106.141 22.3021 103.853 23.0013 101.18 23.0013C99.1362 23.0357 97.1192 22.5339 95.3298 21.5459C93.6328 20.5989 92.238 19.1917 91.306 17.4864C90.3567 15.6505 89.8612 13.6138 89.8612 11.547C89.8612 9.48025 90.3567 7.44355 91.306 5.60766V5.59696Z" fill="#1D1D1B"/>
<path d="M134.862 0.324604V22.8336H129.365V13.5589H120.835V22.8336H115.353V0.324604H120.835V9.14272H129.365V0.324604H134.862Z" fill="#1D1D1B"/>
<path d="M144.4 0.324604V22.8336H138.917V0.324604H144.4Z" fill="#1D1D1B"/>
<path d="M164.762 11.1332C164.118 12.2557 163.159 13.1647 162.004 13.748C160.571 14.4537 158.985 14.7943 157.388 14.7397H153.989V22.8336H148.506V0.324611H157.388C158.957 0.277702 160.515 0.595176 161.94 1.25208C163.107 1.80692 164.079 2.7008 164.73 3.8169C165.364 4.96323 165.685 6.25626 165.661 7.56602C165.674 8.81272 165.364 10.0416 164.762 11.1332ZM159.311 9.64214C159.807 9.06112 160.079 8.3225 160.079 7.55889C160.079 6.79528 159.807 6.05667 159.311 5.47565C158.797 4.98337 158.017 4.73724 156.971 4.73724H153.989V10.3805H156.978C158.02 10.3877 158.797 10.1451 159.311 9.65284V9.64214Z" fill="#1D1D1B"/>
<path d="M172.36 22.2557C171.119 21.7693 170.037 20.9481 169.235 19.8836C168.437 18.7826 168.005 17.4586 168.001 16.0988H173.837C173.868 16.8224 174.177 17.506 174.7 18.0072C175.235 18.4605 175.922 18.695 176.623 18.6636C177.31 18.7026 177.99 18.5049 178.549 18.1035C178.783 17.9194 178.969 17.6824 179.093 17.4119C179.217 17.1415 179.275 16.8455 179.262 16.5482C179.27 16.2916 179.223 16.0362 179.126 15.7985C179.029 15.5608 178.884 15.3459 178.699 15.1677C178.295 14.7863 177.825 14.4828 177.311 14.2724C176.551 13.9619 175.775 13.694 174.985 13.4697C173.764 13.1101 172.572 12.6594 171.418 12.1213C170.48 11.6578 169.667 10.9765 169.046 10.1344C168.382 9.26164 168.052 8.11776 168.054 6.70277C168.054 4.60763 168.813 2.96791 170.33 1.7836C171.847 0.599289 173.825 0.00475626 176.262 0C178.74 0 180.739 0.594533 182.259 1.7836C183.778 2.97266 184.591 4.62309 184.695 6.73487H178.774C178.768 6.40901 178.694 6.08801 178.555 5.79291C178.417 5.49782 178.218 5.23531 177.971 5.02262C177.438 4.59073 176.766 4.36757 176.08 4.39479C175.499 4.36843 174.928 4.55627 174.475 4.92273C174.267 5.11562 174.105 5.35241 174 5.6159C173.895 5.87938 173.85 6.16293 173.869 6.44593C173.864 6.79668 173.958 7.1417 174.139 7.44226C174.32 7.74283 174.581 7.98704 174.893 8.14748C175.914 8.69603 176.99 9.13601 178.103 9.46021C179.313 9.85964 180.496 10.3362 181.645 10.8871C182.57 11.3502 183.377 12.0189 184.003 12.8419C184.698 13.7992 185.047 14.9636 184.995 16.1451C185.008 17.3797 184.669 18.5925 184.017 19.641C183.325 20.7224 182.342 21.5876 181.182 22.138C179.809 22.7864 178.304 23.1041 176.787 23.0655C175.272 23.088 173.768 22.8129 172.36 22.2557Z" fill="#1D1D1B"/>
<path d="M43.3807 14.8253L28.2772 0.0856186H20.5293L35.6328 14.8253H43.3807Z" fill="#DC0D15"/>
<path d="M0 8.76817L14.4115 22.8301H22.1594L7.74795 8.76817H0Z" fill="#DC0D15"/>
<path d="M20.037 6.21407L13.559 0.0856186H5.8146L12.2891 6.21407H20.037Z" fill="#DC0D15"/>
<path d="M22.4163 16.6909L28.8943 22.8194H36.6423L30.1642 16.6909H22.4163Z" fill="#DC0D15"/>
<path d="M21.2498 15.1748H28.9978L20.9324 7.45898H13.1844L21.2498 15.1748Z" fill="#DC0D15"/>
</svg>
