<svg width="42" height="42" viewBox="0 0 42 42" fill="none" xmlns="http://www.w3.org/2000/svg">
<path d="M37.5 0C39.9375 0 42 2.0625 42 4.5V37.5C42 40.0312 39.9375 42 37.5 42H4.5C1.96875 42 0 40.0312 0 37.5V4.5C0 2.0625 1.96875 0 4.5 0H37.5ZM32.9062 14.9062C34.0312 14.0625 35.1562 12.9375 36 11.7188C34.875 12.1875 33.6562 12.5625 32.4375 12.6562C33.6562 11.9062 34.6875 10.7812 35.1562 9.28125C33.9375 10.0312 32.625 10.5 31.2188 10.7812C30.0938 9.5625 28.5 8.8125 26.7188 8.8125C22.9688 8.8125 19.875 12.2812 20.7188 16.4062C15.6562 16.125 11.0625 13.6875 8.0625 9.9375C7.5 10.875 7.21875 11.9062 7.21875 13.125C7.21875 15.1875 8.25 17.0625 9.9375 18.1875C8.90625 18.1875 7.96875 17.9062 7.21875 17.4375V17.5312C7.21875 20.5312 9.28125 22.9688 12.0938 23.5312C11.1562 23.8125 10.3125 23.8125 9.28125 23.625C10.125 26.0625 12.375 27.8438 15.0938 27.9375C12.9375 29.5312 10.3125 30.5625 7.40625 30.5625C6.9375 30.5625 6.46875 30.5625 6 30.4688C8.71875 32.25 11.9062 33.1875 15.375 33.1875C26.7188 33.1875 32.9062 23.8125 32.9062 15.75C32.9062 15.4688 32.9062 15.1875 32.9062 14.9062Z" fill="#7D8085"/>
</svg>
