<svg width="97" height="27" viewBox="0 0 97 27" fill="none" xmlns="http://www.w3.org/2000/svg">
<path fill-rule="evenodd" clip-rule="evenodd" d="M83.2062 14.7974C82.655 14.8093 82.1045 14.7479 81.5694 14.6147C81.1912 14.5198 80.8343 14.3545 80.5171 14.1276C80.2775 13.9558 80.0842 13.7274 79.9545 13.4626C79.847 13.239 79.7897 12.9946 79.7864 12.7465C79.7721 12.4622 79.8545 12.1814 80.0203 11.95C80.1766 11.7497 80.3884 11.5998 80.6292 11.5189C80.8879 11.4302 81.1596 11.3857 81.433 11.3873C81.4182 11.8654 81.5054 12.3412 81.6888 12.783C81.8299 13.1272 82.0728 13.42 82.3849 13.6224C82.697 13.8248 83.0634 13.9271 83.4352 13.9157C84.0101 13.9157 84.4566 13.7646 84.7749 13.4626C84.929 13.3192 85.051 13.1447 85.1328 12.9508C85.2147 12.7568 85.2546 12.5477 85.2499 12.3373C85.257 12.031 85.1619 11.731 84.9795 11.4848C84.7576 11.2117 84.4814 10.9877 84.1684 10.8271C83.7277 10.5896 83.2739 10.3774 82.8092 10.1914C82.2329 9.96724 81.6877 9.67008 81.187 9.30717C80.8228 9.04164 80.53 8.69021 80.3345 8.28415C80.1583 7.88123 80.071 7.44506 80.0787 7.00536C80.0661 6.45242 80.2299 5.90982 80.5464 5.45621C80.8726 5.0061 81.3144 4.6526 81.8252 4.43318C82.4035 4.18196 83.0289 4.05738 83.6593 4.06782C84.2569 4.05106 84.8535 4.12749 85.4277 4.29434C85.8856 4.44536 86.2242 4.64834 86.4434 4.90329C86.6563 5.13989 86.7735 5.44727 86.7722 5.76556C86.7719 5.93438 86.7313 6.10069 86.6538 6.25066C86.5762 6.40063 86.464 6.52993 86.3265 6.62782C86.0293 6.86165 85.5787 6.97857 84.9746 6.97857C84.9702 6.68 84.9184 6.38402 84.8212 6.10169C84.7249 5.79888 84.5579 5.52334 84.334 5.29788C84.2137 5.18329 84.0713 5.09439 83.9155 5.0366C83.7598 4.97881 83.5938 4.95334 83.4279 4.96175C83.0597 4.95461 82.7005 5.07606 82.4122 5.30519C82.1248 5.53416 81.9811 5.86786 81.9811 6.3063C81.9791 6.5716 82.0445 6.83306 82.171 7.06626C82.35 7.35228 82.5957 7.59051 82.8872 7.76045C83.3649 8.05265 83.8689 8.29973 84.3925 8.4985C84.9641 8.71949 85.5085 9.00554 86.0147 9.35102C86.3885 9.59212 86.6929 9.92652 86.8979 10.3212C87.1029 10.7159 87.2015 11.1572 87.1839 11.6017C87.1945 12.1913 87.0245 12.7702 86.6967 13.2604C86.3506 13.759 85.8724 14.1513 85.3156 14.3931C84.65 14.6789 83.9303 14.8168 83.2062 14.7974ZM36.0192 14.7973C35.4679 14.8092 34.9175 14.7478 34.3824 14.6146C34.0042 14.5196 33.6472 14.3544 33.3301 14.1274C33.0905 13.9557 32.8972 13.7272 32.7675 13.4625C32.66 13.2388 32.6027 12.9944 32.5994 12.7463C32.5851 12.462 32.6675 12.1813 32.8332 11.9498C32.9896 11.7496 33.2014 11.5997 33.4422 11.5187C33.7008 11.4301 33.9726 11.3856 34.246 11.3872C34.2312 11.8653 34.3184 12.3411 34.5018 12.7829C34.6429 13.127 34.8858 13.4199 35.1979 13.6223C35.51 13.8247 35.8764 13.927 36.2482 13.9155C36.823 13.9155 37.2696 13.7645 37.5879 13.4625C37.742 13.319 37.864 13.1446 37.9458 12.9506C38.0277 12.7567 38.0676 12.5476 38.0629 12.3371C38.07 12.0308 37.9748 11.7308 37.7925 11.4846C37.5706 11.2115 37.2944 10.9876 36.9814 10.8269C36.5407 10.5895 36.0869 10.3772 35.6222 10.1912C35.0473 9.96757 34.5033 9.67124 34.0036 9.30945C33.6395 9.04392 33.3466 8.69249 33.1511 8.28643C32.9749 7.88352 32.8877 7.44734 32.8954 7.00765C32.8828 6.4547 33.0466 5.9121 33.363 5.45849C33.6892 5.00838 34.1311 4.65488 34.6418 4.43547C35.2201 4.18424 35.8455 4.05966 36.476 4.0701C37.0736 4.05335 37.6702 4.12977 38.2443 4.29663C38.7023 4.44765 39.0408 4.65063 39.26 4.90557C39.473 5.14217 39.5902 5.44955 39.5889 5.76784C39.5886 5.93666 39.5479 6.10297 39.4704 6.25294C39.3929 6.40292 39.2807 6.53222 39.1431 6.6301C38.846 6.86394 38.3953 6.98085 37.7913 6.98085C37.7869 6.68228 37.7351 6.3863 37.6378 6.10398C37.5416 5.80116 37.3746 5.52563 37.1507 5.30017C37.0304 5.18557 36.888 5.09667 36.7322 5.03888C36.5764 4.98109 36.4105 4.95562 36.2446 4.96403C35.8763 4.95689 35.5172 5.07835 35.2288 5.30748C34.9414 5.53644 34.7977 5.87014 34.7977 6.30858C34.7958 6.57389 34.8612 6.83534 34.9877 7.06854C35.1666 7.35456 35.4124 7.5928 35.7038 7.76274C36.1816 8.05493 36.6855 8.30201 37.2091 8.50078C37.7808 8.72177 38.3251 9.00783 38.8313 9.3533C39.2051 9.5944 39.5095 9.9288 39.7146 10.3235C39.9196 10.7182 40.0182 11.1595 40.0005 11.604C40.0112 12.1936 39.8412 12.7725 39.5134 13.2627C39.1673 13.7613 38.689 14.1536 38.1323 14.3954C37.4654 14.6808 36.7444 14.818 36.0192 14.7973ZM46.381 14.7973C45.641 14.8145 44.9038 14.7007 44.2034 14.4611C43.6369 14.2661 43.1494 13.8915 42.815 13.3943C42.4902 12.9071 42.3279 12.2641 42.3279 11.4651V5.88234C42.34 5.68216 42.3049 5.48193 42.2255 5.29776C42.1698 5.18507 42.0731 5.09794 41.9552 5.05418C41.8351 5.01393 41.7091 4.99417 41.5825 4.99572H40.9541V4.22114H45.9961V4.99572H45.3872C45.2599 4.99408 45.1335 5.01639 45.0145 5.06149C44.8948 5.11255 44.7985 5.20632 44.7441 5.32455C44.6639 5.52131 44.629 5.73358 44.6418 5.94567V11.5869C44.6418 12.4054 44.8391 12.9737 45.2337 13.292C45.6283 13.6102 46.1561 13.7686 46.817 13.767C47.2067 13.777 47.5937 13.6996 47.9496 13.5404C48.2631 13.3925 48.5197 13.1461 48.6804 12.8389C48.8646 12.4602 48.9524 12.0419 48.9361 11.621V5.89696C48.9482 5.69678 48.9132 5.49654 48.8338 5.31237C48.778 5.19969 48.6813 5.11256 48.5634 5.0688C48.4434 5.02855 48.3174 5.00878 48.1908 5.01034H47.5818V4.23576H51.4109V5.01034H50.7824C50.6552 5.00869 50.5288 5.031 50.4098 5.0761C50.2901 5.12716 50.1937 5.22094 50.1394 5.33917C50.0592 5.53592 50.0242 5.7482 50.0371 5.96029V11.66C50.0526 12.2455 49.922 12.8256 49.6571 13.348C49.3926 13.8309 48.9767 14.2135 48.4733 14.4368C47.9358 14.6771 47.2384 14.7973 46.381 14.7973ZM52.0514 13.8766V14.6511L55.8755 14.6609V13.8863H55.2666C55.1393 13.888 55.0129 13.8656 54.8939 13.8205C54.7728 13.7679 54.6762 13.6713 54.6235 13.5502C54.5453 13.3571 54.5104 13.1492 54.5212 12.9412V6.6082L60.2209 14.6609H61.5606V5.95055C61.5477 5.73845 61.5827 5.52618 61.6629 5.32942C61.7172 5.21119 61.8136 5.11741 61.9333 5.06636C62.0523 5.02126 62.1787 4.99895 62.306 5.00059H62.9149V4.22602H59.1005V5.00059H59.7094C59.8361 4.99904 59.962 5.0188 60.0821 5.05905C60.2 5.10281 60.2967 5.18994 60.3525 5.30263C60.4319 5.4868 60.4669 5.68703 60.4548 5.88722V11.5139L55.2958 4.22114H52.0514V4.99572H52.6603C52.7869 4.99417 52.9129 5.01393 53.033 5.05418C53.1508 5.09794 53.2476 5.18507 53.3033 5.29776C53.3827 5.48193 53.4178 5.68216 53.4056 5.88234V12.9315C53.4165 13.1395 53.3815 13.3474 53.3033 13.5404C53.2507 13.6615 53.1541 13.7582 53.033 13.8108C52.914 13.8559 52.7875 13.8782 52.6603 13.8766H52.0514ZM63.5678 14.6511V13.8766H64.1768C64.3034 13.8781 64.4294 13.8584 64.5495 13.8181C64.6673 13.7743 64.764 13.6872 64.8198 13.5745C64.8979 13.3951 64.9329 13.1999 64.9221 13.0046V5.88234C64.9336 5.6822 64.8986 5.48211 64.8198 5.29776C64.764 5.18507 64.6673 5.09794 64.5495 5.05418C64.4294 5.01393 64.3034 4.99417 64.1768 4.99572H63.5678V4.22114H68.2738C69.1994 4.22114 69.9569 4.32345 70.5463 4.52805C71.1358 4.73266 71.5718 5.03713 71.8544 5.44147C72.1469 5.8796 72.2951 6.39828 72.2782 6.92486C72.292 7.38082 72.1916 7.833 71.9859 8.24017C71.8025 8.58617 71.5486 8.88987 71.2405 9.13167C70.9503 9.35864 70.6308 9.54544 70.2906 9.68703L72.0297 12.683C72.2197 13.0228 72.4613 13.3309 72.7458 13.5964C72.9511 13.7793 73.2163 13.8807 73.4912 13.8814H73.5497V14.656H73.0625C72.5733 14.6631 72.0844 14.6289 71.601 14.5537C71.2506 14.5021 70.917 14.3695 70.6267 14.1664C70.3399 13.9429 70.1034 13.6616 69.9325 13.3407L68.1934 10.1255H67.2288V13.0046C67.2174 13.2 67.2525 13.3953 67.3311 13.5745C67.3881 13.689 67.4878 13.7765 67.6088 13.8181C67.7266 13.8572 67.85 13.877 67.9742 13.8766H68.6026V14.6511H63.5678ZM68.0545 9.27294C68.7268 9.27294 69.1884 9.0927 69.4429 8.7322C69.6975 8.37171 69.8229 7.83583 69.8229 7.12459C69.8375 6.72019 69.778 6.31654 69.6475 5.93349C69.5454 5.65314 69.3421 5.42115 69.0776 5.28314C68.7479 5.1329 68.3873 5.06279 68.0253 5.07854H67.2361V9.27294H68.0545ZM73.8992 13.8766V14.6512L78.9437 14.6463V13.8717H78.3348C78.2052 13.8729 78.0764 13.8506 77.9548 13.806C77.8938 13.7815 77.8384 13.7449 77.792 13.6984C77.7455 13.6519 77.7089 13.5966 77.6844 13.5356C77.6116 13.3412 77.5792 13.134 77.5894 12.9266V5.94083C77.5773 5.72943 77.6097 5.51784 77.6844 5.31971C77.7097 5.26009 77.7467 5.20611 77.7931 5.16094C77.8395 5.11578 77.8945 5.08032 77.9548 5.05665C78.0764 5.01198 78.2052 4.9897 78.3348 4.99088H78.9437V4.2163H73.8992V4.99088H74.5082C74.6402 4.98844 74.7716 5.01075 74.8955 5.05665C75.014 5.10675 75.1084 5.20112 75.1585 5.31971C75.2332 5.51784 75.2656 5.72943 75.2535 5.94083V12.9315C75.2637 13.1388 75.2314 13.3461 75.1585 13.5405C75.1101 13.6619 75.0155 13.7591 74.8955 13.8108C74.7716 13.8567 74.6402 13.879 74.5082 13.8766H73.8992ZM88.3214 13.8766V14.6512L96.8977 14.6487L97 11.9596H95.9916L95.8698 12.6465C95.8455 12.8427 95.7939 13.0346 95.7164 13.2165C95.6516 13.3713 95.5485 13.5071 95.4168 13.6111C95.2757 13.7137 95.1039 13.7652 94.9296 13.7572H92.0067V9.63591H95.4704V8.75903H92.0067V5.10536H94.4595C94.6347 5.09704 94.8083 5.14297 94.9564 5.23689C95.0886 5.33129 95.1922 5.46022 95.256 5.60957C95.3369 5.80308 95.3839 6.00907 95.3949 6.21851L95.4679 6.9054H96.491L96.4325 4.2163H88.3214V4.99088H88.9303C89.0624 4.98844 89.1937 5.01075 89.3176 5.05665C89.4362 5.10675 89.5306 5.20112 89.5807 5.31971C89.6554 5.51784 89.6877 5.72943 89.6757 5.94083V13.0046C89.687 13.2 89.652 13.3953 89.5734 13.5746C89.5176 13.6872 89.4209 13.7744 89.303 13.8181C89.1829 13.8584 89.0569 13.8781 88.9303 13.8766H88.3214Z" fill="#393D46"/>
<path fill-rule="evenodd" clip-rule="evenodd" d="M57.0363 23.028V22.754H57.1155C57.1934 22.7546 57.2712 22.7456 57.3469 22.7272C57.419 22.7081 57.4826 22.6652 57.5271 22.6054C57.5785 22.5295 57.6029 22.4386 57.5966 22.3472V20.44C57.6035 20.3474 57.5791 20.2551 57.5271 20.1781C57.4806 20.1224 57.4174 20.0832 57.3469 20.0661C57.2712 20.0477 57.1934 20.0387 57.1155 20.0393H57.0851V19.7653H58.2664V22.3228C58.2594 22.4189 58.2829 22.5148 58.3334 22.5969C58.3772 22.6575 58.4411 22.7006 58.5136 22.7187C58.5898 22.7394 58.6685 22.7496 58.7475 22.7491H58.8266V23.0231L57.0363 23.028ZM57.9071 19.1734C57.8051 19.1772 57.705 19.1449 57.6246 19.082C57.5835 19.0435 57.5519 18.9959 57.5322 18.9431C57.5126 18.8903 57.5054 18.8336 57.5113 18.7776C57.5061 18.7204 57.5144 18.6629 57.5356 18.6096C57.5567 18.5563 57.5901 18.5087 57.6331 18.4707C57.7139 18.4106 57.8125 18.3793 57.9132 18.3818C58.013 18.3802 58.1106 18.4114 58.1909 18.4707C58.2663 18.5541 58.308 18.6626 58.308 18.7751C58.308 18.8876 58.2663 18.9961 58.1909 19.0796C58.1101 19.1429 58.0097 19.176 57.9071 19.1734ZM46.7915 22.7539V23.028L48.5818 23.0231V22.7491H48.5027C48.4237 22.7495 48.345 22.7393 48.2688 22.7186C48.1963 22.7006 48.1324 22.6574 48.0886 22.5968C48.0386 22.5146 48.0152 22.4189 48.0216 22.3228V19.7652H46.8402V20.0393H46.8707C46.9486 20.0387 47.0264 20.0477 47.1021 20.0661C47.1726 20.0831 47.2358 20.1224 47.2823 20.1781C47.3343 20.2551 47.3587 20.3473 47.3518 20.4399V22.3472C47.3581 22.4386 47.3337 22.5294 47.2823 22.6054C47.2377 22.6652 47.1742 22.7081 47.1021 22.7271C47.0264 22.7455 46.9486 22.7545 46.8707 22.7539H46.7915ZM47.3798 19.082C47.4602 19.1449 47.5603 19.1772 47.6623 19.1733H47.6648C47.7645 19.174 47.8615 19.141 47.94 19.0796C48.0154 18.9961 48.0571 18.8876 48.0571 18.7751C48.0571 18.6626 48.0154 18.5541 47.94 18.4706C47.8582 18.4135 47.7609 18.3829 47.6611 18.3829C47.5614 18.3829 47.464 18.4135 47.3822 18.4706C47.3403 18.5092 47.3081 18.5571 47.288 18.6104C47.2679 18.6637 47.2605 18.7209 47.2665 18.7775C47.2606 18.8336 47.2678 18.8902 47.2874 18.943C47.3071 18.9959 47.3387 19.0434 47.3798 19.082ZM36.9778 22.81C37.3083 23.0074 37.6892 23.1043 38.0739 23.0889C38.4474 23.1008 38.8164 23.0039 39.1359 22.81C39.4288 22.6193 39.6595 22.3471 39.7996 22.0269C40.1017 21.2704 40.1017 20.4268 39.7996 19.6703C39.6622 19.3505 39.4323 19.079 39.1395 18.8908C38.8193 18.6977 38.4501 18.6013 38.0763 18.6132C37.6919 18.599 37.3115 18.6954 36.9802 18.8908C36.6877 19.076 36.46 19.3476 36.3286 19.6679C36.1793 20.0409 36.1068 20.4402 36.1155 20.8419C36.1072 21.2459 36.1796 21.6476 36.3286 22.0233C36.4588 22.3461 36.6855 22.6209 36.9778 22.81ZM38.7717 22.5165C38.575 22.6756 38.3265 22.7563 38.0739 22.743C37.8253 22.7539 37.5813 22.6733 37.3882 22.5165C37.1998 22.3432 37.0674 22.1176 37.0082 21.8686C36.9218 21.5354 36.8808 21.1921 36.8864 20.848C36.8864 20.2524 36.9778 19.7884 37.158 19.4572C37.3383 19.1259 37.6464 18.9603 38.0799 18.9603C38.33 18.9475 38.5761 19.0268 38.7717 19.1831C38.9558 19.3565 39.0832 19.5815 39.1371 19.8286C39.2865 20.5004 39.2865 21.1968 39.1371 21.8686C39.0829 22.1163 38.9556 22.342 38.7717 22.5165ZM41.1246 22.9829C41.2766 23.0556 41.4434 23.0919 41.6118 23.0889C41.7516 23.0956 41.8913 23.0736 42.0222 23.0243C42.1273 22.978 42.2224 22.9118 42.3023 22.8294C42.3887 22.7377 42.47 22.6414 42.5459 22.5408H42.6007L42.7042 23.028H43.6116V22.7539H43.5933C43.5183 22.7569 43.4435 22.7436 43.3741 22.715C43.346 22.7017 43.3207 22.6831 43.2998 22.6601C43.2789 22.6371 43.2628 22.6102 43.2523 22.581C43.2246 22.4958 43.2122 22.4063 43.2158 22.3167V20.7444C43.2158 20.3632 43.1208 20.0929 42.9271 19.9345C42.7335 19.7762 42.4448 19.6983 42.0588 19.6983C41.8674 19.6962 41.6765 19.7166 41.49 19.7592C41.3391 19.7888 41.1973 19.8534 41.0759 19.9479C41.0249 19.9895 40.9842 20.0424 40.9571 20.1025C40.9301 20.1625 40.9174 20.228 40.92 20.2938C40.9147 20.3533 40.9261 20.4132 40.953 20.4666C40.9799 20.5199 41.0212 20.5647 41.0723 20.5958C41.2107 20.6621 41.3636 20.6923 41.5168 20.6835C41.5152 20.5678 41.5287 20.4523 41.557 20.3401C41.5789 20.2464 41.6327 20.1633 41.7092 20.105C41.8057 20.0425 41.9197 20.0126 42.0344 20.0198C42.1538 20.0105 42.2726 20.0442 42.3693 20.1148C42.445 20.1826 42.4957 20.274 42.513 20.3742C42.5365 20.5003 42.5475 20.6284 42.5459 20.7566V21.1098L42.0466 21.1293C41.5797 21.1455 41.2326 21.2316 41.0053 21.3875C40.8914 21.4686 40.8002 21.5776 40.7405 21.7041C40.6808 21.8305 40.6546 21.9702 40.6643 22.1097C40.6572 22.3006 40.6992 22.4901 40.7861 22.6602C40.8629 22.8001 40.9812 22.9129 41.1246 22.9829ZM42.2025 22.5932C42.0824 22.6627 41.9453 22.6973 41.8067 22.693C41.7179 22.6945 41.6305 22.6709 41.5546 22.6248C41.4853 22.5816 41.4326 22.5164 41.4048 22.4397C41.3701 22.3412 41.3536 22.2372 41.356 22.1328C41.3519 21.9984 41.3781 21.8648 41.4328 21.7419C41.4879 21.6332 41.5792 21.547 41.691 21.4983C41.849 21.4318 42.0188 21.3978 42.1903 21.3984L42.5496 21.3789V21.8661C42.5528 22.0169 42.5215 22.1664 42.4582 22.3033C42.4034 22.423 42.3144 22.5238 42.2025 22.5932ZM45.1742 23.0889C44.9793 23.0918 44.7852 23.0635 44.5993 23.0048C44.4583 22.9653 44.3316 22.8863 44.234 22.7771C44.1514 22.6769 44.1081 22.55 44.1122 22.4202C44.1041 22.3354 44.1247 22.2504 44.1706 22.1787C44.2165 22.1069 44.2851 22.0526 44.3655 22.0244C44.4226 22.002 44.4832 21.9897 44.5445 21.9879C44.5372 22.1858 44.5903 22.3812 44.6968 22.5481C44.7544 22.6262 44.8312 22.688 44.9198 22.7277C45.0083 22.7674 45.1056 22.7836 45.2022 22.7746C45.3772 22.7872 45.5507 22.7347 45.6894 22.6273C45.7419 22.5822 45.7839 22.5261 45.8123 22.4629C45.8407 22.3998 45.8549 22.3312 45.8538 22.2619C45.8572 22.1762 45.8352 22.0915 45.7904 22.0183C45.7307 21.9381 45.6537 21.8724 45.5651 21.8259C45.4173 21.7443 45.2634 21.6743 45.1048 21.6164C44.9226 21.5411 44.7467 21.4516 44.5786 21.3485C44.4511 21.2709 44.3435 21.1645 44.2644 21.0379C44.1912 20.9011 44.1555 20.7473 44.1609 20.5922C44.1544 20.4635 44.181 20.3352 44.2382 20.2197C44.2953 20.1041 44.3811 20.0051 44.4873 19.9321C44.7439 19.769 45.0447 19.6894 45.3483 19.7043C45.5273 19.6992 45.7058 19.7255 45.8757 19.7823C45.996 19.822 46.1033 19.8935 46.1863 19.9893C46.2501 20.0665 46.2854 20.1632 46.2861 20.2634C46.2886 20.3163 46.2789 20.369 46.2578 20.4176C46.2367 20.4662 46.2047 20.5092 46.1643 20.5435C46.059 20.621 45.9294 20.6581 45.799 20.6482C45.8087 20.4795 45.7629 20.3122 45.6686 20.172C45.6204 20.1139 45.559 20.0683 45.4895 20.0388C45.42 20.0094 45.3444 19.997 45.2692 20.0027C45.1209 19.9914 44.9736 20.0347 44.8551 20.1245C44.8088 20.1663 44.7722 20.2177 44.748 20.2752C44.7238 20.3326 44.7126 20.3947 44.715 20.457C44.7139 20.5443 44.7408 20.6297 44.7918 20.7006C44.8576 20.7818 44.9408 20.8471 45.0353 20.8918C45.1498 20.9502 45.3021 21.0136 45.4921 21.0903C45.6711 21.1568 45.8426 21.2421 46.0036 21.3448C46.1279 21.4262 46.231 21.536 46.3044 21.6651C46.3748 21.7994 46.4092 21.9496 46.4043 22.1012C46.412 22.2406 46.3859 22.3799 46.3282 22.5071C46.2705 22.6344 46.183 22.7458 46.073 22.8319C45.8099 23.0142 45.4939 23.1046 45.1742 23.0889ZM49.9848 23.0888C49.789 23.0938 49.5936 23.067 49.4063 23.0097C49.2653 22.9701 49.1386 22.8911 49.041 22.7819C48.9584 22.6817 48.9151 22.5549 48.9192 22.4251C48.9111 22.3403 48.9317 22.2552 48.9776 22.1835C49.0235 22.1117 49.0921 22.0575 49.1725 22.0293C49.2296 22.0069 49.2902 21.9945 49.3515 21.9927C49.3442 22.1906 49.3973 22.386 49.5038 22.553C49.5614 22.631 49.6382 22.6929 49.7268 22.7326C49.8153 22.7722 49.9126 22.7884 50.0092 22.7795C50.1842 22.792 50.3576 22.7395 50.4964 22.6321C50.5489 22.587 50.5909 22.5309 50.6193 22.4678C50.6477 22.4046 50.6619 22.336 50.6608 22.2668C50.6642 22.1811 50.6422 22.0963 50.5974 22.0232C50.5377 21.943 50.4607 21.8772 50.3721 21.8307C50.2243 21.7492 50.0704 21.6791 49.9118 21.6213C49.7296 21.546 49.5537 21.4564 49.3856 21.3533C49.2581 21.2757 49.1505 21.1694 49.0714 21.0428C48.9982 20.9059 48.9625 20.7521 48.9679 20.597C48.9614 20.4683 48.988 20.34 49.0452 20.2245C49.1023 20.1089 49.1881 20.01 49.2943 19.9369C49.5509 19.7738 49.8517 19.6942 50.1553 19.7092C50.3343 19.704 50.5128 19.7304 50.6827 19.7871C50.803 19.8268 50.9103 19.8984 50.9932 19.9942C51.0571 20.0713 51.0924 20.1681 51.0931 20.2682C51.0956 20.3211 51.0859 20.3739 51.0648 20.4224C51.0437 20.471 51.0117 20.5141 50.9713 20.5483C50.866 20.6258 50.7364 20.6629 50.606 20.653C50.6157 20.4843 50.5699 20.3171 50.4756 20.1769C50.4274 20.1188 50.366 20.0731 50.2965 20.0437C50.227 20.0142 50.1514 20.0018 50.0762 20.0076C49.9279 19.9962 49.7806 20.0396 49.6621 20.1294C49.6158 20.1711 49.5792 20.2225 49.555 20.28C49.5308 20.3375 49.5196 20.3995 49.522 20.4618C49.5209 20.5492 49.5478 20.6345 49.5988 20.7054C49.6646 20.7866 49.7478 20.852 49.8423 20.8966C49.9568 20.9551 50.1091 21.0184 50.2991 21.0951C50.4781 21.1616 50.6496 21.247 50.8106 21.3497C50.9356 21.4292 51.04 21.5373 51.115 21.6651C51.1854 21.7994 51.2198 21.9496 51.2149 22.1011C51.2226 22.2406 51.1965 22.3799 51.1389 22.5071C51.0812 22.6343 50.9936 22.7457 50.8836 22.8318C50.6205 23.0142 50.3046 23.1045 49.9848 23.0888ZM53.2732 22.7539V23.0279L56.6285 23.0255L56.6711 21.7053H56.3483L56.2753 22.162C56.2598 22.253 56.2332 22.3418 56.1961 22.4263C56.1602 22.513 56.098 22.5863 56.0183 22.6359C55.9385 22.6855 55.8453 22.7089 55.7516 22.7028H54.5702V19.3536C54.5637 19.2625 54.585 19.1717 54.6311 19.0929C54.6698 19.037 54.7273 18.9968 54.7931 18.9797C54.8654 18.9605 54.94 18.951 55.0148 18.9517H55.1365V18.6776H53.2732V18.9517H53.395C53.4723 18.951 53.5494 18.9612 53.6239 18.9821C53.6901 19.0027 53.7469 19.0458 53.7847 19.1039C53.8314 19.1882 53.8525 19.2842 53.8456 19.3804V22.3276C53.8518 22.4229 53.8306 22.518 53.7847 22.6017C53.7477 22.6605 53.6906 22.7038 53.6239 22.7235C53.5496 22.7449 53.4724 22.7552 53.395 22.7539H53.2732ZM59.3444 24.2617C59.5628 24.4135 59.8896 24.4894 60.3248 24.4894C60.8931 24.4902 61.3133 24.3888 61.5853 24.185C61.7151 24.0874 61.8194 23.9599 61.8894 23.8134C61.9594 23.6669 61.9929 23.5057 61.9872 23.3434C61.991 23.178 61.9547 23.0142 61.8812 22.866C61.806 22.7261 61.6889 22.6132 61.5463 22.5432C61.3559 22.4548 61.1472 22.413 60.9374 22.4215H60.2371C60.1404 22.4308 60.0431 22.4117 59.957 22.3667C59.9324 22.3475 59.9129 22.3226 59.9002 22.2941C59.8875 22.2657 59.8819 22.2346 59.8839 22.2035C59.881 22.1218 59.9093 22.0421 59.9631 21.9806C60.0161 21.9212 60.0802 21.8728 60.1518 21.8381C60.2034 21.8476 60.2555 21.8545 60.3077 21.8588C60.3747 21.8685 60.432 21.8685 60.4807 21.8685C60.8639 21.8685 61.1481 21.7687 61.3332 21.5689C61.5201 21.3628 61.6193 21.0919 61.6097 20.8138C61.6129 20.6664 61.5881 20.5197 61.5366 20.3815C61.4923 20.2676 61.4307 20.1612 61.3539 20.0661C61.3905 20.0452 61.4293 20.0285 61.4696 20.0161C61.5132 20.0041 61.5583 19.998 61.6036 19.9979C61.6335 19.9953 61.6637 20.0002 61.6913 20.0121C61.7189 20.024 61.7432 20.0425 61.7619 20.0661C61.7948 20.1099 61.812 20.1635 61.8106 20.2183C61.8608 20.2238 61.9116 20.2178 61.959 20.2007C62.0065 20.1836 62.0495 20.1559 62.0846 20.1196C62.1374 20.0547 62.1654 19.9731 62.1638 19.8895C62.1639 19.8474 62.1556 19.8057 62.1395 19.7668C62.1234 19.728 62.0998 19.6927 62.07 19.6629C62.0308 19.628 61.9849 19.6014 61.935 19.5846C61.8852 19.5679 61.8326 19.5614 61.7802 19.5655C61.6983 19.565 61.6174 19.582 61.5427 19.6154C61.471 19.6456 61.4044 19.6867 61.3454 19.7372C61.2864 19.7877 61.2303 19.8413 61.1773 19.898C61.0904 19.8345 60.9925 19.7875 60.8887 19.7592C60.7555 19.7174 60.6166 19.6968 60.477 19.6983C60.0788 19.6983 59.7877 19.7981 59.5916 19.9991C59.4896 20.11 59.4109 20.2402 59.3601 20.382C59.3092 20.5238 59.2873 20.6744 59.2957 20.8248C59.2921 21.0257 59.3449 21.2235 59.4479 21.396C59.5434 21.5583 59.6917 21.683 59.8681 21.7492C59.7436 21.8175 59.6323 21.9074 59.5393 22.0147C59.4658 22.1069 59.427 22.222 59.4296 22.3399C59.4264 22.4611 59.4701 22.5788 59.5514 22.6687C59.6181 22.7469 59.7013 22.8093 59.795 22.8514C59.6571 22.8694 59.5233 22.9106 59.3992 22.9732C59.2857 23.0306 59.1891 23.1166 59.1191 23.2228C59.0469 23.3397 59.0109 23.4753 59.0156 23.6125C59.0102 23.7399 59.0376 23.8664 59.0952 23.9801C59.1528 24.0937 59.2386 24.1907 59.3444 24.2617ZM60.9922 24.0851C60.7805 24.152 60.5589 24.1821 60.337 24.174C60.1819 24.1813 60.0271 24.1555 59.8827 24.0985C59.7802 24.0575 59.6944 23.9833 59.6391 23.8878C59.5892 23.7942 59.5641 23.6894 59.566 23.5833C59.5569 23.4605 59.5905 23.3384 59.661 23.2374C59.7231 23.1598 59.8085 23.1043 59.9046 23.0791C60.0034 23.0497 60.106 23.0349 60.2091 23.0353H60.8363C60.9872 23.0262 61.1378 23.0577 61.2723 23.1266C61.3258 23.1665 61.3678 23.2198 61.3939 23.2813C61.42 23.3427 61.4293 23.4099 61.4209 23.4761C61.4232 23.6046 61.3894 23.7312 61.3235 23.8415C61.2433 23.9574 61.1267 24.0431 60.9922 24.0851ZM60.7608 21.4727C60.6715 21.5317 60.5657 21.5607 60.4588 21.5555C60.3829 21.5613 60.3069 21.5473 60.2382 21.5149C60.1694 21.4824 60.1103 21.4326 60.0666 21.3704C59.974 21.1998 59.9317 21.0063 59.9448 20.8126C59.9399 20.6649 59.9563 20.5172 59.9935 20.3742C60.0191 20.2696 60.0765 20.1755 60.1579 20.105C60.2424 20.0409 60.3467 20.0085 60.4527 20.0137C60.5604 20.0091 60.6666 20.0403 60.7547 20.1026C60.8354 20.1716 60.8918 20.2646 60.9155 20.3681C60.9512 20.511 60.9676 20.6581 60.9642 20.8053C60.9673 20.9459 60.9522 21.0864 60.9191 21.2231C60.8966 21.322 60.8407 21.4101 60.7608 21.4727ZM62.3404 23.0279V22.7539H62.377C62.4591 22.7547 62.5411 22.7445 62.6205 22.7235C62.6921 22.7053 62.7547 22.6621 62.7971 22.6017C62.8473 22.5186 62.8707 22.4221 62.8641 22.3252V19.0759C62.8713 18.9836 62.8468 18.8917 62.7947 18.8152C62.7486 18.7588 62.6853 18.719 62.6144 18.702C62.5388 18.6832 62.461 18.6738 62.383 18.674H62.3282V18.3999H63.5339V19.6483C63.5339 19.7299 63.5339 19.8151 63.5254 19.904C63.5198 19.9625 63.5158 20.0304 63.5113 20.1068L63.5113 20.1069L63.5113 20.107L63.5112 20.1071C63.5089 20.1468 63.5064 20.1888 63.5035 20.2329H63.54C63.5966 20.1148 63.6751 20.0086 63.7714 19.9199C63.8585 19.8417 63.9616 19.7835 64.0735 19.7494C64.1921 19.7143 64.3152 19.6971 64.4388 19.6982C64.5822 19.6887 64.7259 19.7088 64.8611 19.7574C64.9963 19.8061 65.12 19.8821 65.2244 19.9808C65.4071 20.1695 65.4984 20.4679 65.4984 20.8857V22.3167C65.4925 22.4142 65.5122 22.5117 65.5556 22.5992C65.5911 22.6589 65.6483 22.7025 65.7152 22.721C65.7912 22.7427 65.87 22.753 65.949 22.7515H65.9673V23.0255H64.8286V20.9551C64.8404 20.7434 64.7931 20.5326 64.6922 20.3461C64.6008 20.2024 64.4388 20.1306 64.205 20.1306C64.0668 20.1246 63.9308 20.1677 63.8214 20.2524C63.7152 20.3425 63.6381 20.462 63.5997 20.5958C63.5499 20.76 63.5261 20.9309 63.5291 21.1024V22.3569C63.5232 22.4476 63.5457 22.5378 63.5936 22.6151C63.6343 22.6756 63.6959 22.7189 63.7666 22.7368C63.8464 22.7556 63.9282 22.7646 64.0101 22.7636H64.0284V23.0377L62.3404 23.0279ZM66.9476 22.8794C67.0929 23.019 67.3162 23.0889 67.6174 23.0889C67.7434 23.0901 67.8691 23.0782 67.9926 23.0536C68.0801 23.0373 68.1657 23.0125 68.2483 22.9793V22.6748C68.1789 22.6882 68.1192 22.6979 68.0571 22.7052C67.9893 22.7143 67.9209 22.7187 67.8525 22.7186C67.79 22.7218 67.7276 22.7108 67.67 22.6863C67.6124 22.6618 67.5611 22.6246 67.52 22.5774C67.43 22.4501 67.3869 22.2956 67.3982 22.1401V20.1306H68.1899V19.7653H67.3982V19.015H67.0572C67.0351 19.1458 66.9983 19.2737 66.9476 19.3962C66.9079 19.4925 66.85 19.5801 66.7771 19.6544C66.7111 19.7247 66.6298 19.7788 66.5396 19.8128C66.4547 19.8482 66.3637 19.8668 66.2717 19.8676V20.1306H66.7284V22.1401C66.7284 22.4921 66.8015 22.7393 66.9476 22.8794ZM68.5089 23.028V22.754H68.5917C68.6697 22.7546 68.7474 22.7456 68.8231 22.7272C68.8952 22.7081 68.9588 22.6652 69.0034 22.6054C69.0547 22.5295 69.0791 22.4386 69.0728 22.3472V20.44C69.0797 20.3474 69.0553 20.2552 69.0034 20.1782C68.9568 20.1225 68.8936 20.0832 68.8231 20.0661C68.7474 20.0477 68.6697 20.0387 68.5917 20.0393H68.5613V19.7653H69.7426V22.3229C69.7356 22.419 69.7591 22.5148 69.8096 22.5969C69.8532 22.6572 69.9165 22.7003 69.9886 22.7187C70.0653 22.7393 70.1443 22.7496 70.2237 22.7491H70.2968V23.0231L68.5089 23.028ZM69.3797 19.1734C69.2773 19.177 69.1769 19.1447 69.0959 19.0821C69.0555 19.043 69.0244 18.9954 69.005 18.9427C68.9856 18.8899 68.9784 18.8335 68.9839 18.7776C68.9779 18.721 68.9853 18.6637 69.0053 18.6104C69.0254 18.5571 69.0577 18.5093 69.0996 18.4707C69.1808 18.4128 69.2781 18.3817 69.3779 18.3817C69.4776 18.3817 69.5749 18.4128 69.6561 18.4707C69.7323 18.5538 69.7746 18.6624 69.7746 18.7752C69.7746 18.8879 69.7323 18.9965 69.6561 19.0796C69.5775 19.1417 69.4799 19.1748 69.3797 19.1734ZM70.5403 22.754V23.028L72.2441 23.0511V22.7771H72.2198C72.1378 22.7784 72.0559 22.7694 71.9762 22.7503C71.9065 22.7317 71.8459 22.6884 71.8057 22.6285C71.7583 22.5511 71.7362 22.4609 71.7424 22.3703V21.1159C71.7404 20.9513 71.7617 20.7873 71.8057 20.6287C71.8403 20.4891 71.9143 20.3622 72.0188 20.2634C72.1326 20.1698 72.2773 20.1224 72.4244 20.1306C72.5159 20.1211 72.6083 20.136 72.6922 20.1739C72.7761 20.2118 72.8484 20.2712 72.9018 20.3462C73.0033 20.5325 73.0509 20.7433 73.0394 20.9551V23.0255H74.1842V22.7515H74.1538C74.0744 22.753 73.9951 22.7428 73.9187 22.7211C73.8862 22.712 73.8558 22.6966 73.8292 22.6757C73.8027 22.6548 73.7805 22.6288 73.7641 22.5993C73.7222 22.5112 73.7034 22.414 73.7092 22.3167V20.8857C73.7092 20.468 73.6203 20.1696 73.4413 19.9808C73.3433 19.8838 73.2259 19.8085 73.0969 19.7598C72.9678 19.7112 72.83 19.6902 72.6923 19.6983C72.5694 19.6968 72.4468 19.7099 72.3269 19.7373C72.2133 19.7652 72.1072 19.8181 72.0164 19.8919C71.9055 19.9899 71.8138 20.1076 71.746 20.239H71.7156L71.6364 19.7653H70.5671V20.0405H70.5915C70.6735 20.039 70.7553 20.048 70.835 20.0673C70.9039 20.0841 70.9645 20.1252 71.0055 20.183C71.0538 20.2623 71.0764 20.3546 71.0701 20.4473V22.3253C71.0765 22.4218 71.054 22.518 71.0055 22.6017C70.9641 22.6631 70.9011 22.7067 70.8289 22.7235C70.7467 22.745 70.6619 22.7552 70.5768 22.754H70.5403ZM75.7614 24.4895C75.3262 24.4895 74.9994 24.4136 74.781 24.2617C74.6752 24.1908 74.5894 24.0938 74.5318 23.9801C74.4743 23.8665 74.4468 23.7399 74.4522 23.6126C74.4475 23.4753 74.4835 23.3398 74.5557 23.2229C74.6258 23.1167 74.7223 23.0306 74.8358 22.9732C74.96 22.9106 75.0938 22.8694 75.2316 22.8514C75.1379 22.8093 75.0547 22.7469 74.9881 22.6687C74.9067 22.5789 74.8631 22.4611 74.8663 22.3399C74.8637 22.222 74.9024 22.107 74.9759 22.0147C75.0689 21.9074 75.1802 21.8175 75.3047 21.7492C75.1284 21.683 74.9801 21.5584 74.8845 21.3961C74.7815 21.2236 74.7288 21.0257 74.7323 20.8249C74.7241 20.6746 74.7459 20.5241 74.7965 20.3823C74.8471 20.2405 74.9255 20.1103 75.027 19.9991C75.2243 19.7986 75.5199 19.6983 75.9137 19.6983C76.0528 19.6969 76.1913 19.7175 76.3241 19.7592C76.4283 19.7876 76.5265 19.8346 76.6139 19.8981C76.6668 19.8417 76.7225 19.7881 76.7808 19.7373C76.8405 19.687 76.9074 19.6459 76.9793 19.6155C77.0559 19.5812 77.139 19.5642 77.2229 19.5656C77.2751 19.5613 77.3276 19.5678 77.3773 19.5845C77.4269 19.6013 77.4726 19.628 77.5115 19.663C77.5417 19.6925 77.5657 19.7277 77.582 19.7666C77.5983 19.8055 77.6066 19.8473 77.6065 19.8895C77.6081 19.9732 77.5801 20.0547 77.5274 20.1197C77.4922 20.1559 77.4493 20.1837 77.4018 20.2008C77.3543 20.2179 77.3035 20.2239 77.2533 20.2184C77.2539 20.1637 77.2368 20.1103 77.2046 20.0661C77.1859 20.0426 77.1616 20.0241 77.134 20.0122C77.1064 20.0003 77.0763 19.9954 77.0463 19.9979C77.001 19.998 76.956 20.0042 76.9123 20.0162C76.872 20.0283 76.8331 20.0451 76.7966 20.0661C76.8734 20.1612 76.935 20.2676 76.9793 20.3816C77.0308 20.5197 77.0556 20.6665 77.0524 20.8139C77.0622 21.0922 76.9625 21.3633 76.7747 21.569C76.5912 21.7687 76.307 21.8686 75.9222 21.8686C75.8735 21.8686 75.815 21.8686 75.748 21.8589C75.6961 21.8546 75.6445 21.8477 75.5933 21.8382C75.5217 21.8729 75.4576 21.9213 75.4046 21.9806C75.3504 22.0419 75.322 22.1218 75.3254 22.2035C75.3234 22.2346 75.329 22.2657 75.3417 22.2942C75.3544 22.3226 75.3739 22.3475 75.3985 22.3667C75.4846 22.4118 75.5819 22.4308 75.6786 22.4215H76.3789C76.5887 22.413 76.7975 22.4547 76.9878 22.5433C77.1307 22.613 77.2479 22.7259 77.3228 22.866C77.4281 23.0872 77.4563 23.3373 77.4029 23.5764C77.3494 23.8154 77.2175 24.0297 77.028 24.185C76.752 24.3888 76.3298 24.4903 75.7614 24.4895ZM75.7736 24.1741L75.7757 24.1741C75.6204 24.1815 75.4654 24.1562 75.3205 24.0998C75.2182 24.0586 75.1324 23.9845 75.077 23.8891C75.0271 23.7955 75.0019 23.6907 75.0039 23.5846C74.995 23.462 75.0281 23.34 75.0977 23.2387C75.1601 23.1616 75.2454 23.1061 75.3413 23.0804C75.44 23.0509 75.5426 23.0362 75.6457 23.0366H76.2729C76.4234 23.0273 76.5737 23.0589 76.7077 23.1279C76.7615 23.1673 76.8037 23.2204 76.83 23.2817C76.8564 23.3429 76.8659 23.4101 76.8575 23.4762C76.8598 23.6047 76.826 23.7313 76.7601 23.8416C76.6797 23.9577 76.5626 24.0435 76.4276 24.0852C76.217 24.152 75.9965 24.1821 75.7757 24.1741L75.7773 24.1741H75.7736ZM75.8954 21.5556L75.8978 21.5557C75.8211 21.5624 75.744 21.5488 75.6742 21.5163C75.604 21.4836 75.5438 21.4328 75.4996 21.3693C75.4069 21.1986 75.3647 21.0052 75.3778 20.8115C75.3744 20.6641 75.3916 20.5169 75.4289 20.3742C75.4554 20.27 75.5127 20.1762 75.5933 20.1051C75.6783 20.0411 75.783 20.0088 75.8893 20.0138C75.9967 20.0085 76.1028 20.0398 76.1901 20.1027C76.2717 20.1711 76.3286 20.2643 76.3521 20.3682C76.3878 20.5111 76.4042 20.6581 76.4008 20.8054C76.4036 20.946 76.3881 21.0865 76.3545 21.2231C76.3325 21.3223 76.2765 21.4106 76.1962 21.4728C76.1081 21.5315 76.0035 21.5605 75.8978 21.5557L75.899 21.5556H75.8954ZM79.4577 22.7539V23.0279L82.813 23.0255L82.8556 21.7053H82.5329L82.4598 22.162C82.4438 22.2529 82.4172 22.3416 82.3807 22.4263C82.3447 22.513 82.2825 22.5863 82.2028 22.6359C82.1231 22.6855 82.0298 22.7089 81.9361 22.7028H80.7548V19.3536C80.7477 19.2625 80.7689 19.1714 80.8157 19.0929C80.8539 19.0371 80.911 18.9969 80.9764 18.9797C81.0492 18.9605 81.1241 18.951 81.1993 18.9517H81.3211V18.6776H79.4577V18.9517H79.5795C79.6565 18.951 79.7332 18.9612 79.8073 18.9821C79.8736 19.003 79.9307 19.046 79.9692 19.1039C80.0159 19.1882 80.0371 19.2842 80.0301 19.3804V22.3276C80.0363 22.4229 80.0152 22.518 79.9692 22.6017C79.9316 22.6604 79.8741 22.7036 79.8073 22.7235C79.7333 22.7449 79.6565 22.7552 79.5795 22.7539H79.4577ZM83.8908 23.0706C83.7855 23.074 83.6822 23.0409 83.5985 22.9768C83.5197 22.8811 83.4767 22.761 83.4767 22.637C83.4767 22.5131 83.5197 22.3929 83.5985 22.2972C83.683 22.235 83.7859 22.2029 83.8908 22.2059C83.9957 22.2032 84.0984 22.2354 84.1831 22.2972C84.2619 22.3929 84.305 22.5131 84.305 22.637C84.305 22.761 84.2619 22.8811 84.1831 22.9768C84.0992 23.0405 83.9961 23.0736 83.8908 23.0706ZM84.9016 22.7539V23.0279L88.2545 23.0255L88.2971 21.7053H87.9744L87.9013 22.162C87.8853 22.2529 87.8587 22.3416 87.8221 22.4263C87.7862 22.513 87.724 22.5863 87.6443 22.6359C87.5646 22.6855 87.4713 22.7089 87.3776 22.7028H86.1963V19.3536C86.1891 19.2625 86.2104 19.1714 86.2572 19.0929C86.2954 19.0371 86.3524 18.9969 86.4179 18.9797C86.4906 18.9605 86.5656 18.951 86.6408 18.9517H86.7687V18.6776H84.9053V18.9517H85.0332C85.1102 18.951 85.1868 18.9612 85.2609 18.9821C85.3272 19.003 85.3844 19.046 85.4229 19.1039C85.4696 19.1882 85.4907 19.2842 85.4838 19.3804V22.3276C85.49 22.4229 85.4689 22.518 85.4229 22.6017C85.3852 22.6604 85.3278 22.7036 85.2609 22.7235C85.187 22.7449 85.1102 22.7552 85.0332 22.7539H84.9016ZM89.3348 23.0706C89.2295 23.074 89.1262 23.0409 89.0425 22.9768C88.9637 22.8811 88.9207 22.761 88.9207 22.637C88.9207 22.5131 88.9637 22.3929 89.0425 22.2972C89.127 22.235 89.2299 22.2029 89.3348 22.2059C89.4397 22.2032 89.5424 22.2354 89.6271 22.2972C89.7059 22.3929 89.749 22.5131 89.749 22.637C89.749 22.761 89.7059 22.8811 89.6271 22.9768C89.5432 23.0405 89.4401 23.0736 89.3348 23.0706ZM91.2128 22.8099C91.5322 23.0052 91.9019 23.1022 92.276 23.0888C92.4799 23.0879 92.6829 23.0613 92.8801 23.0097C93.0258 22.9741 93.1648 22.9153 93.2917 22.8355C93.3852 22.7758 93.4649 22.6969 93.5256 22.6041C93.5732 22.5316 93.5998 22.4473 93.6023 22.3605C93.6033 22.3106 93.5929 22.261 93.5719 22.2156C93.5533 22.1771 93.5263 22.1434 93.4927 22.117C93.4188 22.212 93.3351 22.2989 93.243 22.3764C93.1379 22.4635 93.0184 22.5315 92.8898 22.5773C92.7271 22.6318 92.556 22.6574 92.3844 22.6528C92.1225 22.6663 91.864 22.5879 91.6537 22.4312C91.4582 22.2666 91.3173 22.0466 91.2493 21.8003C91.1584 21.4879 91.1153 21.1635 91.1215 20.8382C91.1157 20.4924 91.1567 20.1475 91.2433 19.8127C91.3015 19.5642 91.4356 19.3399 91.6269 19.1709C91.828 19.0163 92.0775 18.9382 92.3308 18.9505C92.4787 18.9428 92.6247 18.9858 92.7449 19.0723C92.8446 19.1517 92.9204 19.257 92.9641 19.3767C93.0083 19.4981 93.0309 19.6263 93.0311 19.7555C93.1828 19.7635 93.3328 19.7206 93.4574 19.6337C93.5091 19.5961 93.5511 19.5465 93.5797 19.4893C93.6083 19.4321 93.6227 19.3688 93.6218 19.3049C93.6217 19.1748 93.5726 19.0495 93.4842 18.9541C93.3682 18.8371 93.2232 18.753 93.064 18.7105C92.8318 18.6438 92.5907 18.613 92.3491 18.6192C91.964 18.6061 91.5834 18.7047 91.253 18.903C90.9556 19.0923 90.7212 19.3657 90.5795 19.6885C90.4212 20.0541 90.3435 20.4496 90.3518 20.8479C90.3429 21.2515 90.4162 21.6526 90.5673 22.0268C90.699 22.3468 90.9239 22.6196 91.2128 22.8099Z" fill="#7D8085"/>
<path fill-rule="evenodd" clip-rule="evenodd" d="M25.9163 10.7557H26.343C25.7236 7.71947 24.0743 4.99048 21.6741 3.03052C19.2739 1.07056 16.2703 0 13.1715 0C10.0728 0 7.06915 1.07056 4.66896 3.03052C2.26878 4.99048 0.619422 7.71947 0 10.7557H0.426737C1.04316 7.83218 2.64594 5.20947 4.96636 3.3273C7.28677 1.44513 10.1837 0.41793 13.1715 0.41793C16.1593 0.41793 19.0563 1.44513 21.3767 3.3273C23.6971 5.20947 25.2999 7.83218 25.9163 10.7557ZM13.1721 26.8848C19.6578 26.8848 25.0951 22.2542 26.343 16.1261H25.9208C25.3053 19.0516 23.7024 21.6764 21.381 23.5602C19.0597 25.444 16.1611 26.4721 13.1715 26.4721C10.182 26.4721 7.28338 25.444 4.96202 23.5602C2.64066 21.6764 1.03777 19.0516 0.422283 16.1261H0C1.2479 22.2564 6.68632 26.8848 13.1721 26.8848Z" fill="#7D8085"/>
<path fill-rule="evenodd" clip-rule="evenodd" d="M13.8908 11.2771L14.888 11.9111L16.7932 20.4737L6.39998 13.8097L6.36879 13.7952L5.9699 13.5389C5.92756 13.5133 5.68801 13.3674 5.37046 13.1445C5.36358 13.1445 5.35932 13.1398 5.35373 13.1336C5.35117 13.1308 5.34833 13.1276 5.34484 13.1245C4.40878 12.3341 3.798 11.2255 3.62995 10.012C3.46191 8.79848 3.74847 7.56567 4.43453 6.55067C4.45023 6.52136 4.4689 6.49373 4.49024 6.46822C4.53147 6.41697 4.57269 6.36572 4.60835 6.31446C4.73648 6.15625 4.86461 6.00249 4.99275 5.85987L5.03843 5.81307C7.19552 3.41309 9.96654 2.50278 11.3181 2.35348C12.9212 2.08683 14.5634 2.17623 16.1281 2.61532C17.6356 3.03232 19.0251 3.79535 20.186 4.84372C21.2496 5.82114 22.1227 6.98739 22.7609 8.28326V10.3913C22.0946 8.53172 21.1888 7.01864 20.0478 5.85764C18.9176 4.6948 17.4969 3.8554 15.9331 3.42646C14.4816 3.01635 12.9574 2.93227 11.4696 3.18022H11.4239C10.7977 3.24261 9.50972 3.56907 8.12365 4.37798C7.38299 4.80911 6.69977 5.33209 6.09024 5.93452C6.05831 5.95915 6.02863 5.98826 5.99874 6.01757C5.99211 6.02406 5.98548 6.03056 5.97882 6.03703C5.84874 6.15794 5.72736 6.28788 5.61559 6.42588L5.60556 6.43591C5.20856 6.92327 4.91963 7.48941 4.75789 8.09683C4.59616 8.70426 4.56531 9.33911 4.66738 9.95936C4.76946 10.5796 5.00213 11.1711 5.34999 11.6946C5.69786 12.2182 6.15298 12.6619 6.68522 12.9963L8.70081 14.2944L15.5387 18.6821L13.8908 11.2771ZM21.3058 19.9166C19.1487 22.3111 16.3777 23.2225 15.0262 23.3707C13.4229 23.6369 11.7806 23.5468 10.2162 23.1066C8.70879 22.6891 7.31943 21.9261 6.15823 20.8782C5.09466 19.9012 4.22158 18.7353 3.58332 17.4398V15.3306C4.25109 17.1913 5.15545 18.7029 6.2964 19.8654C7.42776 21.0258 8.84815 21.8635 10.4111 22.2921C11.8622 22.7022 13.3857 22.7878 14.8735 22.5428L14.9192 22.5372C15.5465 22.476 16.8334 22.1484 18.2206 21.3395C18.9637 20.9112 19.6496 20.3904 20.2618 19.7896C20.296 19.7623 20.3276 19.7315 20.3596 19.7003C20.3641 19.6959 20.3687 19.6915 20.3732 19.6871C20.503 19.5659 20.6244 19.436 20.7364 19.2983L20.7465 19.2871C21.1435 18.7998 21.4324 18.2336 21.5941 17.6262C21.7559 17.0188 21.7867 16.3839 21.6846 15.7637C21.5826 15.1434 21.3499 14.5519 21.002 14.0284C20.6542 13.5048 20.199 13.0611 19.6668 12.7267L17.6445 11.432L10.8078 7.04094L12.4524 14.4493L11.4551 13.8142L9.55097 5.25822L19.9442 11.9211L19.9754 11.9367L20.3743 12.1919C20.4167 12.2175 20.6562 12.3635 20.9738 12.5863C20.9806 12.5863 20.9849 12.591 20.9905 12.5972C20.993 12.6001 20.9959 12.6032 20.9994 12.6064C21.9352 13.3969 22.5459 14.5054 22.7139 15.7189C22.8819 16.9323 22.5955 18.1651 21.9097 19.1802C21.8937 19.209 21.8751 19.2362 21.854 19.2615L21.8539 19.2615C21.8127 19.3128 21.7715 19.364 21.7359 19.4153C21.6077 19.5746 21.4796 19.7272 21.3515 19.871L21.3058 19.9166Z" fill="#393D46"/>
</svg>
