<svg width="21" height="21" viewBox="0 0 21 21" fill="none" xmlns="http://www.w3.org/2000/svg">
<path d="M21 2.25L21 18.75C21 19.9688 20.0156 21 18.75 21L2.25 21C1.03125 21 2.21289e-07 19.9687 3.27835e-07 18.75L1.77031e-06 2.25C1.88096e-06 0.984373 1.03125 -1.74572e-06 2.25 -1.63918e-06L18.75 -1.96701e-07C20.0156 -8.60568e-08 21 0.984375 21 2.25ZM4.35938 8.8125L10.125 14.5781C10.3594 14.8125 10.6875 14.8125 10.9219 14.5781L16.6875 8.8125C17.0625 8.4375 16.7813 7.875 16.3125 7.875L4.73438 7.875C4.26563 7.875 3.98438 8.4375 4.35938 8.8125Z" fill="#393D46"/>
</svg>
