<svg width="21" height="21" viewBox="0 0 21 21" fill="none" xmlns="http://www.w3.org/2000/svg">
<path d="M18.75 0C19.9688 0 21 1.03125 21 2.25V18.75C21 20.0156 19.9688 21 18.75 21H2.25C0.984375 21 0 20.0156 0 18.75V2.25C0 1.03125 0.984375 0 2.25 0H18.75ZM16.4531 7.45312C17.0156 7.03125 17.5781 6.46875 18 5.85938C17.4375 6.09375 16.8281 6.28125 16.2188 6.32812C16.8281 5.95312 17.3438 5.39062 17.5781 4.64062C16.9688 5.01562 16.3125 5.25 15.6094 5.39062C15.0469 4.78125 14.25 4.40625 13.3594 4.40625C11.4844 4.40625 9.9375 6.14062 10.3594 8.20312C7.82812 8.0625 5.53125 6.84375 4.03125 4.96875C3.75 5.4375 3.60938 5.95312 3.60938 6.5625C3.60938 7.59375 4.125 8.53125 4.96875 9.09375C4.45312 9.09375 3.98438 8.95312 3.60938 8.71875V8.76562C3.60938 10.2656 4.64062 11.4844 6.04688 11.7656C5.57812 11.9062 5.15625 11.9062 4.64062 11.8125C5.0625 13.0312 6.1875 13.9219 7.54688 13.9688C6.46875 14.7656 5.15625 15.2812 3.70312 15.2812C3.46875 15.2812 3.23438 15.2812 3 15.2344C4.35938 16.125 5.95312 16.5938 7.6875 16.5938C13.3594 16.5938 16.4531 11.9062 16.4531 7.875C16.4531 7.73438 16.4531 7.59375 16.4531 7.45312Z" fill="#E2E2E2"/>
</svg>
