<svg width="155" height="36" viewBox="0 0 155 36" fill="none" xmlns="http://www.w3.org/2000/svg">
<path d="M9.87229 6.33576V19.257H4.47897V6.33576H0.355713V1.12744H13.9955V6.33576H9.87229Z" fill="#1D1D1B"/>
<path d="M26.191 8.18217V12.2165H22.6726C22.321 12.1869 21.9685 12.2612 21.6587 12.4299C21.5544 12.515 21.4726 12.6244 21.4205 12.7484C21.3684 12.8725 21.3476 13.0075 21.3598 13.1415C21.3394 13.2821 21.3566 13.4257 21.4097 13.5576C21.4628 13.6895 21.5499 13.8049 21.6622 13.8921C22.0603 14.0427 22.4867 14.1034 22.9109 14.07H26.5361V19.2499H22.3026C20.3103 19.2499 18.7877 18.7755 17.7346 17.8268C16.6816 16.8781 16.1539 15.5013 16.1515 13.6964V6.58125C16.1515 4.8487 16.6496 3.50038 17.6457 2.54694C18.6418 1.5935 20.0435 1.1239 21.8508 1.1239H26.5361V6.33222H23.0995C22.1674 6.33222 21.7049 6.63106 21.7049 7.23585C21.6898 7.37691 21.7126 7.51943 21.7707 7.64883C21.8288 7.77823 21.9203 7.88985 22.0358 7.97228C22.406 8.13864 22.8121 8.20958 23.2169 8.17862L26.191 8.18217Z" fill="#1D1D1B"/>
<path d="M42.435 10.3985L48.0774 10.5443C47.705 13.4639 46.6935 15.7171 45.0428 17.3038C43.392 18.8905 41.2385 19.6874 38.5822 19.6945C37.3266 19.7255 36.0779 19.5005 34.9121 19.0332C33.7463 18.5659 32.6879 17.8661 31.8014 16.9765C30.9095 16.1 30.2071 15.0497 29.7377 13.8906C29.2683 12.7316 29.042 11.4885 29.0727 10.2384C29.0443 8.9727 29.2767 7.71471 29.7553 6.54267C30.2339 5.37063 30.9485 4.3096 31.8547 3.42558C32.7504 2.52343 33.8206 1.81334 34.9999 1.33868C36.1792 0.864015 37.4429 0.634745 38.7138 0.664879C39.9565 0.632454 41.1925 0.856793 42.3446 1.32386C43.4966 1.79092 44.5399 2.49066 45.4092 3.37933C46.6472 4.62686 47.5236 6.36652 48.0383 8.59832L42.2607 8.98254C41.6132 6.99978 40.387 6.00839 38.5822 6.00839C38.05 5.99377 37.5209 6.09284 37.0301 6.29897C36.5394 6.5051 36.0982 6.81356 35.7361 7.20374C34.9771 8.03089 34.5745 9.12367 34.6154 10.2455C34.5969 10.7843 34.6848 11.3215 34.874 11.8263C35.0632 12.3312 35.3501 12.7938 35.7183 13.1876C36.4486 13.9068 37.4252 14.3212 38.4498 14.347C39.4745 14.3728 40.4706 14.0079 41.2361 13.3264C41.9097 12.6481 42.3093 11.6721 42.435 10.3985Z" fill="#1D1D1B"/>
<path d="M50.799 19.2569V7.48839C50.799 5.42735 51.4168 3.77663 52.6525 2.53621C53.8881 1.2958 55.5329 0.676773 57.5868 0.679145C59.6289 0.679145 61.1931 1.28038 62.2793 2.48284C63.3656 3.68531 63.9075 5.41668 63.9051 7.67694V19.2569H58.5154V7.67694C58.5154 6.56934 58.1217 6.01554 57.3343 6.01554C56.5468 6.01554 56.1721 6.56934 56.2101 7.67694V19.2569H50.799Z" fill="#1D1D1B"/>
<path d="M76.3211 0.679208C77.556 0.663871 78.7807 0.90476 79.9178 1.38667C81.0549 1.86857 82.0797 2.58103 82.9275 3.47904C84.029 4.58997 84.8399 5.95515 85.2884 7.4539C85.7369 8.95265 85.8094 10.5388 85.4993 12.0722C85.1892 13.6056 84.5061 15.039 83.5105 16.2457C82.5148 17.4524 81.2372 18.3952 79.7906 18.9908C78.344 19.5865 76.7729 19.8166 75.2163 19.6608C73.6596 19.505 72.1653 18.9682 70.8654 18.0977C69.5655 17.2272 68.5001 16.05 67.7633 14.6699C67.0265 13.2899 66.641 11.7495 66.6409 10.1851C66.6156 8.9252 66.8524 7.67379 67.3362 6.5102C67.82 5.34662 68.5403 4.29625 69.4514 3.42567C70.3517 2.5278 71.4246 1.82156 72.6052 1.34954C73.7859 0.87752 75.0499 0.649494 76.3211 0.679208ZM76.1646 6.0156C75.6335 6.00872 75.107 6.11419 74.6196 6.3251C74.1321 6.53601 73.6948 6.8476 73.3363 7.23942C72.5832 8.03602 72.1636 9.09066 72.1636 10.1869C72.1636 11.2831 72.5832 12.3378 73.3363 13.1344C73.7017 13.517 74.1408 13.8215 74.6273 14.0296C75.1137 14.2376 75.6373 14.3449 76.1663 14.3449C76.6954 14.3449 77.219 14.2376 77.7054 14.0296C78.1918 13.8215 78.631 13.517 78.9964 13.1344C79.7418 12.331 80.156 11.2756 80.156 10.1798C80.156 9.08389 79.7418 8.02851 78.9964 7.22518C78.6359 6.83586 78.1974 6.5269 77.7094 6.31848C77.2215 6.11006 76.6951 6.00686 76.1646 6.0156Z" fill="#1D1D1B"/>
<path d="M88.3921 1.12744H93.7854V11.9176C93.7854 12.7572 93.9206 13.3193 94.191 13.5968C94.4614 13.8743 94.995 14.0166 95.7919 14.0166H96.0552V19.2747H94.6321C92.666 19.2747 91.1338 18.7008 90.0357 17.5529C88.9376 16.4049 88.3885 14.8135 88.3885 12.7786L88.3921 1.12744Z" fill="#1D1D1B"/>
<path d="M103.825 1.12744V19.2712H98.4316V1.12744H103.825Z" fill="#1D1D1B"/>
<path d="M115.668 9.09643H120.809C121.854 10.3053 122.442 11.8425 122.47 13.4402C122.485 14.28 122.319 15.1131 121.983 15.8829C121.648 16.6527 121.15 17.3412 120.524 17.9015C119.225 19.106 117.507 19.7546 115.736 19.7087C114.55 19.7214 113.375 19.4768 112.293 18.9915C111.211 18.5063 110.247 17.7921 109.467 16.8982C107.754 15.0436 106.831 12.5951 106.892 10.0712C106.892 7.38166 107.766 5.14275 109.514 3.35446C110.36 2.47743 111.38 1.78606 112.508 1.32427C113.636 0.862485 114.848 0.640369 116.067 0.672034C117.082 0.693378 118.087 0.877141 119.044 1.21635V6.60611C118.322 6.23941 117.528 6.03541 116.718 6.00843C116.148 5.98664 115.58 6.08001 115.048 6.28297C114.515 6.48592 114.029 6.79428 113.619 7.18955C112.86 8.02381 112.433 9.10651 112.416 10.234C112.4 11.3616 112.796 12.4562 113.53 13.3122C113.929 13.6967 114.403 13.9953 114.921 14.1893C115.44 14.3833 115.994 14.4686 116.547 14.4399C117.351 14.4399 117.753 14.2087 117.753 13.7284C117.753 13.3727 117.49 13.1948 116.956 13.1948H115.668V9.09643Z" fill="#1D1D1B"/>
<path d="M132.097 7.60933V12.3907H130.596V19.2569H125.203V1.11316H130.596V7.5951L132.097 7.60933ZM138.391 1.12739V19.2711H133.011V1.12739H138.391Z" fill="#1D1D1B"/>
<path d="M150.462 6.33576V19.257H145.072V6.33576H140.941V1.12744H154.578V6.33576H150.462Z" fill="#1D1D1B"/>
<path d="M9.50946 5.65978V18.581H4.1197V5.65978H0V0.455017H13.6256V5.65978H9.50946Z" fill="#77B943"/>
<path d="M25.8317 7.50618V11.5405H22.3133C21.9605 11.5107 21.6068 11.5849 21.2958 11.7539C21.1915 11.839 21.1097 11.9484 21.0576 12.0724C21.0055 12.1965 20.9847 12.3315 20.9969 12.4655C20.9769 12.6065 20.9946 12.7503 21.0484 12.8822C21.1021 13.0141 21.19 13.1293 21.3029 13.2161C21.7008 13.3674 22.1273 13.4281 22.5516 13.394H26.1768V18.5739H21.9397C19.9474 18.5739 18.4248 18.0995 17.3717 17.1508C16.3187 16.2021 15.7922 14.8277 15.7922 13.0276V5.91237C15.7922 4.17982 16.2902 2.83149 17.2864 1.87806C18.2825 0.92462 19.6842 0.455017 21.4879 0.455017H26.1768V5.65978H22.7366C21.8081 5.65978 21.342 5.95862 21.342 6.56341C21.327 6.70447 21.3497 6.84699 21.4078 6.97639C21.4659 7.10579 21.5574 7.21741 21.6729 7.29984C22.0445 7.46606 22.4517 7.53698 22.8576 7.50618H25.8317Z" fill="#77B943"/>
<path d="M42.0721 9.72256L47.7145 9.86842C47.3445 12.788 46.333 15.0412 44.6799 16.6279C43.0268 18.2145 40.8732 19.0162 38.2193 19.0328C36.9641 19.065 35.7155 18.8406 34.5502 18.3732C33.3848 17.9058 32.3271 17.2054 31.442 16.3148C30.5491 15.4391 29.846 14.3889 29.3766 13.2297C28.9071 12.0704 28.6814 10.827 28.7134 9.5767C28.6843 8.31093 28.9164 7.05276 29.395 5.88063C29.8737 4.7085 30.5887 3.64754 31.4954 2.7639C32.3908 1.86141 33.4609 1.1511 34.6403 0.676413C35.8197 0.201728 37.0835 -0.0273499 38.3545 0.00320188C39.5961 -0.0298654 40.8312 0.193493 41.9826 0.659318C43.134 1.12514 44.1769 1.82343 45.0463 2.71053C46.2843 3.95806 47.1607 5.69773 47.6754 7.92953L41.8978 8.31375C41.2527 6.33335 40.0265 5.34197 38.2193 5.3396C37.6871 5.32429 37.1577 5.42304 36.6668 5.62921C36.176 5.83539 35.7349 6.14421 35.3732 6.53495C34.613 7.36153 34.2091 8.45438 34.249 9.5767C34.2127 10.6647 34.6093 11.7227 35.3518 12.5188C36.0822 13.238 37.0587 13.6524 38.0834 13.6782C39.108 13.704 40.1041 13.3391 40.8697 12.6576C41.5492 11.9745 41.9476 10.9962 42.0721 9.72256Z" fill="#77B943"/>
<path d="M50.436 18.581V6.81604C50.436 4.75264 51.0539 3.10072 52.2895 1.86031C53.5252 0.619892 55.17 0.000869921 57.2239 0.00324165C59.2707 0.00324165 60.8361 0.604478 61.92 1.80695C63.0038 3.00941 63.5458 4.74077 63.5458 7.00103V18.581H58.1525V7.00103C58.1525 5.89462 57.7611 5.33964 56.9713 5.33964C56.1816 5.33964 55.8293 5.89462 55.8293 7.00103V18.581H50.436Z" fill="#77B943"/>
<path d="M75.9618 0.00320303C77.1967 -0.0119173 78.4213 0.229072 79.5584 0.710966C80.6954 1.19286 81.7203 1.9052 82.5683 2.80304C83.6697 3.91397 84.4806 5.27915 84.9291 6.7779C85.3777 8.27665 85.4501 9.86282 85.14 11.3962C84.8299 12.9296 84.1468 14.363 83.1512 15.5697C82.1555 16.7764 80.8779 17.7192 79.4313 18.3148C77.9847 18.9105 76.4137 19.1406 74.857 18.9848C73.3004 18.829 71.806 18.2922 70.5061 17.4217C69.2063 16.5512 68.1408 15.374 67.404 13.9939C66.6672 12.6138 66.2817 11.0735 66.2816 9.5091C66.2565 8.24955 66.493 6.99849 66.9762 5.83501C67.4593 4.67154 68.1786 3.62095 69.0885 2.74967C69.9893 1.85136 71.0627 1.14487 72.244 0.672836C73.4253 0.200801 74.69 -0.0269947 75.9618 0.00320303ZM75.8017 5.3396C75.2707 5.33294 74.7443 5.43851 74.2569 5.64941C73.7695 5.86031 73.3321 6.17177 72.9734 6.56341C72.2219 7.36082 71.8034 8.41516 71.8034 9.51088C71.8034 10.6066 72.2219 11.6609 72.9734 12.4584C73.3388 12.8404 73.7778 13.1445 74.2639 13.3522C74.7499 13.56 75.2731 13.6671 75.8017 13.6671C76.3303 13.6671 76.8535 13.56 77.3396 13.3522C77.8257 13.1445 78.2647 12.8404 78.63 12.4584C79.3777 11.6562 79.7935 10.6004 79.7935 9.50377C79.7935 8.40716 79.3777 7.35134 78.63 6.54919C78.2701 6.16013 77.8321 5.85132 77.3448 5.6429C76.8575 5.43448 76.3317 5.33113 75.8017 5.3396Z" fill="#77B943"/>
<path d="M88.0327 0.455017H93.4225V11.2239C93.4225 12.0635 93.5577 12.6256 93.828 12.9031C94.0984 13.1805 94.632 13.3406 95.429 13.3406H95.6993V18.5988H94.2763C92.3125 18.5988 90.7815 18.0248 89.6834 16.8769C88.5853 15.729 88.0363 14.1375 88.0363 12.1026L88.0327 0.455017Z" fill="#BFBAA7"/>
<path d="M103.462 0.455017V18.581H98.0723V0.455017H103.462Z" fill="#BFBAA7"/>
<path d="M115.309 8.42048H120.446C121.491 9.62936 122.079 11.1666 122.107 12.7643C122.123 13.6042 121.958 14.4376 121.622 15.2075C121.286 15.9775 120.788 16.6658 120.161 17.2255C118.864 18.4323 117.144 19.0813 115.373 19.0328C114.188 19.0471 113.014 18.8038 111.932 18.3197C110.851 17.8357 109.887 17.1225 109.108 16.2294C107.394 14.3752 106.469 11.9267 106.529 9.40238C106.529 6.71284 107.404 4.47393 109.154 2.68564C110 1.80808 111.02 1.11637 112.148 0.654537C113.277 0.192709 114.489 -0.0291115 115.707 0.00320839C116.721 0.0200492 117.725 0.19901 118.681 0.533292V5.92305C117.96 5.55686 117.167 5.35287 116.358 5.32538C115.788 5.30371 115.22 5.39714 114.687 5.60007C114.154 5.80301 113.667 6.11128 113.256 6.5065C112.498 7.34119 112.071 8.42413 112.055 9.55166C112.039 10.6792 112.436 11.7736 113.171 12.6291C113.569 13.0142 114.041 13.3134 114.56 13.508C115.078 13.7026 115.631 13.7885 116.184 13.7604C116.992 13.7604 117.394 13.5256 117.394 13.0489C117.394 12.6932 117.127 12.5153 116.597 12.5153H115.309V8.42048Z" fill="#BFBAA7"/>
<path d="M131.734 6.93696V11.7184H130.233V18.5845H124.843V0.455017H130.233V6.93696H131.734ZM138.035 0.455017V18.581H132.652V0.455017H138.035Z" fill="#BFBAA7"/>
<path d="M150.102 5.65978V18.581H144.709V5.65978H140.578V0.455017H154.218V5.65978H150.102Z" fill="#BFBAA7"/>
<path d="M26.9738 30.0614L26.9987 30.008L27.1018 29.8764L27.2512 29.6914C27.5893 29.3712 27.8977 29.0212 28.1727 28.6454C28.4976 28.1988 28.7935 27.7318 29.0585 27.2473C29.1021 27.1842 29.1425 27.1189 29.1795 27.0516C29.2222 26.9734 29.272 26.8738 29.3253 26.7528C29.3262 26.7423 29.3247 26.7318 29.321 26.7219C29.3173 26.7121 29.3115 26.7032 29.304 26.6959C29.2948 26.6879 29.284 26.6819 29.2724 26.6782C29.2608 26.6745 29.2485 26.6733 29.2364 26.6745C29.1928 26.6773 29.1498 26.6857 29.1083 26.6994C29.0641 26.7112 29.0188 26.7183 28.9731 26.7208H28.1406C28.1051 26.7208 28.0481 26.7208 27.9663 26.7208H27.792L27.6675 26.6674L27.5572 26.6176C27.5119 26.6037 27.4704 26.5793 27.4362 26.5465C27.4225 26.533 27.4117 26.517 27.4044 26.4992C27.397 26.4815 27.3933 26.4625 27.3935 26.4433C27.3834 26.2227 27.4135 26.0021 27.4825 25.7923C27.543 25.6428 27.6319 25.5681 27.7564 25.5681C27.8809 25.5681 27.9983 25.5681 28.1122 25.5681C28.2101 25.5771 28.3075 25.5913 28.4039 25.6108L28.5889 25.5717C28.6908 25.5655 28.793 25.5655 28.8949 25.5717C28.9597 25.577 29.0239 25.5877 29.087 25.6037L29.2577 25.5681L29.4392 25.5325L29.6597 25.5966C29.8127 25.5788 29.9799 25.3618 30.1542 24.9455C30.3286 24.5293 30.51 24.323 30.7163 24.323C30.7621 24.3198 30.808 24.3272 30.8506 24.3445C30.8931 24.3617 30.9311 24.3884 30.9618 24.4226C31.0242 24.5065 31.0545 24.61 31.0472 24.7143C31.0403 24.8523 31.0102 24.9882 30.9583 25.1163C30.9108 25.2381 30.8762 25.3645 30.8551 25.4934C30.8657 25.512 30.8776 25.5298 30.8907 25.5468C30.9102 25.5731 30.9329 25.597 30.9583 25.6179C30.9732 25.6282 30.986 25.6413 30.9958 25.6566C31.0055 25.6719 31.0121 25.689 31.0152 25.7069C31.0274 25.7581 31.0334 25.8107 31.033 25.8634C31.0365 26.0693 31.0234 26.2751 30.9938 26.4789C30.9725 26.6212 30.9334 26.6959 30.88 26.6994L30.4282 26.7919C30.4282 26.8382 30.4282 26.8916 30.3962 26.9556C30.3641 27.0196 30.3641 27.0943 30.3428 27.1797C30.2681 27.4003 30.1827 27.6813 30.0902 28.0229C29.9977 28.3644 29.891 28.7664 29.7771 29.2324C29.706 29.5882 29.6526 29.9048 29.6135 30.1325C29.5857 30.2867 29.5667 30.4423 29.5566 30.5986C29.5522 30.6543 29.5646 30.71 29.5921 30.7587C29.6021 30.776 29.6167 30.7902 29.6343 30.7996C29.6519 30.809 29.6718 30.8133 29.6918 30.812C29.7965 30.7621 29.8936 30.6974 29.9799 30.6199C30.1436 30.4918 30.3748 30.2997 30.6737 30.0471L30.9334 30.659C30.8751 30.7209 30.8121 30.778 30.7448 30.8298C30.6541 30.9063 30.5591 30.9776 30.4602 31.0433C30.408 31.1013 30.3521 31.1559 30.293 31.2069C30.229 31.2674 30.1542 31.335 30.076 31.4168C29.9977 31.4986 29.9159 31.5911 29.8412 31.6801C29.7665 31.769 29.6846 31.858 29.6028 31.9398C29.5148 32.04 29.4101 32.1243 29.2933 32.1888C29.2043 32.2361 29.1058 32.2628 29.0051 32.2671C28.9244 32.2724 28.8434 32.2594 28.7683 32.2293C28.6932 32.1991 28.6258 32.1525 28.5711 32.0928C28.464 31.9404 28.4137 31.7554 28.4288 31.5698C28.4288 31.3101 28.4288 31.0895 28.4537 30.901C28.464 30.746 28.4939 30.593 28.5427 30.4456C28.5427 30.41 28.5711 30.378 28.5818 30.3531C28.584 30.2935 28.5899 30.2341 28.5996 30.1752C28.5996 30.0969 28.6316 30.0116 28.6494 29.9084C28.6743 29.7341 28.7027 29.5526 28.7348 29.389L28.8877 29.0332C28.8877 29.0119 28.87 28.9905 28.8344 28.9727L28.7668 29.0119C28.6913 29.1326 28.6043 29.2458 28.5071 29.3498C28.388 29.4753 28.2621 29.5941 28.13 29.7056L27.4398 30.3638C27.4167 30.3983 27.3917 30.4315 27.3651 30.4634C27.3295 30.5096 27.2904 30.563 27.2477 30.6306C27.2228 30.5772 27.1979 30.5096 27.1623 30.4278C27.1267 30.346 27.0947 30.2499 27.0591 30.1468C27.0528 30.1202 27.042 30.0949 27.0271 30.072C27.0098 30.0664 26.9919 30.0628 26.9738 30.0614Z" fill="#1D1D1B"/>
<path d="M30.6522 30.0613L30.8799 29.8621L31.0044 29.7376C31.0675 29.6783 31.1258 29.614 31.1787 29.5455C31.2165 29.4969 31.2411 29.4392 31.2499 29.3783C31.2878 29.2289 31.3341 29.0403 31.3886 28.8126C31.442 28.5885 31.5132 28.3252 31.595 28.03C31.6341 27.941 31.6804 27.8307 31.7266 27.6955C31.7729 27.5604 31.8227 27.4074 31.876 27.2402C31.9231 27.0327 31.9898 26.8302 32.0753 26.6354C32.1486 26.4644 32.2367 26.3001 32.3385 26.1444C32.3754 26.0986 32.4065 26.0485 32.431 25.995C32.463 25.9345 32.4951 25.8634 32.5271 25.7851C32.5635 25.699 32.6063 25.6158 32.6551 25.5361L32.8437 25.2017C33.0251 24.9348 33.1995 24.7072 33.324 24.5151C33.4485 24.3229 33.573 24.1593 33.6797 24.0597C33.8398 23.8676 33.9999 23.7039 34.16 23.5225C34.3201 23.341 34.4838 23.2023 34.6474 23.0636C34.7678 22.9556 34.899 22.8603 35.0387 22.7789C35.1195 22.7289 35.2109 22.6984 35.3056 22.69C35.3574 22.7308 35.4019 22.7802 35.4372 22.8359C35.469 22.841 35.5014 22.841 35.5332 22.8359C35.5841 22.8325 35.6349 22.8442 35.6792 22.8695C35.7235 22.8948 35.7593 22.9326 35.7823 22.9782C35.844 23.1053 35.8722 23.2462 35.8641 23.3873C35.8624 23.4401 35.8553 23.4925 35.8428 23.5438C35.8428 23.6079 35.825 23.6861 35.7894 23.7786C35.7578 23.8126 35.7357 23.8543 35.7254 23.8996C35.7254 23.9494 35.7005 23.9956 35.6898 24.0454C35.6866 24.0991 35.6807 24.1525 35.672 24.2055C35.6627 24.2466 35.6509 24.287 35.6364 24.3265C35.5795 24.4297 35.519 24.5613 35.4514 24.7143C35.3838 24.8673 35.3162 25.0451 35.238 25.2479C35.1953 25.3226 35.1383 25.4222 35.0743 25.5468C35.0103 25.6713 34.9285 25.8065 34.836 25.9594L34.6652 26.2725C34.5976 26.4006 34.5087 26.5464 34.4019 26.7101C34.3675 26.7842 34.3219 26.8526 34.2667 26.9129L34.0391 27.1655C33.9761 27.291 33.901 27.4102 33.8149 27.5212C33.694 27.6955 33.5232 27.9197 33.3062 28.1936C33.1995 28.3288 33.0643 28.4996 32.8935 28.7023C32.7227 28.9051 32.5377 29.147 32.3101 29.4139C32.2282 29.7447 32.1642 30.04 32.1215 30.2997C32.0821 30.5229 32.0607 30.749 32.0575 30.9756C32.0558 31.0319 32.0618 31.0882 32.0753 31.1429C32.0753 31.182 32.1073 31.1998 32.1393 31.1998C32.167 31.1606 32.1993 31.1248 32.2354 31.093C32.2815 31.0501 32.3243 31.0038 32.3634 30.9543C32.4834 30.8308 32.5831 30.6892 32.6587 30.5345C32.7725 30.3317 32.9006 30.0685 33.0465 29.7447C33.1483 29.5121 33.2672 29.2874 33.4022 29.0723C33.4643 28.9599 33.5505 28.8627 33.6548 28.7877L33.8896 28.6881L34.007 28.6419C34.0365 28.6378 34.0665 28.6378 34.096 28.6419C34.129 28.6449 34.1606 28.6564 34.188 28.675C34.2154 28.6937 34.2376 28.719 34.2525 28.7486C34.3097 28.8379 34.3507 28.9367 34.3735 29.0403C34.4304 29.2644 34.4766 29.4388 34.5122 29.5597C34.5478 29.6807 34.5691 29.7554 34.5727 29.7767C34.6165 29.8903 34.6888 29.9908 34.7826 30.0685C34.8676 30.132 34.9718 30.1647 35.0779 30.161C35.2131 30.1396 35.3767 30.1076 35.5617 30.0685C35.5973 30.1574 35.64 30.2535 35.6862 30.3531L35.8285 30.6804L35.5048 30.8867L35.1846 31.0859C35.0881 31.1319 34.9848 31.162 34.8786 31.1749C34.7243 31.1964 34.5685 31.206 34.4126 31.2033C34.2829 31.2059 34.1551 31.1715 34.0442 31.1041C33.9333 31.0367 33.8439 30.939 33.7865 30.8227C33.637 30.5665 33.5481 30.442 33.5161 30.4491H33.4414L33.2172 30.7195C33.1425 30.812 33.0643 30.9116 32.9896 31.0112C32.9294 31.1346 32.8605 31.2535 32.7832 31.367C32.6943 31.4986 32.5876 31.648 32.4666 31.8046C32.3509 31.95 32.221 32.0835 32.0788 32.203C32.0011 32.2777 31.9012 32.3251 31.7942 32.3382C31.6603 32.3422 31.5267 32.3229 31.3993 32.2813C31.359 32.2691 31.3223 32.2471 31.2925 32.2173C31.2628 32.1875 31.2408 32.1508 31.2286 32.1105C31.1752 31.865 31.1361 31.648 31.1076 31.463C31.0816 31.309 31.0673 31.1532 31.0649 30.997C31.0608 30.9615 31.0608 30.9257 31.0649 30.8903V30.8013C31.0649 30.7444 31.0934 30.6839 31.1111 30.6163C31.1171 30.6003 31.1171 30.5826 31.1111 30.5665C31.0927 30.56 31.0726 30.56 31.0542 30.5665L31.0009 30.6234C30.9728 30.6516 30.9418 30.6766 30.9084 30.6982C30.9084 30.6412 30.8586 30.5594 30.8159 30.4598C30.7732 30.3602 30.7234 30.1965 30.6522 30.0613ZM34.9676 23.9245C34.9213 23.9245 34.8217 24.0134 34.6759 24.1878C34.4778 24.4354 34.2925 24.6931 34.1209 24.9598C33.9892 25.1519 33.8647 25.3404 33.7402 25.529L33.3845 26.084C33.3385 26.1311 33.3001 26.1851 33.2706 26.244C33.2466 26.2952 33.2345 26.3512 33.235 26.4077C33.1461 26.6567 33.0572 26.888 32.9753 27.1192C32.8935 27.3505 32.8295 27.5354 32.7797 27.6635C32.7299 27.7916 32.6978 27.8699 32.6872 27.8912L32.7227 27.9232C32.8078 27.8488 32.8831 27.7639 32.9469 27.6706C33.0358 27.571 33.1425 27.4394 33.2706 27.2757C33.3987 27.1121 33.5374 26.92 33.6975 26.7101C33.8826 26.4658 34.0468 26.2063 34.1885 25.9345C34.3592 25.6215 34.5407 25.2657 34.7328 24.8673C34.8466 24.6467 34.9285 24.4688 34.9818 24.3372C35.0257 24.2489 35.0545 24.1539 35.0672 24.0561C35.0737 24.0316 35.0737 24.0059 35.0672 23.9814C35.0676 23.9694 35.065 23.9575 35.0595 23.9468C35.0541 23.936 35.046 23.9269 35.036 23.9201C35.0261 23.9134 35.0146 23.9093 35.0026 23.9082C34.9907 23.9071 34.9786 23.909 34.9676 23.9138V23.9245Z" fill="#1D1D1B"/>
<path d="M35.5262 30.0613C35.5864 29.9617 35.6555 29.8676 35.7325 29.7803C35.8301 29.6724 35.9372 29.5735 36.0527 29.485C36.0527 29.3961 36.0776 29.3071 36.0918 29.2217C36.1061 29.1364 36.1132 29.0474 36.1203 28.9585C36.1349 28.8847 36.1551 28.8122 36.1808 28.7415C36.2092 28.6561 36.2413 28.5636 36.2768 28.4675C36.3124 28.3715 36.3729 28.247 36.4405 28.1118C36.5202 27.9426 36.6105 27.7787 36.7109 27.6208C36.8034 27.5212 36.8994 27.4074 37.0026 27.2864L37.3085 26.9307C37.358 26.8902 37.4104 26.8534 37.4651 26.8204C37.5262 26.7845 37.5845 26.7441 37.6394 26.6994C37.6979 26.681 37.7572 26.6656 37.8173 26.6532C37.8899 26.6384 37.9638 26.6313 38.0378 26.6318C38.1292 26.6305 38.2203 26.6424 38.3082 26.6674C38.3734 26.6874 38.4314 26.7257 38.4754 26.7777C38.5139 26.8256 38.544 26.8798 38.5644 26.9378C38.5976 27.0227 38.6261 27.1094 38.6498 27.1975C38.6498 27.2864 38.6782 27.3825 38.696 27.4892C38.696 27.4643 38.696 27.4892 38.6711 27.5248C38.6462 27.5603 38.632 27.6493 38.6035 27.756L38.543 27.9695C38.4473 28.2376 38.3052 28.4869 38.1232 28.7059C37.8523 29.0433 37.56 29.363 37.2481 29.6629C37.2144 29.6958 37.1867 29.7343 37.1662 29.7767C37.1449 29.8236 37.1339 29.8746 37.1342 29.9262C37.1332 30.0106 37.1502 30.0943 37.184 30.1716C37.2139 30.2383 37.2636 30.2942 37.3263 30.3317C37.3789 30.3673 37.4364 30.3949 37.4971 30.4135C37.587 30.4424 37.6784 30.4662 37.771 30.4847C37.9313 30.4729 38.0899 30.4443 38.2442 30.3993C38.3746 30.3579 38.5009 30.3043 38.6213 30.2392L38.728 30.1823C38.7798 30.1553 38.8287 30.1231 38.8739 30.0862L39.0269 30.442C39.0743 30.5464 39.1099 30.6353 39.1336 30.7088C38.926 30.9207 38.6957 31.1092 38.447 31.2709C38.2779 31.3843 38.0811 31.4495 37.8778 31.4595C37.8028 31.5042 37.7211 31.5366 37.6358 31.5555C37.5303 31.5753 37.423 31.5848 37.3157 31.584C37.1667 31.5862 37.0186 31.5621 36.8781 31.5128C36.7585 31.4672 36.6512 31.3941 36.565 31.2994C36.5101 31.2415 36.4645 31.1755 36.4298 31.1037C36.3871 31.0183 36.3409 30.9152 36.2911 30.7942C36.2616 30.7177 36.2234 30.6449 36.1772 30.5772C36.1646 30.5573 36.1473 30.5407 36.1268 30.5289C36.1064 30.5172 36.0834 30.5105 36.0598 30.5096C36.0149 30.5115 35.9721 30.5292 35.9389 30.5594C35.8842 30.6029 35.8352 30.6531 35.793 30.7088C35.7685 30.6248 35.7376 30.5427 35.7005 30.4634C35.6543 30.3175 35.5973 30.1965 35.5262 30.0613ZM37.6607 27.9019C37.5611 27.9019 37.4331 28.03 37.2694 28.2861C37.1427 28.4491 37.0583 28.641 37.0239 28.8446C37.0168 28.8629 37.0168 28.8833 37.0239 28.9016C37.047 28.9097 37.0721 28.9097 37.0951 28.9016C37.1196 28.9009 37.1435 28.8936 37.1641 28.8805C37.1848 28.8673 37.2015 28.8488 37.2125 28.8269L37.3014 28.681C37.3515 28.6363 37.399 28.5888 37.4437 28.5387L37.5789 28.3893C37.6278 28.3336 37.6685 28.2714 37.6999 28.2043C37.7247 28.1457 37.738 28.0829 37.739 28.0193C37.7393 27.9862 37.7294 27.9539 37.7105 27.9268C37.7045 27.9168 37.6962 27.9084 37.6863 27.9022C37.6764 27.8961 37.6652 27.8923 37.6536 27.8912L37.6607 27.9019Z" fill="#1D1D1B"/>
<path d="M42.314 29.4388C42.3015 29.4008 42.2944 29.3613 42.2927 29.3214C42.2911 29.2941 42.2911 29.2668 42.2927 29.2396C42.2898 29.113 42.3079 28.9868 42.346 28.866C42.3787 28.7672 42.4334 28.6772 42.5061 28.6027C42.5468 28.5698 42.5925 28.5434 42.6413 28.5245C42.7125 28.4889 42.8085 28.4462 42.9295 28.3964C43.0064 28.3638 43.0755 28.3153 43.1323 28.2541C43.1836 28.1989 43.2127 28.1267 43.2141 28.0513C43.234 27.9775 43.2614 27.906 43.2959 27.8379C43.3362 27.7596 43.3825 27.6742 43.4347 27.5817C43.4963 27.4318 43.5498 27.2786 43.5948 27.1228C43.6849 26.8406 43.8094 26.4314 43.9683 25.8954C44.0045 25.7509 44.0484 25.6083 44.0999 25.4685C44.1426 25.3475 44.1818 25.2479 44.2138 25.1626C44.3003 24.9017 44.4199 24.6531 44.5695 24.4226C44.6597 24.304 44.7273 24.2079 44.7723 24.1344V24.0988L44.566 23.7751L44.8257 23.4763L45.1565 23.4087C45.2241 23.4087 45.2846 23.3375 45.338 23.2237C45.4139 23.0828 45.5124 22.9554 45.6297 22.8466C45.682 22.8226 45.732 22.794 45.7791 22.7612C45.8467 22.7149 45.9357 22.6509 46.0424 22.5655C46.1165 22.5035 46.1963 22.4487 46.2807 22.4019C46.327 22.3725 46.3793 22.3543 46.4337 22.3485C46.5248 22.3413 46.6155 22.3665 46.6899 22.4196C46.7164 22.444 46.7375 22.4737 46.7516 22.5069C46.7657 22.54 46.7725 22.5758 46.7717 22.6118C46.7525 22.7635 46.7003 22.9093 46.6187 23.0387C46.5357 23.1661 46.4834 23.311 46.4657 23.462C46.4645 23.5007 46.4744 23.539 46.4942 23.5723C46.5125 23.5973 46.537 23.6169 46.5654 23.6292L47.3623 24.0597C47.405 24.0775 47.4441 24.1486 47.4797 24.2696C47.5229 24.434 47.5514 24.6018 47.565 24.7712C47.5935 24.9455 47.6149 25.095 47.6291 25.2124C47.6416 25.3056 47.6487 25.3994 47.6504 25.4934C47.622 25.682 47.5899 25.8776 47.5579 26.0697C47.6042 26.3188 47.6504 26.5785 47.7038 26.8524C47.6789 27.1157 47.6504 27.3789 47.6184 27.6493C47.6183 27.6741 47.6244 27.6986 47.6362 27.7205C47.6409 27.7301 47.6479 27.7384 47.6566 27.7446C47.6653 27.7508 47.6754 27.7547 47.686 27.756C47.7473 27.7549 47.8068 27.7765 47.8532 27.8165C47.8726 27.8353 47.8877 27.8581 47.8975 27.8833C47.9073 27.9084 47.9116 27.9354 47.9101 27.9624C47.9135 28.0272 47.9013 28.0918 47.8746 28.1509C47.8509 28.1964 47.8152 28.2346 47.7714 28.2612L47.6362 28.3537C47.6109 28.3746 47.5872 28.3972 47.565 28.4213L47.654 28.834L47.533 29.7768C47.5315 29.8791 47.5243 29.9812 47.5117 30.0827C47.5117 30.2072 47.4797 30.3495 47.4548 30.5132C47.4299 30.6768 47.3765 30.7338 47.3551 30.812C47.3388 30.8643 47.3269 30.9178 47.3196 30.9721C47.3443 31.0515 47.3645 31.1323 47.38 31.214C47.3551 31.3314 47.3267 31.4524 47.2982 31.5698C47.2698 31.6872 47.2413 31.8081 47.2164 31.9255C47.1836 32.0585 47.1175 32.1809 47.0243 32.2813C46.9474 32.351 46.847 32.3891 46.7432 32.388C46.717 32.389 46.6911 32.3824 46.6684 32.3692C46.6457 32.356 46.6273 32.3366 46.6152 32.3133C46.5826 32.2421 46.5679 32.1639 46.5725 32.0856C46.5745 32.02 46.5817 31.9545 46.5938 31.89C46.6087 31.827 46.6171 31.7626 46.6187 31.6979C46.6227 31.6565 46.6227 31.6148 46.6187 31.5733C46.6157 31.5271 46.6157 31.4808 46.6187 31.4346C46.6187 31.3101 46.6187 31.1109 46.6543 30.8369C46.6899 30.563 46.6899 30.3602 46.6899 30.225C46.6685 30.1468 46.6472 30.072 46.6223 29.9902C46.6233 29.895 46.6174 29.7999 46.6045 29.7056C46.61 29.6251 46.61 29.5442 46.6045 29.4637L46.7041 29.2858L46.6187 28.6668L46.5725 28.6454C46.5317 28.6486 46.4918 28.6595 46.4551 28.6775C46.3892 28.7032 46.326 28.7353 46.2665 28.7735C46.1846 28.7971 46.1015 28.8161 46.0175 28.8304C45.869 28.8523 45.7193 28.8642 45.5692 28.866L45.3415 28.9727C45.2108 29.0024 45.0823 29.0416 44.9573 29.0901C44.8008 29.1435 44.6229 29.2111 44.4166 29.2929C44.31 29.344 44.2008 29.3891 44.0893 29.4281C44.0091 29.4568 43.9252 29.4736 43.8402 29.4779C43.8146 29.4769 43.789 29.4819 43.7656 29.4924C43.7421 29.5029 43.7214 29.5186 43.7051 29.5384C43.6641 29.5881 43.6349 29.6465 43.6197 29.7092C43.5966 29.8091 43.5644 29.9068 43.5236 30.0009C43.4738 30.1254 43.4062 30.2819 43.3208 30.4669C43.303 30.5167 43.2781 30.5914 43.2461 30.6946C43.2141 30.7978 43.1821 30.9223 43.143 31.0717C43.1145 31.1286 43.0825 31.2034 43.0469 31.2887C43.0113 31.3741 42.9722 31.4737 42.9295 31.5911C42.9278 31.6567 42.9218 31.722 42.9117 31.7868C42.9117 31.8651 42.8832 31.954 42.8619 32.0536C42.8406 32.1532 42.8121 32.1959 42.773 32.292C42.7338 32.388 42.6876 32.4912 42.6307 32.6086C42.598 32.6751 42.5442 32.7289 42.4777 32.7616C42.3964 32.7989 42.3073 32.816 42.218 32.8114C42.1851 32.8135 42.1522 32.8078 42.1219 32.7948C42.0916 32.7819 42.0648 32.7619 42.0436 32.7367C41.9954 32.6684 41.9727 32.5852 41.9796 32.5019C41.9817 32.3694 41.9948 32.2373 42.0187 32.107C42.0498 31.9405 42.0926 31.7765 42.1468 31.616C42.2073 31.3812 42.2607 31.1927 42.3034 31.0468C42.3408 30.941 42.3658 30.8311 42.3781 30.7195C42.3781 30.6911 42.4101 30.6341 42.4385 30.5559L42.531 30.2642C42.5702 30.1503 42.6093 30.0258 42.6449 29.8835L42.6093 29.8301L42.3994 29.8657C42.3781 29.8647 42.3573 29.8588 42.3388 29.8483C42.3202 29.8377 42.3044 29.823 42.2927 29.8052C42.2669 29.7637 42.2545 29.7153 42.2571 29.6665C42.2539 29.6322 42.2539 29.5976 42.2571 29.5633C42.2856 29.5384 42.2962 29.4922 42.314 29.4388ZM44.7296 28.215C44.8811 28.2069 45.0314 28.183 45.1779 28.1438C45.3253 28.1023 45.4768 28.0772 45.6297 28.0691C45.6919 28.0832 45.7549 28.0939 45.8183 28.1011C45.9285 28.0798 46.0353 28.0549 46.142 28.0264L46.4693 27.9482C46.5072 27.9434 46.5424 27.9258 46.5689 27.8983C46.591 27.8713 46.6024 27.8372 46.6009 27.8023C46.6009 27.6707 46.6009 27.5782 46.6009 27.5319C46.6009 27.4857 46.6009 27.354 46.6187 27.2473C46.6365 27.1406 46.6472 27.0374 46.6685 26.9271L46.5903 26.6283L46.6152 26.3544C46.5974 26.2583 46.5831 26.1658 46.5725 26.0804C46.5637 26.0083 46.5637 25.9355 46.5725 25.8634C46.5725 25.8634 46.5476 25.8172 46.5262 25.778L46.4515 25.6499C46.4088 25.5752 46.3626 25.5041 46.3163 25.4365C46.2701 25.3689 46.2238 25.2977 46.1811 25.2266C46.1287 25.1514 46.0608 25.0883 45.9819 25.0416C45.9153 25.0016 45.839 24.9807 45.7613 24.9811C45.6724 24.9811 45.5835 25.0523 45.491 25.1946C45.3707 25.394 45.283 25.6114 45.2313 25.8385C45.2313 25.8741 45.1815 25.9452 45.121 26.0555C45.0605 26.1658 44.9751 26.3117 44.8648 26.4895C44.8332 26.7051 44.7734 26.9156 44.6869 27.1157C44.5597 27.4157 44.4172 27.709 44.26 27.9944C44.2426 28.0189 44.2305 28.0468 44.2245 28.0762C44.2225 28.1011 44.2225 28.1261 44.2245 28.1509C44.2234 28.1633 44.2251 28.1758 44.2294 28.1875C44.2337 28.1992 44.2405 28.2098 44.2494 28.2185C44.2578 28.2278 44.2684 28.2349 44.2801 28.2392C44.2919 28.2436 44.3045 28.245 44.317 28.2434C44.3892 28.2471 44.4617 28.2471 44.534 28.2434L44.7296 28.215Z" fill="#1D1D1B"/>
<path d="M48.2659 30.0614C48.337 29.9689 48.4082 29.8728 48.4793 29.7696C48.7659 29.5348 49.0314 29.2753 49.2727 28.9941C49.4517 28.786 49.6024 28.5551 49.7209 28.3075L49.6533 27.9908C49.7629 27.8277 49.9091 27.6925 50.0802 27.596C50.2412 27.4718 50.4332 27.3943 50.6352 27.3718C50.7751 27.3673 50.9118 27.4141 51.0195 27.5035C51.1226 27.5924 51.2222 27.6849 51.3183 27.7845C51.3558 27.8052 51.3915 27.829 51.425 27.8557C51.608 27.9974 51.7463 28.1888 51.8235 28.4071C51.9198 28.6824 51.9656 28.9729 51.9587 29.2645C51.9354 29.5284 51.8656 29.7862 51.7523 30.0258C51.6385 30.2601 51.5686 30.5133 51.546 30.7729C51.5456 30.7831 51.5476 30.7933 51.5519 30.8026C51.5563 30.8119 51.5628 30.82 51.5709 30.8262C51.5887 30.8383 51.6098 30.8446 51.6314 30.844C51.7057 30.8386 51.7771 30.8127 51.8377 30.7693C51.9307 30.7077 52.0176 30.6374 52.0974 30.5594C52.2277 30.421 52.3693 30.2937 52.5208 30.1788C52.5852 30.1434 52.646 30.1016 52.7022 30.0542C52.7378 30.1432 52.7805 30.2392 52.8267 30.3389C52.873 30.4385 52.9228 30.5523 52.9655 30.6662L52.8303 30.7907C52.7805 30.8405 52.72 30.8974 52.6488 30.9579C52.4994 31.0682 52.2931 31.2034 52.0618 31.3599C51.8306 31.5164 51.5317 31.7156 51.1938 31.9006C51.0984 31.9602 50.9955 32.0069 50.8878 32.0394C50.7444 32.0477 50.6012 32.0196 50.4716 31.9576C50.4249 31.9304 50.3868 31.8906 50.3616 31.8428C50.3365 31.795 50.3253 31.7411 50.3293 31.6872C50.3312 31.6301 50.342 31.5737 50.3613 31.52C50.3826 31.4478 50.41 31.3776 50.4431 31.3101L50.5285 31.1322C50.5615 31.0745 50.5889 31.0137 50.6103 30.9508C50.7001 30.6971 50.7737 30.4381 50.8309 30.1752C50.8801 29.964 50.9064 29.7481 50.9092 29.5313C50.9187 29.3446 50.8807 29.1586 50.7989 28.9905C50.7648 28.9321 50.7174 28.8826 50.6605 28.8462C50.6036 28.8097 50.5389 28.7872 50.4716 28.7806C50.3574 28.8441 50.2501 28.9192 50.1514 29.0048C50.0237 29.1138 49.9047 29.2328 49.7956 29.3605C49.6844 29.4975 49.5656 29.6281 49.4399 29.7519C49.3658 29.8322 49.2808 29.9016 49.1873 29.9582C49.1337 30.0412 49.069 30.1166 48.9952 30.1823C48.8842 30.2831 48.7652 30.3747 48.6394 30.4563L48.6003 30.5345C48.5764 30.5788 48.5465 30.6195 48.5113 30.6555C48.4775 30.5527 48.4383 30.4518 48.3939 30.3531C48.3833 30.2606 48.3192 30.1574 48.2659 30.0614Z" fill="#1D1D1B"/>
<path d="M52.6951 30.0614L52.72 30.008L52.8231 29.8764L52.9726 29.6914C53.3106 29.3712 53.619 29.0212 53.894 28.6454C54.2189 28.1988 54.5148 27.7318 54.7798 27.2473C54.8235 27.1842 54.8638 27.1189 54.9008 27.0516C54.9435 26.9734 54.9933 26.8738 55.0466 26.7528C55.0475 26.7423 55.046 26.7318 55.0424 26.7219C55.0387 26.7121 55.0328 26.7032 55.0253 26.6959C55.0166 26.6882 55.0065 26.6823 54.9955 26.6786C54.9845 26.6749 54.9728 26.6736 54.9613 26.6745C54.9165 26.6769 54.8722 26.6853 54.8296 26.6994C54.7855 26.7114 54.7401 26.7186 54.6944 26.7208H53.862C53.8264 26.7208 53.7695 26.7208 53.6876 26.7208H53.5133L53.3888 26.6674L53.2785 26.6176C53.2332 26.6037 53.1917 26.5793 53.1576 26.5465C53.1439 26.533 53.133 26.517 53.1257 26.4992C53.1183 26.4815 53.1147 26.4625 53.1149 26.4433C53.1047 26.2227 53.1349 26.0021 53.2038 25.7923C53.2643 25.6428 53.3532 25.5681 53.4777 25.5681C53.6023 25.5681 53.7197 25.5681 53.8335 25.5681C53.9314 25.5771 54.0288 25.5913 54.1252 25.6108L54.3102 25.5717C54.4121 25.5655 54.5143 25.5655 54.6162 25.5717C54.681 25.577 54.7452 25.5877 54.8083 25.6037L54.9791 25.5681L55.1605 25.5325L55.3811 25.5966C55.534 25.5788 55.7012 25.3618 55.8756 24.9455C56.0499 24.5293 56.2313 24.323 56.4377 24.323C56.4835 24.3198 56.5294 24.3272 56.5719 24.3445C56.6144 24.3617 56.6525 24.3884 56.6831 24.4226C56.7455 24.5065 56.7758 24.61 56.7685 24.7143C56.7616 24.8523 56.7315 24.9882 56.6796 25.1163C56.6321 25.2381 56.5975 25.3645 56.5764 25.4934C56.587 25.512 56.5989 25.5298 56.612 25.5468C56.6316 25.5731 56.6543 25.597 56.6796 25.6179C56.6946 25.6282 56.7073 25.6413 56.7171 25.6566C56.7269 25.6719 56.7335 25.689 56.7365 25.7069C56.7487 25.7581 56.7547 25.8107 56.7543 25.8634C56.7578 26.0693 56.7448 26.2751 56.7152 26.4789C56.6938 26.6212 56.6547 26.6959 56.6013 26.6994L56.1495 26.7919C56.1495 26.8382 56.1317 26.8916 56.1175 26.9556C56.1032 27.0196 56.0855 27.0943 56.0641 27.1797C55.9894 27.4003 55.904 27.6813 55.8115 28.0229C55.719 28.3644 55.6123 28.7664 55.4985 29.2324C55.4273 29.5882 55.3739 29.9048 55.3348 30.1325C55.307 30.2867 55.288 30.4423 55.2779 30.5986C55.2736 30.6543 55.286 30.71 55.3135 30.7587C55.3234 30.776 55.338 30.7902 55.3556 30.7996C55.3732 30.809 55.3931 30.8133 55.4131 30.812C55.5179 30.7621 55.6149 30.6974 55.7012 30.6199C55.8649 30.4918 56.0961 30.2997 56.395 30.0471L56.6547 30.659C56.5965 30.7209 56.5334 30.778 56.4661 30.8298C56.3754 30.9063 56.2804 30.9776 56.1815 31.0433C56.1293 31.1013 56.0734 31.1559 56.0143 31.2069C55.9503 31.2674 55.8756 31.335 55.7973 31.4168C55.719 31.4986 55.6372 31.5911 55.5625 31.6801C55.4878 31.769 55.406 31.858 55.3241 31.9398C55.2361 32.04 55.1314 32.1243 55.0146 32.1888C54.9256 32.2361 54.8271 32.2628 54.7265 32.2671C54.6457 32.2724 54.5647 32.2594 54.4896 32.2293C54.4145 32.1991 54.3471 32.1525 54.2924 32.0928C54.1853 31.9404 54.135 31.7554 54.1501 31.5698C54.1501 31.3101 54.1501 31.0895 54.175 30.901C54.1853 30.746 54.2152 30.593 54.264 30.4456C54.2818 30.41 54.2924 30.378 54.3031 30.3531C54.3053 30.2935 54.3112 30.2341 54.3209 30.1752C54.3209 30.0969 54.3529 30.0116 54.3707 29.9084C54.3956 29.7341 54.4241 29.5526 54.4561 29.389L54.6091 29.0332C54.6091 29.0119 54.5913 28.9905 54.5557 28.9727L54.4881 29.0119C54.4126 29.1326 54.3256 29.2458 54.2284 29.3498C54.1102 29.4762 53.9843 29.595 53.8513 29.7056L53.1611 30.3638C53.138 30.3983 53.1131 30.4315 53.0864 30.4634C53.0508 30.5096 53.0117 30.563 52.969 30.6306C52.9441 30.5772 52.9192 30.5096 52.8836 30.4278C52.848 30.346 52.816 30.2499 52.7804 30.1468C52.7741 30.1202 52.7633 30.0949 52.7484 30.072C52.7311 30.0664 52.7132 30.0628 52.6951 30.0614Z" fill="#1D1D1B"/>
<path d="M59.7677 30.0614C59.804 30.0247 59.8362 29.9841 59.8638 29.9404C59.8997 29.8813 59.9389 29.8243 59.9812 29.7696L60.4899 29.4139C60.5804 29.3125 60.6766 29.2163 60.7781 29.1257L61.2548 28.6953C61.2855 28.6358 61.3225 28.5797 61.3651 28.528C61.4189 28.4592 61.4797 28.396 61.5465 28.3395C61.6105 28.279 61.671 28.2256 61.7315 28.1758C61.792 28.126 61.8525 28.0762 61.9058 28.0264C61.9592 27.9766 62.0339 27.8948 62.0944 27.8272C62.1549 27.7596 62.2153 27.6956 62.2794 27.6351C62.3435 27.5753 62.4168 27.5261 62.4964 27.4892C62.5731 27.4531 62.657 27.4349 62.7418 27.4359C62.8182 27.4315 62.8947 27.4436 62.966 27.4714C62.9875 27.4799 63.0064 27.4939 63.0207 27.5121C63.0351 27.5302 63.0444 27.5517 63.0478 27.5746C63.0051 27.6778 62.9589 27.7774 62.9091 27.8806L62.9482 27.941C63.1439 27.8628 63.304 27.8094 63.4071 27.7738C63.476 27.7479 63.5476 27.73 63.6206 27.7205C63.7537 27.7132 63.8868 27.736 64.01 27.7871C64.1331 27.8382 64.2432 27.9163 64.3321 28.0157C64.512 28.2772 64.5973 28.5922 64.574 28.9087C64.5733 28.9982 64.565 29.0875 64.5491 29.1755C64.5289 29.2881 64.4992 29.3988 64.4602 29.5064C64.4266 29.6221 64.3788 29.7332 64.3179 29.8372C64.2807 29.9094 64.2327 29.9753 64.1756 30.0329C64.1878 30.0767 64.2083 30.1178 64.236 30.1539C64.2467 30.1658 64.2599 30.1752 64.2747 30.1814C64.2895 30.1875 64.3054 30.1903 64.3214 30.1894C64.3603 30.1884 64.3983 30.1773 64.4317 30.1574C64.4801 30.1291 64.5254 30.0957 64.5669 30.0578C64.6131 30.1539 64.6558 30.257 64.6985 30.3602L64.8266 30.6697L64.5954 30.8761C64.5207 30.9401 64.4388 31.0041 64.357 31.0682C64.2702 31.144 64.1717 31.2053 64.0653 31.2496C63.9813 31.2871 63.8904 31.3065 63.7985 31.3065C63.7088 31.3102 63.6204 31.2852 63.5459 31.2354C63.4751 31.1821 63.4198 31.1108 63.3858 31.029C63.2692 31.1794 63.1341 31.3145 62.9838 31.431C62.8239 31.553 62.6494 31.6546 62.4644 31.7334C62.3505 31.7832 62.2509 31.8259 62.162 31.8544C62.0815 31.8809 61.9976 31.8953 61.9129 31.8971C61.8682 31.9018 61.824 31.9114 61.7813 31.9256C61.7305 31.9409 61.6778 31.9493 61.6248 31.9505C61.4952 31.9481 61.3675 31.9187 61.2498 31.8642C61.1322 31.8097 61.0273 31.7312 60.9417 31.6338C60.7496 31.4465 60.6396 31.1906 60.6358 30.9223C60.6419 30.7785 60.667 30.6361 60.7105 30.499C60.7415 30.3976 60.7653 30.2942 60.7816 30.1894C60.7815 30.1619 60.7714 30.1354 60.7532 30.1147C60.7416 30.1044 60.7281 30.0966 60.7134 30.0917C60.6987 30.0868 60.6832 30.085 60.6678 30.0863C60.6088 30.1073 60.5553 30.1413 60.5112 30.1859C60.4259 30.2499 60.3049 30.346 60.1555 30.4705C60.1375 30.495 60.122 30.5212 60.1092 30.5488C60.0855 30.5922 60.0569 30.6328 60.0238 30.6697C59.9883 30.5665 59.9456 30.4634 59.9029 30.3602C59.8634 30.2582 59.8183 30.1584 59.7677 30.0614ZM62.9695 28.8447C62.9328 28.8613 62.9001 28.8856 62.8735 28.9158C62.8267 28.9635 62.7849 29.016 62.749 29.0724C62.6897 29.1767 62.6185 29.287 62.5355 29.4032C62.4925 29.4536 62.4406 29.4958 62.3825 29.5277C62.3216 29.5575 62.257 29.5791 62.1904 29.5918C62.1477 29.5918 62.1015 29.6345 62.0517 29.7198C61.9899 29.8326 61.9409 29.9519 61.9058 30.0756C61.862 30.1915 61.8263 30.3104 61.7991 30.4314C61.7797 30.5118 61.769 30.5941 61.7671 30.6768C61.7621 30.7267 61.7686 30.777 61.7861 30.8239C61.8037 30.8708 61.8317 30.9131 61.8681 30.9474C61.9046 30.9818 61.9484 31.0073 61.9963 31.0221C62.0441 31.0369 62.0947 31.0405 62.1442 31.0326C62.3442 31.0354 62.5403 30.9771 62.7063 30.8654C62.8982 30.7289 63.0613 30.5561 63.1865 30.3566L63.3858 30.1183C63.4261 30.0827 63.4567 30.0374 63.4747 29.9867C63.5004 29.9145 63.5218 29.8408 63.5388 29.7661L63.6597 29.3854C63.6289 29.2786 63.5909 29.174 63.5459 29.0724C63.5264 29.0147 63.489 28.9649 63.4391 28.9301C63.3931 28.9082 63.3438 28.8938 63.2933 28.8874C63.1863 28.8641 63.0783 28.8462 62.9695 28.834V28.8447Z" fill="#1D1D1B"/>
<path d="M64.5775 30.0613C64.5979 30.0256 64.6205 29.9911 64.6451 29.9582L64.7483 29.823C64.855 29.6664 64.944 29.5348 65.0151 29.421C65.0863 29.3071 65.1361 29.2217 65.1681 29.1577C65.2285 29.0439 65.2785 28.9248 65.3175 28.8019C65.355 28.6758 65.3847 28.5475 65.4064 28.4177C65.5072 27.7269 65.6631 27.0452 65.8725 26.3792C66.0931 25.6535 66.3741 24.872 66.7156 24.0348C66.809 23.7927 66.9439 23.5688 67.1141 23.373C67.1682 23.3084 67.2349 23.2555 67.3101 23.2176C67.3854 23.1797 67.4676 23.1575 67.5517 23.1525C67.6488 23.1476 67.7452 23.1711 67.8292 23.2201C67.8663 23.2461 67.8977 23.2794 67.9215 23.3179C67.9454 23.3564 67.9612 23.3994 67.9679 23.4442C67.9818 23.5122 67.9901 23.5812 67.9928 23.6505C67.9928 23.7466 67.9928 23.8747 67.9928 24.0276C67.9928 24.0632 67.9572 24.3798 67.8861 24.9775C67.8149 25.2764 67.7153 25.6428 67.5872 26.0839C67.4592 26.5251 67.2991 27.0338 67.1105 27.6137C67.0643 27.6955 67.0145 27.7951 66.9575 27.9197C66.9006 28.0442 66.8295 28.1936 66.7441 28.3644C66.7266 28.4047 66.7123 28.4463 66.7014 28.4889C66.7014 28.5387 66.6623 28.5956 66.6374 28.6561C66.5965 28.7024 66.5618 28.7538 66.5342 28.8091C66.4986 28.8802 66.4524 28.9691 66.4061 29.0759C66.3107 29.3829 66.2335 29.6954 66.1749 30.0115C66.1037 30.3886 66.0361 30.8333 65.9721 31.3456C65.9081 31.8579 65.8618 32.2884 65.8333 32.637C65.8013 33.0177 65.7871 33.3485 65.7871 33.626C65.7871 33.7328 65.7871 33.8431 65.8156 33.9569C65.8219 34.0634 65.8361 34.1692 65.8583 34.2735C65.8583 34.3447 65.8938 34.3838 65.9187 34.3838C65.9436 34.3838 66.0788 34.2451 66.2105 33.9747C66.3421 33.7043 66.5093 33.2916 66.7156 32.7473L66.6979 32.6157C66.7156 32.5765 66.7405 32.5232 66.7726 32.4627C66.8225 32.3798 66.8596 32.2898 66.8828 32.1959C66.9931 31.8401 67.075 31.5662 67.1283 31.367C67.1558 31.2539 67.1891 31.1423 67.2279 31.0326C67.2902 30.8526 67.3713 30.6797 67.4698 30.5167C67.5677 30.3476 67.6796 30.1869 67.8043 30.0364C67.8642 30.152 67.9176 30.2707 67.9644 30.3922C68.0035 30.4954 68.0391 30.5807 68.0711 30.6519C68 30.7459 67.9392 30.8473 67.8896 30.9543C67.8301 31.0833 67.7836 31.218 67.7509 31.3563C67.7118 31.4808 67.6762 31.6053 67.6477 31.737C67.6193 31.8686 67.5908 31.9931 67.5588 32.1141C67.3791 32.8271 67.1618 33.5301 66.9077 34.2202C66.7556 34.6597 66.5526 35.08 66.303 35.4724C66.2705 35.5332 66.2337 35.5914 66.1927 35.6468L66.0788 35.8104C66.0293 35.8637 65.9731 35.9103 65.9116 35.9492C65.8577 35.9811 65.7964 35.9983 65.7337 35.999C65.572 36.0075 65.4119 35.9625 65.2784 35.8709C65.1583 35.7766 65.0752 35.6431 65.0436 35.4938C65.0187 35.3515 65.0009 35.2092 64.9866 35.0704C64.9724 34.9317 64.9546 34.7929 64.9368 34.6577C64.9092 34.567 64.8889 34.4742 64.8764 34.3803C64.8614 34.2754 64.8543 34.1696 64.855 34.0636V33.0568C64.8586 32.9801 64.8694 32.9039 64.887 32.8291C64.9024 32.7529 64.9119 32.6756 64.9155 32.5979C64.8906 32.4627 64.8621 32.3311 64.8372 32.1923C64.8123 32.0536 64.8728 31.8366 64.9048 31.6089C64.9368 31.3812 64.9795 31.1037 65.0293 30.8049L64.855 30.6519C64.8247 30.5713 64.7891 30.4929 64.7483 30.4171C64.7056 30.3175 64.6487 30.1989 64.5775 30.0613ZM67.1924 25.6001C67.1786 25.6007 67.1655 25.606 67.1551 25.615C67.1448 25.6241 67.1378 25.6364 67.1354 25.6499L67.0856 25.7922C67.0782 25.8533 67.0627 25.9131 67.0394 25.9701C67.0145 26.0448 66.9789 26.1409 66.9327 26.2547C66.8864 26.3685 66.8722 26.4397 66.8508 26.5108C66.833 26.5685 66.8235 26.6284 66.8224 26.6887L66.8686 26.7421L66.9682 26.6425C66.9741 26.5666 66.9921 26.4921 67.0216 26.4219C67.0568 26.329 67.0984 26.2386 67.1461 26.1515C67.1834 26.0727 67.2167 25.9919 67.2457 25.9096C67.2647 25.857 67.2755 25.8018 67.2777 25.746C67.2798 25.7072 67.2738 25.6684 67.2599 25.6321C67.2539 25.6193 67.2443 25.6085 67.2323 25.601C67.2204 25.5934 67.2065 25.5894 67.1924 25.5894V25.6001Z" fill="#1D1D1B"/>
<path d="M71.184 30.0614L71.2231 30.0151L71.2444 29.9475C71.432 29.7132 71.643 29.4986 71.8741 29.3072C72.1053 29.1169 72.3152 28.9022 72.5003 28.6668C72.536 28.6026 72.589 28.5496 72.6532 28.5138C72.7054 28.4843 72.7641 28.4684 72.824 28.4676C72.9638 28.4629 73.1012 28.5042 73.2153 28.585C73.329 28.6722 73.4053 28.7994 73.4288 28.9407C73.4608 29.0759 73.4893 29.2147 73.5142 29.3534C73.5391 29.4922 73.564 29.6345 73.5818 29.7768C73.6138 29.8657 73.6494 30.0009 73.6956 30.1788C73.7131 30.2864 73.7467 30.3907 73.7952 30.4883C73.8161 30.531 73.8514 30.565 73.8948 30.5843C73.9471 30.6043 74.0026 30.6139 74.0585 30.6128C74.1421 30.6125 74.2251 30.598 74.304 30.5701C74.3987 30.536 74.4866 30.4854 74.5637 30.4207C74.6313 30.3638 74.6989 30.3033 74.7736 30.2464L74.9906 30.0685L75.2539 30.6804C75.1649 30.7663 75.071 30.8471 74.9728 30.9223C74.8554 31.0148 74.7131 31.118 74.5494 31.2389C74.4032 31.3493 74.2486 31.448 74.087 31.5342C73.9974 31.586 73.8981 31.6187 73.7952 31.6303C73.5253 31.6586 73.2529 31.6105 73.009 31.4915C72.818 31.2659 72.6817 30.9993 72.6106 30.7124C72.5885 30.6685 72.5623 30.6268 72.5323 30.5879L72.4113 30.4136C72.3712 30.3341 72.3248 30.258 72.2726 30.1859C72.2335 30.1325 72.2014 30.1076 72.173 30.1076C72.0659 30.1252 71.9667 30.1748 71.8884 30.2499C71.7308 30.381 71.5844 30.525 71.4508 30.6804C71.4259 30.6235 71.401 30.5523 71.3654 30.4741C71.3298 30.3958 71.2978 30.2997 71.2622 30.1966C71.2559 30.17 71.2451 30.1447 71.2302 30.1219C71.2183 30.0992 71.2027 30.0788 71.184 30.0614ZM73.9589 24.821C74.0451 24.8134 74.1311 24.8374 74.2008 24.8886C74.2279 24.9123 74.2491 24.9421 74.2627 24.9754C74.2763 25.0088 74.2819 25.0448 74.2791 25.0807C74.2506 25.2053 74.2293 25.3084 74.2115 25.3938C74.1688 25.5539 74.1297 25.682 74.0976 25.7851C74.0656 25.8883 74.0372 25.9595 74.0194 26.0057C73.9823 26.1001 73.9267 26.186 73.8557 26.2583C73.7837 26.3364 73.6996 26.4024 73.6067 26.454C73.528 26.5126 73.4433 26.5627 73.3541 26.6034C73.3095 26.6283 73.2593 26.6417 73.2082 26.6425L72.9948 26.6176H72.792C72.7257 26.5771 72.6764 26.5139 72.6532 26.4397C72.6182 26.3245 72.6026 26.2043 72.607 26.084C72.6314 25.895 72.7162 25.7191 72.8489 25.5824C73.009 25.3831 73.1513 25.2728 73.2758 25.2622L73.5426 24.942C73.5941 24.9061 73.6521 24.8807 73.7134 24.8673C73.792 24.8363 73.8747 24.8171 73.9589 24.8104V24.821Z" fill="#1D1D1B"/>
<path d="M74.9835 30.0614C75.0277 30.0106 75.067 29.9559 75.1009 29.8977C75.1501 29.8258 75.2036 29.7569 75.261 29.6914L75.6986 29.3036C75.7076 29.2977 75.7152 29.2899 75.7207 29.2806C75.7263 29.2714 75.7297 29.261 75.7306 29.2502C75.7306 29.2289 75.7306 29.1969 75.7306 29.1577C75.7269 29.111 75.7198 29.0647 75.7093 29.019C75.7175 28.847 75.7377 28.6759 75.7698 28.5067C75.7845 28.3588 75.8204 28.2139 75.8765 28.0762L75.8374 27.9482C75.9011 27.6205 75.9819 27.2963 76.0793 26.9769C76.1824 26.6212 76.2998 26.2441 76.435 25.8314C76.4864 25.744 76.5327 25.6537 76.5738 25.561L76.7374 25.2053C76.823 24.9624 76.9227 24.7248 77.0363 24.4937C77.1608 24.2411 77.2995 23.985 77.4561 23.7182C77.6155 23.4379 77.8014 23.1734 78.011 22.9284C78.0616 22.8569 78.1261 22.7964 78.2007 22.7505C78.2753 22.7046 78.3584 22.6744 78.4451 22.6616C78.6345 22.6406 78.8246 22.6942 78.9751 22.811C79.0875 22.9756 79.138 23.1748 79.1175 23.3731C79.1126 23.483 79.0995 23.5924 79.0783 23.7004C79.0596 23.811 79.0478 23.9227 79.0427 24.0348C79.0357 24.1446 79.0117 24.2526 78.9716 24.355C78.9252 24.4755 78.8999 24.603 78.8969 24.7321C78.8928 24.7693 78.882 24.8055 78.8649 24.8388V24.9313C78.8416 25.0086 78.8142 25.0846 78.783 25.159C78.7475 25.2491 78.7012 25.3559 78.6443 25.4792C78.5874 25.6025 78.5482 25.7306 78.5269 25.8634C78.4771 26.0093 78.4202 26.1694 78.3526 26.3401C78.3241 26.3864 78.2921 26.4397 78.2494 26.5038C78.2067 26.5678 78.1605 26.639 78.1142 26.7208C78.097 26.7889 78.0744 26.8555 78.0466 26.92C78.0146 26.9947 77.9755 27.0837 77.9221 27.1833C77.8687 27.2829 77.8581 27.2936 77.8154 27.3576C77.7727 27.4216 77.7158 27.4999 77.6553 27.596C77.6225 27.6494 77.594 27.7053 77.5699 27.7632L77.4632 27.9873C77.4134 28.062 77.3493 28.1581 77.2711 28.2683C77.1928 28.3786 77.1003 28.5067 76.9971 28.6597C76.8619 28.9016 76.7196 29.1364 76.5738 29.3712C76.5491 29.7144 76.6392 30.0561 76.8299 30.3424C76.9213 30.4551 77.0386 30.5441 77.1718 30.6017C77.3049 30.6593 77.4501 30.6839 77.5948 30.6733C77.6621 30.6621 77.7287 30.6466 77.794 30.627L78.2672 30.4171C78.3384 30.3708 78.4073 30.321 78.4735 30.2677C78.5518 30.2001 78.6443 30.1254 78.7439 30.0365L79.0036 30.6484C78.8898 30.748 78.7724 30.8547 78.6479 30.9614C78.5233 31.0682 78.4166 31.1713 78.2921 31.271C78.1663 31.3795 78.0248 31.4682 77.8723 31.5342C77.7411 31.5921 77.5994 31.6224 77.4561 31.6232C77.3849 31.6232 77.2782 31.6232 77.1323 31.6018C77.0214 31.5873 76.9097 31.5789 76.7979 31.5769C76.6791 31.5786 76.5616 31.5524 76.4547 31.5005C76.3478 31.4486 76.2546 31.3725 76.1824 31.2781C75.9908 31.0137 75.8685 30.7054 75.8267 30.3816C75.8191 30.3447 75.8072 30.3089 75.7911 30.2748C75.7684 30.2359 75.7409 30.2001 75.7093 30.1681L75.5065 30.3744C75.4282 30.4563 75.3357 30.5452 75.2219 30.6484L74.9835 30.0614ZM78.1498 24.8495L78.1035 24.821C77.888 25.0227 77.6991 25.251 77.5414 25.5005C77.4241 25.6849 77.359 25.8976 77.3529 26.116C77.3474 26.1702 77.333 26.2231 77.3102 26.2725C77.2817 26.3472 77.239 26.4397 77.1821 26.5536C77.1252 26.6674 77.0363 26.8418 76.9615 27.0054C76.8762 27.2544 76.8121 27.4572 76.7694 27.6102C76.7328 27.7183 76.7101 27.8307 76.7018 27.9446L76.741 27.998C76.7837 27.998 76.8299 27.9517 76.8904 27.877C76.9648 27.7717 77.0313 27.6611 77.0896 27.5462C77.1334 27.4494 77.1833 27.3555 77.239 27.2651C77.3066 27.1584 77.3813 27.0339 77.4667 26.888C77.6036 26.6494 77.7168 26.398 77.8047 26.1373C77.9119 25.8881 77.9965 25.6297 78.0573 25.3653C78.0619 25.2779 78.0738 25.1911 78.0929 25.1056C78.1142 25.006 78.132 24.9207 78.1498 24.8388V24.8495Z" fill="#1D1D1B"/>
<path d="M78.7296 30.0614C78.7738 30.0106 78.8131 29.9559 78.847 29.8977C78.8939 29.8242 78.9475 29.7551 79.0071 29.6914L79.4447 29.3036C79.4537 29.2977 79.4613 29.2899 79.4669 29.2806C79.4724 29.2714 79.4758 29.261 79.4767 29.2502C79.4767 29.2289 79.4767 29.1969 79.4767 29.1577C79.4767 29.1186 79.4767 29.0546 79.4554 29.019C79.4636 28.847 79.4838 28.6759 79.5159 28.5067C79.5306 28.3588 79.5665 28.2139 79.6226 28.0762L79.5799 27.9482C79.6404 27.6529 79.7186 27.3291 79.8254 26.9769C79.9321 26.6247 80.0459 26.2441 80.1811 25.8314C80.2352 25.7449 80.2828 25.6546 80.3234 25.561L80.4871 25.2053C80.5711 24.9618 80.6709 24.7242 80.7859 24.4937C80.9104 24.2411 81.0492 23.985 81.2057 23.7182C81.3639 23.4371 81.5499 23.1725 81.7607 22.9284C81.8112 22.8569 81.8758 22.7964 81.9504 22.7505C82.025 22.7046 82.1081 22.6744 82.1947 22.6616C82.3841 22.6406 82.5743 22.6942 82.7248 22.811C82.8372 22.9756 82.8876 23.1748 82.8671 23.3731C82.8622 23.483 82.8491 23.5924 82.828 23.7004C82.8093 23.811 82.7974 23.9227 82.7924 24.0348C82.7853 24.1446 82.7613 24.2526 82.7212 24.355C82.6749 24.4755 82.6496 24.603 82.6465 24.7321C82.6425 24.7693 82.6316 24.8055 82.6145 24.8388V24.9313C82.5912 25.0086 82.5639 25.0846 82.5327 25.159C82.4971 25.2491 82.4509 25.3559 82.3939 25.4792C82.3619 25.5895 82.3228 25.7175 82.273 25.8634C82.2232 26.0093 82.1698 26.1694 82.1022 26.3401C82.0738 26.3864 82.0417 26.4397 81.999 26.5038C81.9564 26.5678 81.9101 26.639 81.8639 26.7208C81.8467 26.7889 81.8241 26.8555 81.7963 26.92C81.7643 26.9947 81.7216 27.0837 81.6682 27.1833C81.6381 27.2438 81.6036 27.3021 81.565 27.3576C81.5188 27.4181 81.4654 27.4999 81.4049 27.596C81.3722 27.6494 81.3436 27.7053 81.3195 27.7632L81.2128 27.9873C81.163 28.062 81.099 28.1581 81.0207 28.2683C80.9424 28.3786 80.8499 28.5067 80.7468 28.6597C80.608 28.9016 80.4693 29.1364 80.3234 29.3712C80.2977 29.714 80.3865 30.0556 80.576 30.3424C80.6683 30.455 80.7863 30.5437 80.92 30.6013C81.0537 30.6589 81.1992 30.6836 81.3445 30.6733C81.4118 30.6621 81.4783 30.6466 81.5437 30.627L82.0026 30.4812C82.0739 30.4349 82.1427 30.385 82.2089 30.3318C82.2872 30.2642 82.3797 30.1894 82.4793 30.1005L82.739 30.7124C82.6252 30.812 82.5078 30.9188 82.3833 31.0255C82.2588 31.1322 82.152 31.2354 82.0275 31.335C81.9017 31.4435 81.7602 31.5323 81.6077 31.5983C81.4765 31.6561 81.3349 31.6864 81.1915 31.6872C81.1203 31.6872 81.01 31.6872 80.8642 31.6658C80.7545 31.6512 80.644 31.6429 80.5333 31.6409C80.4145 31.6426 80.297 31.6165 80.1901 31.5646C80.0833 31.5127 79.99 31.4365 79.9179 31.3421C79.7262 31.0777 79.6039 30.7695 79.5621 30.4456C79.5546 30.4087 79.5426 30.3729 79.5265 30.3389C79.5039 30.3 79.4764 30.2641 79.4447 30.2321L79.2419 30.4385C79.1636 30.5203 79.0676 30.6092 78.9573 30.7124L78.7296 30.0614ZM81.8959 24.8495L81.8496 24.821C81.6331 25.0217 81.4441 25.2502 81.2875 25.5005C81.1702 25.6849 81.1051 25.8976 81.099 26.116C81.0935 26.1702 81.0791 26.2231 81.0563 26.2725C81.0278 26.3472 80.9851 26.4397 80.9282 26.5536C80.8713 26.6674 80.7823 26.8418 80.7076 27.0054C80.6223 27.2544 80.5582 27.4572 80.5155 27.6102C80.4789 27.7183 80.4562 27.8307 80.4479 27.9446L80.4871 27.998C80.5298 27.998 80.576 27.9517 80.6329 27.877C80.7099 27.7734 80.7766 27.6626 80.8322 27.5462C80.8773 27.4494 80.9284 27.3555 80.9851 27.2651C81.0527 27.1584 81.1274 27.0339 81.2128 26.888C81.4634 26.403 81.6614 25.8925 81.8034 25.3653C81.808 25.2779 81.8199 25.1911 81.839 25.1056C81.8603 25.006 81.8781 24.9207 81.8959 24.8388V24.8495Z" fill="#1D1D1B"/>
<path d="M82.4722 30.0614C82.4902 30.0488 82.5058 30.0331 82.5184 30.0151C82.5245 29.993 82.5245 29.9696 82.5184 29.9475C82.61 29.8699 82.6957 29.7855 82.7746 29.6949C82.8706 29.5846 82.9773 29.4566 83.0983 29.3107C83.2193 29.1649 83.294 29.0439 83.4007 28.9123C83.5074 28.7806 83.6142 28.6454 83.7351 28.5138C83.8561 28.3822 83.9272 28.2434 84.0233 28.0976C84.1193 27.9517 84.2189 27.8165 84.3257 27.6778C84.4602 27.6116 84.5979 27.5522 84.7384 27.4999C84.8018 27.4725 84.8689 27.4545 84.9376 27.4465C84.9659 27.4451 84.9942 27.4498 85.0206 27.4602C85.047 27.4707 85.0708 27.4866 85.0906 27.507C85.1296 27.5605 85.1485 27.626 85.1439 27.692C85.1418 27.7296 85.1346 27.7667 85.1226 27.8023C85.1226 27.8521 85.0941 27.9055 85.0763 27.9624C85.0585 28.0193 85.0087 28.1438 84.9696 28.2363C84.934 28.3893 84.8913 28.5458 84.8451 28.6988C84.7988 28.8518 84.749 29.0083 84.7028 29.1577C84.6565 29.3072 84.6245 29.5135 84.5996 29.6843C84.5515 30.0122 84.5515 30.3454 84.5996 30.6733C84.6245 30.7907 84.6601 30.844 84.7028 30.8334L84.87 30.7373L85.1012 30.6057C85.1968 30.5062 85.2871 30.4017 85.3716 30.2926L85.7274 29.855C85.8056 29.7317 85.8875 29.6131 85.9728 29.4993L86.0938 29.3498C86.1329 29.3 86.1721 29.2538 86.2076 29.204C86.2689 29.0283 86.3658 28.8672 86.4922 28.7308C86.5371 28.681 86.592 28.6413 86.6533 28.6143C86.7146 28.5874 86.781 28.5737 86.848 28.5743C86.9412 28.5704 87.0343 28.5849 87.122 28.617C87.1842 28.6397 87.2352 28.6856 87.2643 28.7451C87.2825 28.7968 87.2944 28.8505 87.2998 28.9051C87.2998 28.9787 87.2998 29.0783 87.2998 29.204C87.303 29.2761 87.3137 29.3476 87.3318 29.4174C87.3471 29.4853 87.3566 29.5543 87.3603 29.6238C87.3536 29.7481 87.3832 29.8718 87.4457 29.9795C87.4765 30.0206 87.517 30.0534 87.5635 30.0751C87.6101 30.0968 87.6612 30.1068 87.7125 30.1041C87.756 30.1028 87.7991 30.0956 87.8406 30.0827L87.9864 30.0365L88.2497 30.6484C87.9864 30.8085 87.7659 30.9294 87.5951 31.0041C87.4778 31.0699 87.3482 31.1111 87.2144 31.1251C87.0187 31.1331 86.8262 31.0728 86.6701 30.9543C86.517 30.8186 86.4079 30.6402 86.3571 30.442C86.3477 30.3857 86.3285 30.3315 86.3001 30.2819C86.2696 30.2254 86.2338 30.1718 86.1934 30.1218L86.0547 30.2819C86.0049 30.3424 85.9515 30.4065 85.8946 30.4669L85.5388 30.8974C85.4179 31.0361 85.2969 31.1749 85.1831 31.3101C85.0546 31.4705 84.8964 31.6046 84.717 31.705C84.5815 31.7828 84.4286 31.8256 84.2723 31.8295C84.1825 31.8334 84.0929 31.8194 84.0086 31.7882C83.9243 31.7571 83.847 31.7094 83.7814 31.6481C83.6454 31.4984 83.5617 31.3086 83.543 31.1073C83.5039 30.8761 83.4754 30.6946 83.4647 30.5665C83.4525 30.4899 83.4525 30.4119 83.4647 30.3353C83.4594 30.2372 83.4463 30.1396 83.4256 30.0436C83.4256 29.976 83.39 29.944 83.358 29.944L83.3189 29.9618L82.9382 30.3566C82.9199 30.3962 82.8985 30.4343 82.8742 30.4705C82.841 30.5155 82.7983 30.5725 82.7461 30.6413C82.7216 30.5572 82.6907 30.4751 82.6536 30.3958C82.6038 30.3175 82.5362 30.1966 82.4722 30.0614Z" fill="#1D1D1B"/>
<path d="M88.0007 30.0613L88.0932 29.9404L88.2106 29.7696C88.4063 29.5277 88.5984 29.3071 88.7798 29.115C88.9613 28.9229 89.1356 28.7593 89.3028 28.5992C89.3882 28.5209 89.4878 28.4177 89.6088 28.2932L90.0286 27.8556L90.5551 27.6457C90.6049 27.6424 90.6547 27.6509 90.7005 27.6707C90.7463 27.6905 90.7867 27.721 90.8184 27.7596C90.8817 27.8604 90.9116 27.9787 90.9037 28.0975C90.9041 28.2309 90.8946 28.3641 90.8753 28.496C90.8539 28.6419 90.829 28.7877 90.7934 28.9407C90.7526 29.057 90.7193 29.1758 90.6938 29.2965C90.6928 29.3203 90.699 29.3438 90.7116 29.3641C90.7201 29.3733 90.7306 29.3804 90.7424 29.3847C90.7542 29.3891 90.7668 29.3905 90.7792 29.389C90.9215 29.295 91.0507 29.1825 91.1634 29.0545C91.3556 28.866 91.6046 28.5992 91.9141 28.2576C92.1286 28.0171 92.367 27.7989 92.6256 27.6066C92.7607 27.4883 92.9278 27.4128 93.1059 27.3896C93.1612 27.3856 93.2166 27.3967 93.2661 27.4218C93.3156 27.4469 93.3574 27.4849 93.3869 27.5319C93.4551 27.6621 93.4858 27.8086 93.4759 27.9552C93.476 28.2161 93.4558 28.4766 93.4154 28.7344C93.3763 28.9792 93.307 29.2182 93.2091 29.4459C93.1937 29.4811 93.1829 29.5182 93.177 29.5562C93.1754 29.5858 93.1754 29.6155 93.177 29.6451C93.177 29.6736 93.2055 29.702 93.2589 29.7305C93.3033 29.6893 93.3438 29.644 93.3798 29.5953C93.4261 29.5384 93.4794 29.4672 93.5435 29.3783L93.8494 29.1257C93.949 29.0403 94.0593 28.9549 94.1803 28.866C94.2948 28.7748 94.4218 28.7005 94.5574 28.6454C94.6767 28.5947 94.8049 28.5681 94.9345 28.5672C94.9587 28.5671 94.9823 28.5746 95.0021 28.5885C95.0257 28.6023 95.0483 28.6177 95.0697 28.6347C95.158 28.711 95.2423 28.7918 95.3223 28.8767C95.3757 28.9339 95.4223 28.9971 95.461 29.0652C95.5871 29.3443 95.7408 29.6101 95.9199 29.8586C96.0551 30.0329 96.1761 30.1218 96.2757 30.1218C96.298 30.1266 96.321 30.1266 96.3433 30.1218C96.3662 30.1101 96.3877 30.0958 96.4073 30.0791C96.5105 30.2961 96.5959 30.4989 96.667 30.691C96.5348 30.7974 96.3931 30.8915 96.2437 30.9721C96.144 31.0302 96.0317 31.0631 95.9164 31.0681C95.7251 31.0448 95.5414 30.9794 95.3784 30.8767C95.2155 30.774 95.0772 30.6365 94.9736 30.474C94.6463 30.0791 94.3973 29.8799 94.2265 29.8799C93.9894 29.8799 93.6063 30.2202 93.0774 30.9009C92.5438 31.5804 92.2094 31.9184 92.0742 31.9184C92.0101 31.9184 91.9212 31.9184 91.8109 31.9184C91.7922 31.9105 91.7753 31.8988 91.7612 31.8842C91.7471 31.8695 91.7362 31.8521 91.7291 31.833C91.7111 31.7853 91.7026 31.7346 91.7042 31.6836C91.708 31.5959 91.7211 31.5088 91.7433 31.4239C91.767 31.3124 91.8026 31.1844 91.8501 31.0397C91.907 30.8547 91.9532 30.7053 91.9888 30.595C92.016 30.5199 92.0363 30.4425 92.0493 30.3637C92.0493 30.3068 92.0813 30.193 92.1062 30.0258C92.1311 29.8586 92.1631 29.6309 92.2023 29.3534C92.2042 29.3118 92.1902 29.2711 92.1631 29.2395C92.1372 29.2149 92.1029 29.2009 92.0671 29.2004C92.0322 29.2025 91.9982 29.2122 91.9675 29.2289C91.9197 29.2565 91.8755 29.29 91.8358 29.3285C91.7825 29.3854 91.7255 29.4423 91.6615 29.4992C91.5975 29.5562 91.4943 29.638 91.352 29.7447C91.1955 29.9226 91.0389 30.1005 90.8753 30.2855C90.7116 30.4705 90.5515 30.6412 90.3808 30.8405C90.1821 31.0805 89.9707 31.3096 89.7475 31.5271C89.591 31.6765 89.4914 31.7512 89.4451 31.7512C89.3422 31.7568 89.2393 31.7411 89.1427 31.705C89.1135 31.6949 89.0881 31.6763 89.0697 31.6516C89.0512 31.6268 89.0408 31.597 89.0396 31.5662C89.0794 31.2528 89.1582 30.9457 89.2744 30.6519C89.3998 30.3387 89.48 30.0093 89.5127 29.6736C89.5132 29.659 89.5106 29.6445 89.5051 29.631C89.4996 29.6175 89.4913 29.6053 89.4807 29.5953C89.4708 29.5858 89.459 29.5784 89.4462 29.5735C89.4334 29.5686 89.4197 29.5664 89.406 29.5668C89.3347 29.5738 89.2681 29.6052 89.2174 29.6558C89.1225 29.7392 89.0377 29.8335 88.9648 29.9368C88.9056 30.008 88.8308 30.0898 88.7407 30.1823C88.6518 30.2784 88.5415 30.3851 88.4134 30.5096C88.3985 30.5454 88.3806 30.5799 88.3601 30.6128C88.3374 30.6465 88.3124 30.6786 88.2853 30.7088C88.2624 30.6242 88.2315 30.542 88.1928 30.4634C88.1288 30.3175 88.0719 30.1965 88.0007 30.0613Z" fill="#1D1D1B"/>
<path d="M96.3824 30.0614L96.4216 30.0151L96.4394 29.9475C96.6284 29.7133 96.8405 29.4988 97.0726 29.3072C97.3028 29.117 97.5116 28.9023 97.6952 28.6668C97.7329 28.6041 97.7855 28.5516 97.8482 28.5138C97.9013 28.4837 97.9614 28.4678 98.0225 28.4676C98.1622 28.4634 98.2995 28.5046 98.4138 28.585C98.5275 28.6716 98.6029 28.7993 98.6237 28.9407C98.6557 29.0759 98.6842 29.2147 98.7127 29.3534C98.7411 29.4922 98.7589 29.6345 98.7767 29.7768C98.8215 29.9087 98.8595 30.0429 98.8905 30.1788C98.9118 30.2854 98.9452 30.3893 98.9902 30.4883C99.012 30.5303 99.047 30.5641 99.0898 30.5843C99.1432 30.6042 99.2 30.6139 99.257 30.6128C99.3406 30.6119 99.4235 30.5975 99.5025 30.5701C99.5972 30.536 99.6851 30.4854 99.7622 30.4207C99.8262 30.3638 99.8974 30.3033 99.9721 30.2464L100.186 30.0685L100.452 30.6804C100.381 30.7516 100.285 30.8298 100.171 30.9223C100.057 31.0148 99.9116 31.118 99.7479 31.2389C99.6006 31.3494 99.4447 31.4481 99.2819 31.5342C99.1925 31.5865 99.0931 31.6192 98.9902 31.6303C98.7214 31.6583 98.4502 31.6103 98.2075 31.4915C98.0152 31.2668 97.8787 30.9999 97.809 30.7124C97.7856 30.6685 97.7582 30.6268 97.7272 30.5879C97.6952 30.5381 97.6525 30.4812 97.6098 30.4136C97.5696 30.3341 97.5232 30.258 97.4711 30.1859C97.4319 30.1325 97.3964 30.1076 97.3715 30.1076C97.2635 30.1256 97.1632 30.1751 97.0833 30.2499C96.9274 30.3829 96.7812 30.5267 96.6457 30.6804L96.5639 30.4741C96.5319 30.3958 96.4963 30.2997 96.4607 30.1966C96.4513 30.1711 96.4406 30.1462 96.4287 30.1219C96.4168 30.0992 96.4011 30.0788 96.3824 30.0614ZM99.1574 24.821C99.2435 24.8134 99.3295 24.8374 99.3993 24.8886C99.4253 24.913 99.4455 24.9429 99.4585 24.9762C99.4714 25.0094 99.4767 25.0452 99.474 25.0807L99.41 25.3938C99.3637 25.5539 99.3246 25.682 99.2926 25.7851C99.2605 25.8883 99.2356 25.9595 99.2179 26.0057C99.1782 26.0987 99.1228 26.1841 99.0542 26.2583C98.9814 26.3355 98.8974 26.4015 98.8052 26.454C98.7249 26.512 98.6391 26.562 98.549 26.6034C98.5056 26.6281 98.4567 26.6416 98.4067 26.6425L98.1897 26.6176H97.9869C97.9208 26.5778 97.8724 26.5141 97.8517 26.4397C97.8151 26.3248 97.7983 26.2045 97.8019 26.084C97.828 25.8955 97.9126 25.7201 98.0438 25.5824C98.2075 25.3831 98.3498 25.2728 98.4743 25.2622L98.7376 24.942C98.7907 24.9067 98.8497 24.8814 98.9119 24.8673C98.9905 24.8363 99.0732 24.8171 99.1574 24.8104V24.821Z" fill="#1D1D1B"/>
<path d="M100.178 30.0613C100.2 30.0256 100.224 29.9912 100.25 29.9582L100.353 29.823C100.395 29.7874 100.452 29.7376 100.523 29.67C100.595 29.6024 100.676 29.5277 100.765 29.4388L101.057 29.1079L101.473 28.6348L101.74 28.3466L102.103 27.9268C102.212 27.7929 102.348 27.6827 102.501 27.603C102.642 27.5326 102.796 27.4961 102.953 27.4963C103.02 27.4904 103.088 27.5008 103.15 27.5269C103.212 27.5529 103.266 27.5937 103.309 27.6457C103.393 27.7744 103.433 27.9266 103.423 28.0798C103.405 28.2776 103.367 28.4731 103.309 28.6632C103.233 28.9526 103.115 29.3332 102.953 29.8052L102.843 30.0578C102.818 30.1059 102.8 30.1575 102.79 30.2108C102.786 30.2439 102.786 30.2773 102.79 30.3104C102.793 30.3479 102.809 30.3831 102.836 30.41C102.859 30.3944 102.88 30.3765 102.9 30.3566L102.967 30.2784C103.012 30.2014 103.067 30.1308 103.131 30.0685C103.206 29.9973 103.291 29.9155 103.394 29.8265C103.438 29.7462 103.491 29.671 103.551 29.6024C103.617 29.5295 103.688 29.4617 103.764 29.3996C103.79 29.373 103.814 29.3445 103.836 29.3142C103.868 29.2709 103.902 29.2293 103.939 29.1897C104.004 29.1251 104.073 29.0645 104.145 29.0083C104.223 28.949 104.316 28.885 104.423 28.8162C104.528 28.7619 104.636 28.7132 104.746 28.6703C104.825 28.6377 104.91 28.6196 104.995 28.617C105.121 28.6153 105.245 28.6499 105.351 28.7166C105.469 28.7948 105.563 28.9029 105.625 29.0296C105.714 29.3036 105.796 29.5597 105.878 29.7945C105.912 29.9049 105.968 30.0075 106.041 30.0969C106.065 30.1277 106.095 30.1526 106.129 30.1699C106.164 30.1871 106.202 30.1963 106.24 30.1965C106.294 30.1979 106.348 30.1869 106.397 30.1645C106.448 30.1413 106.493 30.1073 106.529 30.0649L106.792 30.6768L106.561 30.8689L106.329 31.061C106.245 31.1421 106.148 31.2083 106.041 31.2567C105.959 31.2945 105.869 31.314 105.778 31.3136C105.677 31.3145 105.577 31.2913 105.486 31.246C105.391 31.2014 105.309 31.1327 105.248 31.0468C105.195 30.9877 105.149 30.9219 105.113 30.8511C105.059 30.7586 104.999 30.6377 104.928 30.4954C104.857 30.4244 104.792 30.3483 104.732 30.2677L104.476 29.9333L104.415 29.9119C104.328 29.942 104.244 29.9826 104.166 30.0329C104.074 30.0943 103.987 30.1633 103.907 30.2392C103.775 30.3651 103.629 30.476 103.473 30.5701C103.4 30.6024 103.338 30.6557 103.295 30.7231C103.202 30.8702 103.096 31.0083 102.978 31.1357C102.826 31.3041 102.638 31.5034 102.413 31.7334L102.242 31.9006L102.067 32.0643C102.011 32.113 101.944 32.1483 101.872 32.1674C101.793 32.1884 101.711 32.198 101.63 32.1959C101.452 32.1959 101.356 32.1354 101.342 32.0145C101.324 31.8935 101.31 31.769 101.299 31.6587C101.363 31.4737 101.441 31.2425 101.523 30.9472C101.605 30.6519 101.705 30.346 101.815 29.9724C101.817 29.9417 101.824 29.9116 101.836 29.8835C101.854 29.8443 101.872 29.7945 101.893 29.734C101.911 29.6852 101.927 29.6353 101.939 29.5846C101.942 29.5479 101.942 29.5111 101.939 29.4743C101.94 29.4599 101.937 29.4455 101.931 29.4324C101.925 29.4193 101.916 29.4081 101.904 29.3996C101.872 29.3796 101.834 29.3708 101.797 29.3747C101.732 29.3827 101.672 29.41 101.623 29.453C101.527 29.5282 101.439 29.6128 101.359 29.7056C101.235 29.8408 101.135 29.9439 101.061 30.0187C101.016 30.0699 100.965 30.1142 100.908 30.1503C100.853 30.1926 100.801 30.2377 100.751 30.2855L100.548 30.4776C100.548 30.4954 100.527 30.5203 100.509 30.5559C100.485 30.5993 100.457 30.6399 100.424 30.6768C100.399 30.5927 100.368 30.5107 100.331 30.4313C100.324 30.3175 100.249 30.1965 100.178 30.0613Z" fill="#1D1D1B"/>
<path d="M106.728 29.759L107.329 29.3605C107.406 29.2874 107.469 29.202 107.518 29.1079C107.547 29.0511 107.588 29.0013 107.639 28.9621C107.694 28.9208 107.754 28.8851 107.817 28.8553C107.852 28.8127 107.902 28.7557 107.969 28.6881C108.037 28.6205 108.119 28.5458 108.222 28.4569C108.286 28.4216 108.348 28.3824 108.407 28.3395C108.495 28.2791 108.577 28.2113 108.653 28.1367C108.979 27.8172 109.336 27.5312 109.72 27.2829C109.944 27.1189 110.208 27.0193 110.485 26.9947C110.577 26.9854 110.668 27.0122 110.741 27.0694C110.77 27.0953 110.792 27.1273 110.807 27.163C110.822 27.1986 110.828 27.2372 110.826 27.2758C110.827 27.3602 110.81 27.4439 110.776 27.5212C110.741 27.5937 110.687 27.6552 110.62 27.6991L110.264 27.9659C110.184 28.0699 110.097 28.1685 110.004 28.2612C109.894 28.3729 109.775 28.4764 109.649 28.5707C109.606 28.6277 109.567 28.6775 109.538 28.7237L109.41 28.8411C109.334 28.9136 109.252 28.9802 109.165 29.0403C109.09 29.1822 108.993 29.3108 108.877 29.421C108.727 29.574 108.521 29.7768 108.283 29.9795C108.221 30.0444 108.165 30.1147 108.115 30.1894L107.795 30.6306L107.841 30.6875C107.951 30.6526 108.055 30.5997 108.147 30.531C108.272 30.4388 108.391 30.3389 108.503 30.2321L108.859 29.8942C108.923 29.8342 108.991 29.7784 109.062 29.727L109.154 29.6736C109.191 29.6533 109.227 29.6307 109.261 29.606C109.425 29.4007 109.617 29.2188 109.83 29.0652C109.973 28.9595 110.144 28.8977 110.321 28.8874C110.363 28.8856 110.405 28.8948 110.442 28.9141C110.48 28.9335 110.512 28.9623 110.535 28.9976C110.592 29.0985 110.621 29.2126 110.62 29.3285C110.62 29.5491 110.62 29.7625 110.62 29.9653C110.612 30.1016 110.652 30.2365 110.734 30.346C110.769 30.3991 110.817 30.4426 110.874 30.4724C110.931 30.5022 110.994 30.5174 111.057 30.5167C111.099 30.5166 111.14 30.5043 111.175 30.4812C111.216 30.4566 111.254 30.428 111.289 30.3958L111.378 30.2819L111.47 30.1788L111.545 30.1325C111.579 30.1073 111.611 30.08 111.641 30.0507C111.705 30.1823 111.755 30.2997 111.797 30.4065C111.835 30.4921 111.867 30.5801 111.894 30.6697C111.794 30.7622 111.691 30.8583 111.591 30.9579C111.493 31.0581 111.388 31.1519 111.278 31.2389C111.16 31.333 111.029 31.4108 110.89 31.4702C110.777 31.517 110.657 31.5423 110.535 31.5449C110.413 31.5527 110.29 31.5348 110.176 31.4925C110.061 31.4503 109.957 31.3845 109.869 31.2994C109.696 31.0903 109.6 30.8275 109.599 30.5559C109.598 30.5086 109.589 30.4619 109.574 30.4171C109.56 30.3687 109.536 30.3238 109.503 30.2855L109.432 30.3566C109.399 30.387 109.368 30.4191 109.339 30.4527C109.279 30.4954 109.208 30.5523 109.122 30.6199L108.82 30.8583C108.663 31.0184 108.535 31.1464 108.428 31.2496L108.201 31.4666C108.104 31.5512 108.001 31.6274 107.891 31.6943C107.777 31.769 107.646 31.8473 107.496 31.9255C107.404 31.9754 107.326 32.0145 107.258 32.043C107.212 32.0662 107.163 32.0806 107.112 32.0856C107.027 32.0928 106.942 32.0827 106.861 32.0558C106.78 32.0288 106.706 31.9857 106.643 31.9291C106.587 31.8631 106.544 31.7867 106.518 31.7043C106.492 31.6218 106.482 31.535 106.49 31.4488C106.487 31.3261 106.512 31.2043 106.564 31.0931C106.623 30.9752 106.701 30.8681 106.795 30.7764C106.798 30.7302 106.798 30.6839 106.795 30.6377C106.8 30.6142 106.8 30.59 106.795 30.5665C106.795 30.5416 106.771 30.5167 106.753 30.4847C106.735 30.4527 106.696 30.3531 106.66 30.2748L106.554 30.0258C106.582 29.9937 106.607 29.9592 106.628 29.9226L106.728 29.759Z" fill="#1D1D1B"/>
<path d="M111.634 30.0614L111.662 30.008C111.687 29.9725 111.723 29.9298 111.765 29.8764L111.915 29.6914C112.251 29.3702 112.558 29.0202 112.833 28.6455C113.158 28.1981 113.455 27.7312 113.722 27.2473C113.766 27.1849 113.805 27.1195 113.839 27.0517C113.894 26.9549 113.942 26.8551 113.985 26.7528C113.992 26.7345 113.992 26.7143 113.985 26.6959C113.976 26.6879 113.965 26.6819 113.954 26.6782C113.942 26.6745 113.93 26.6733 113.918 26.6746C113.874 26.677 113.831 26.6854 113.79 26.6995C113.744 26.7115 113.698 26.7187 113.651 26.7208H112.822C112.786 26.7208 112.73 26.7208 112.648 26.7208H112.47L112.349 26.6674L112.239 26.6176C112.192 26.6036 112.15 26.5793 112.114 26.5465C112.1 26.5331 112.09 26.517 112.082 26.4993C112.075 26.4815 112.071 26.4625 112.071 26.4433C112.063 26.2228 112.093 26.0025 112.16 25.7923C112.176 25.73 112.212 25.6746 112.262 25.6343C112.312 25.5939 112.374 25.5707 112.438 25.5681C112.562 25.5681 112.676 25.5681 112.794 25.5681C112.89 25.5771 112.987 25.5913 113.082 25.6108C113.149 25.6108 113.21 25.5859 113.267 25.5717C113.369 25.5654 113.471 25.5654 113.573 25.5717C113.639 25.5774 113.704 25.5881 113.768 25.6037L113.936 25.5681L114.121 25.5326L114.338 25.5966C114.494 25.5788 114.658 25.3618 114.836 24.9456C115.014 24.5293 115.191 24.323 115.398 24.323C115.443 24.3206 115.489 24.3283 115.532 24.3455C115.574 24.3628 115.612 24.3891 115.643 24.4226C115.706 24.5065 115.736 24.61 115.729 24.7143C115.72 24.8521 115.69 24.9877 115.64 25.1163C115.59 25.2375 115.556 25.3641 115.536 25.4934C115.545 25.5135 115.557 25.5317 115.572 25.5468C115.591 25.574 115.613 25.598 115.64 25.6179C115.669 25.6397 115.689 25.6713 115.697 25.7069C115.703 25.7589 115.703 25.8114 115.697 25.8634C115.701 26.0692 115.689 26.275 115.661 26.4789C115.636 26.6212 115.597 26.6959 115.544 26.6995L115.095 26.792C115.095 26.8382 115.074 26.8916 115.063 26.9556C115.053 27.0196 115.031 27.0944 115.01 27.1797C114.932 27.4003 114.85 27.6814 114.754 28.0229C114.658 28.3644 114.558 28.7664 114.444 29.2325C114.373 29.5882 114.316 29.9049 114.281 30.1325C114.251 30.2864 114.232 30.4421 114.224 30.5986C114.22 30.6538 114.231 30.709 114.256 30.7587C114.266 30.7757 114.281 30.7897 114.298 30.7991C114.316 30.8085 114.335 30.813 114.355 30.812C114.461 30.7641 114.559 30.6992 114.644 30.6199C114.811 30.4919 115.042 30.2998 115.337 30.0472L115.597 30.6591C115.54 30.721 115.478 30.7781 115.412 30.8298C115.321 30.9064 115.226 30.9776 115.127 31.0433C115.081 31.0931 115.028 31.1465 114.96 31.2069C114.893 31.2674 114.821 31.335 114.74 31.4168L114.505 31.6801C114.426 31.769 114.348 31.858 114.27 31.9398C114.181 32.041 114.075 32.1253 113.957 32.1888C113.869 32.236 113.772 32.2628 113.672 32.2671C113.591 32.2732 113.51 32.2606 113.435 32.2304C113.36 32.2002 113.292 32.1531 113.238 32.0928C113.13 31.9409 113.078 31.7558 113.092 31.5698C113.092 31.3101 113.092 31.0895 113.121 30.901C113.132 30.7464 113.161 30.5937 113.206 30.4456C113.222 30.416 113.235 30.385 113.245 30.3531C113.247 30.2933 113.254 30.2338 113.267 30.1752C113.267 30.097 113.295 30.0116 113.313 29.9084L113.398 29.389L113.551 29.0332C113.551 29.0119 113.551 28.9906 113.498 28.9728L113.434 29.0119C113.357 29.1318 113.27 29.2449 113.174 29.3499C113.055 29.4762 112.928 29.595 112.794 29.7056L112.103 30.3638C112.083 30.3993 112.059 30.4327 112.032 30.4634C111.997 30.5096 111.958 30.563 111.911 30.6306L111.829 30.4278C111.794 30.346 111.762 30.2499 111.726 30.1468C111.717 30.1213 111.706 30.0964 111.694 30.0721C111.675 30.0659 111.654 30.0623 111.634 30.0614Z" fill="#1D1D1B"/>
<path d="M115.316 30.0614L115.355 30.0151L115.373 29.9475C115.562 29.7133 115.774 29.4988 116.006 29.3072C116.236 29.117 116.445 28.9023 116.629 28.6668C116.666 28.6041 116.719 28.5516 116.782 28.5138C116.835 28.4837 116.895 28.4678 116.956 28.4676C117.096 28.4634 117.233 28.5046 117.347 28.585C117.461 28.6722 117.537 28.7994 117.561 28.9407L117.646 29.3534C117.671 29.4957 117.696 29.6345 117.714 29.7768C117.742 29.8657 117.781 30.0009 117.824 30.1788C117.845 30.2854 117.879 30.3893 117.924 30.4883C117.945 30.5303 117.98 30.5641 118.023 30.5843C118.077 30.6042 118.133 30.6139 118.19 30.6128C118.274 30.6119 118.357 30.5975 118.436 30.5701C118.531 30.536 118.619 30.4854 118.696 30.4207C118.763 30.3638 118.831 30.3033 118.906 30.2464L119.119 30.0685L119.386 30.6804C119.297 30.7663 119.203 30.8471 119.105 30.9223C118.987 31.0148 118.845 31.118 118.681 31.2389C118.535 31.3502 118.379 31.449 118.215 31.5342C118.126 31.5865 118.027 31.6192 117.924 31.6303C117.655 31.6583 117.384 31.6103 117.141 31.4915C116.949 31.2668 116.812 30.9999 116.743 30.7124C116.72 30.6685 116.694 30.6268 116.664 30.5879C116.629 30.5381 116.586 30.4812 116.543 30.4136C116.503 30.3341 116.457 30.258 116.405 30.1859C116.365 30.1325 116.33 30.1076 116.305 30.1076C116.198 30.1252 116.099 30.1748 116.02 30.2499C115.862 30.3817 115.715 30.5257 115.579 30.6804L115.497 30.4741C115.465 30.3958 115.43 30.2997 115.394 30.1966C115.386 30.1705 115.376 30.1455 115.362 30.1219C115.35 30.0992 115.335 30.0788 115.316 30.0614ZM118.091 24.821C118.177 24.8134 118.263 24.8374 118.333 24.8886C118.359 24.9128 118.38 24.9426 118.394 24.9759C118.407 25.0091 118.413 25.0449 118.411 25.0807C118.383 25.2053 118.361 25.3084 118.343 25.3938C118.297 25.5539 118.262 25.682 118.226 25.7851C118.19 25.8883 118.169 25.9595 118.151 26.0057C118.113 26.0993 118.057 26.185 117.988 26.2583C117.915 26.3355 117.831 26.4015 117.739 26.454C117.658 26.512 117.573 26.562 117.482 26.6034C117.439 26.6281 117.39 26.6416 117.34 26.6425L117.123 26.6176H116.92C116.854 26.5778 116.806 26.5141 116.785 26.4397C116.749 26.3248 116.732 26.2045 116.735 26.084C116.761 25.8955 116.846 25.7201 116.977 25.5824C117.141 25.3831 117.283 25.2728 117.408 25.2622L117.671 24.942C117.724 24.9067 117.783 24.8814 117.845 24.8673C117.924 24.8363 118.007 24.8171 118.091 24.8104V24.821Z" fill="#1D1D1B"/>
<path d="M119.112 30.0614C119.148 30.0239 119.182 29.9834 119.212 29.9404C119.244 29.8871 119.283 29.8301 119.325 29.7697L119.838 29.4139C119.926 29.3115 120.021 29.2152 120.122 29.1257L120.603 28.6953C120.632 28.6358 120.668 28.5797 120.709 28.5281C120.765 28.46 120.827 28.3969 120.894 28.3395C120.955 28.279 121.019 28.2257 121.079 28.1759C121.14 28.1261 121.2 28.0762 121.254 28.0264C121.307 27.9766 121.382 27.8948 121.442 27.8272C121.503 27.7596 121.563 27.6956 121.624 27.6351C121.69 27.576 121.764 27.5269 121.844 27.4892C121.921 27.4532 122.005 27.4349 122.09 27.4359C122.165 27.4315 122.24 27.4436 122.31 27.4715C122.332 27.4798 122.352 27.4936 122.367 27.5117C122.382 27.5298 122.392 27.5515 122.396 27.5746C122.349 27.6778 122.303 27.7774 122.253 27.8806L122.296 27.9411C122.488 27.8628 122.652 27.8094 122.751 27.7739C122.82 27.7488 122.892 27.7309 122.965 27.7205C123.101 27.711 123.237 27.7327 123.364 27.7838C123.49 27.835 123.603 27.9143 123.694 28.0158C123.874 28.2772 123.959 28.5922 123.936 28.9087C123.934 28.9983 123.924 29.0875 123.908 29.1755C123.887 29.2877 123.858 29.3983 123.822 29.5064C123.787 29.6216 123.739 29.7325 123.68 29.8373C123.641 29.9086 123.594 29.9744 123.538 30.0329C123.548 30.0774 123.569 30.1189 123.598 30.1539C123.609 30.1658 123.622 30.1752 123.637 30.1814C123.651 30.1876 123.667 30.1903 123.683 30.1895C123.722 30.1884 123.76 30.1774 123.794 30.1574C123.842 30.1282 123.887 30.0949 123.929 30.0578C123.972 30.1539 124.014 30.2571 124.057 30.3602C124.1 30.4634 124.142 30.5666 124.189 30.6697L123.954 30.8761C123.879 30.9401 123.801 31.0041 123.715 31.0682C123.63 31.1437 123.532 31.205 123.427 31.2496C123.342 31.2868 123.25 31.3062 123.157 31.3065C123.067 31.309 122.979 31.2842 122.904 31.2354C122.836 31.1809 122.782 31.1099 122.748 31.0291C122.631 31.1794 122.496 31.3145 122.346 31.4311C122.185 31.5531 122.009 31.6546 121.823 31.7335C121.725 31.7799 121.624 31.8203 121.52 31.8544C121.44 31.8812 121.356 31.8956 121.271 31.8971C121.228 31.9023 121.185 31.9119 121.143 31.9256C121.092 31.9407 121.04 31.9491 120.987 31.9505C120.857 31.9481 120.729 31.9187 120.612 31.8642C120.494 31.8097 120.389 31.7312 120.304 31.6338C120.208 31.5416 120.132 31.4311 120.079 31.3089C120.027 31.1867 119.999 31.0553 119.998 30.9223C120.004 30.7788 120.028 30.6367 120.069 30.499C120.102 30.398 120.127 30.2945 120.144 30.1895C120.144 30.1755 120.141 30.1617 120.135 30.1488C120.13 30.136 120.122 30.1244 120.112 30.1147C120.101 30.1041 120.088 30.0961 120.074 30.0912C120.06 30.0862 120.045 30.0846 120.03 30.0863C119.97 30.1077 119.915 30.1416 119.87 30.1859L119.514 30.4705C119.514 30.4883 119.485 30.5132 119.468 30.5488C119.444 30.5922 119.415 30.6328 119.382 30.6697C119.347 30.5654 119.308 30.4622 119.265 30.3602C119.215 30.2499 119.18 30.1468 119.112 30.0614ZM122.314 28.8447C122.277 28.8613 122.244 28.8856 122.218 28.9158C122.173 28.9646 122.133 29.017 122.097 29.0724C122.033 29.1767 121.962 29.287 121.883 29.4032C121.839 29.4538 121.786 29.4959 121.727 29.5277C121.667 29.5581 121.604 29.5797 121.538 29.5918C121.496 29.5918 121.446 29.638 121.399 29.7199C121.336 29.8319 121.287 29.9514 121.254 30.0756C121.21 30.1916 121.174 30.3104 121.147 30.4314C121.127 30.5118 121.117 30.5941 121.115 30.6768C121.11 30.727 121.115 30.7777 121.131 30.8255C121.147 30.8734 121.173 30.9173 121.207 30.9543C121.246 30.9884 121.291 31.0141 121.34 31.03C121.389 31.0459 121.441 31.0517 121.492 31.0468C121.692 31.049 121.888 30.9907 122.054 30.8796C122.246 30.7432 122.409 30.5703 122.534 30.3709L122.734 30.1325C122.774 30.0977 122.804 30.052 122.819 30.0009C122.846 29.9288 122.869 29.8552 122.887 29.7803L123.008 29.3997C122.975 29.2934 122.937 29.1889 122.894 29.0866C122.874 29.029 122.837 28.9791 122.787 28.9443C122.741 28.9225 122.692 28.9081 122.641 28.9016C122.531 28.8733 122.419 28.8508 122.307 28.834L122.314 28.8447Z" fill="#1D1D1B"/>
<path d="M123.915 30.0613C123.936 30.0256 123.96 29.9912 123.986 29.9582L124.089 29.823C124.132 29.7874 124.189 29.7376 124.26 29.67L124.498 29.4388L124.793 29.1079L125.227 28.6383L125.494 28.3501L125.871 27.9268C125.98 27.7921 126.116 27.6818 126.27 27.603C126.41 27.5323 126.565 27.4957 126.722 27.4963C126.789 27.4904 126.856 27.5008 126.918 27.5269C126.98 27.5529 127.035 27.5937 127.077 27.6457C127.161 27.7744 127.201 27.9266 127.191 28.0798C127.173 28.2776 127.135 28.4731 127.077 28.6632C127.004 28.9526 126.885 29.3332 126.722 29.8052L126.608 30.0578C126.585 30.1067 126.569 30.158 126.558 30.2108C126.554 30.2439 126.554 30.2773 126.558 30.3104C126.561 30.3479 126.578 30.3831 126.604 30.41C126.627 30.3944 126.649 30.3765 126.668 30.3566L126.736 30.2784C126.78 30.2006 126.835 30.1298 126.9 30.0685C126.971 29.9973 127.06 29.9155 127.163 29.8265C127.205 29.7454 127.258 29.6701 127.319 29.6024C127.385 29.5295 127.457 29.4617 127.533 29.3996C127.559 29.373 127.582 29.3445 127.604 29.3142C127.636 29.2709 127.67 29.2293 127.707 29.1897C127.772 29.1251 127.841 29.0645 127.913 29.0083C127.992 28.949 128.084 28.885 128.191 28.8162C128.296 28.7619 128.404 28.7132 128.515 28.6703C128.594 28.6377 128.678 28.6196 128.764 28.617C128.889 28.6157 129.013 28.6503 129.119 28.7166C129.237 28.7948 129.331 28.9029 129.393 29.0296C129.482 29.3036 129.564 29.5597 129.646 29.7945C129.68 29.9046 129.734 30.0072 129.806 30.0969C129.831 30.1274 129.861 30.152 129.896 30.1693C129.931 30.1865 129.97 30.1958 130.009 30.1965C130.063 30.1979 130.116 30.1869 130.165 30.1645C130.215 30.1404 130.26 30.1066 130.297 30.0649L130.56 30.6768L130.329 30.8689L130.098 31.061C130.014 31.1421 129.916 31.2083 129.81 31.2567C129.723 31.2976 129.628 31.3188 129.532 31.3188C129.436 31.3188 129.341 31.2976 129.255 31.2567C129.158 31.2121 129.075 31.1435 129.013 31.0575C128.961 30.998 128.917 30.9323 128.881 30.8618C128.828 30.7693 128.767 30.6484 128.696 30.506C128.625 30.4351 128.56 30.359 128.5 30.2784L128.244 29.9439L128.184 29.9226C128.096 29.9519 128.012 29.9926 127.935 30.0436C127.841 30.1049 127.753 30.1739 127.671 30.2499C127.54 30.3754 127.396 30.4864 127.241 30.5808C127.167 30.6122 127.105 30.6656 127.063 30.7337C126.969 30.8807 126.862 31.0189 126.743 31.1464C126.594 31.3136 126.405 31.5022 126.181 31.7441C126.124 31.801 126.067 31.8579 126.007 31.9113L125.836 32.0749C125.779 32.123 125.712 32.1582 125.64 32.1781C125.561 32.1989 125.48 32.2085 125.398 32.2066C125.22 32.2066 125.124 32.1461 125.11 32.0251C125.092 31.9042 125.078 31.7797 125.067 31.6694C125.131 31.4844 125.206 31.2531 125.291 30.9579C125.377 30.6626 125.473 30.3566 125.583 29.9831C125.585 29.9524 125.592 29.9223 125.605 29.8941C125.605 29.855 125.64 29.8052 125.661 29.7447C125.68 29.6958 125.695 29.646 125.708 29.5953C125.711 29.5586 125.711 29.5217 125.708 29.485C125.708 29.4709 125.706 29.4569 125.7 29.444C125.695 29.431 125.686 29.4195 125.676 29.4103C125.644 29.3903 125.606 29.3815 125.569 29.3854C125.504 29.3934 125.444 29.4206 125.395 29.4637C125.299 29.5389 125.21 29.6235 125.131 29.7163C125.007 29.8514 124.907 29.9546 124.833 30.0293C124.788 30.0805 124.737 30.1249 124.68 30.161C124.625 30.2032 124.573 30.2484 124.523 30.2961L124.32 30.4883L124.281 30.5665C124.257 30.61 124.229 30.6506 124.196 30.6875C124.171 30.6034 124.14 30.5214 124.103 30.442C124.043 30.3175 123.986 30.1965 123.915 30.0613Z" fill="#1D1D1B"/>
</svg>
