<svg width="43" height="43" viewBox="0 0 43 43" fill="none" xmlns="http://www.w3.org/2000/svg">
<path d="M21.5479 10.4388C27.5813 10.4388 32.5612 15.4187 32.5612 21.4521C32.5612 27.5813 27.5813 32.4655 21.5479 32.4655C15.4187 32.4655 10.5345 27.5813 10.5345 21.4521C10.5345 15.4187 15.4187 10.4388 21.5479 10.4388ZM21.5479 28.6347C25.4744 28.6347 28.6347 25.4744 28.6347 21.4521C28.6347 17.5256 25.4744 14.3653 21.5479 14.3653C17.5256 14.3653 14.3653 17.5256 14.3653 21.4521C14.3653 25.4744 17.6214 28.6347 21.5479 28.6347ZM35.5301 10.0557C35.5301 11.4922 34.3808 12.6414 32.9443 12.6414C31.5078 12.6414 30.3586 11.4922 30.3586 10.0557C30.3586 8.61915 31.5078 7.46993 32.9443 7.46993C34.3808 7.46993 35.5301 8.61915 35.5301 10.0557ZM42.8085 12.6414C43 16.1849 43 26.8151 42.8085 30.3586C42.6169 33.8062 41.8508 36.7751 39.3608 39.3608C36.8708 41.8508 33.8062 42.6169 30.3586 42.8085C26.8151 43 16.1849 43 12.6414 42.8085C9.19376 42.6169 6.22494 41.8508 3.6392 39.3608C1.14922 36.7751 0.383073 33.8062 0.191537 30.3586C0 26.8151 0 16.1849 0.191537 12.6414C0.383073 9.19376 1.14922 6.12918 3.6392 3.6392C6.22494 1.14922 9.19376 0.383073 12.6414 0.191537C16.1849 0 26.8151 0 30.3586 0.191537C33.8062 0.383073 36.8708 1.14922 39.3608 3.6392C41.8508 6.12918 42.6169 9.19376 42.8085 12.6414ZM38.2116 34.0935C39.3608 31.3163 39.0735 24.6125 39.0735 21.4521C39.0735 18.3875 39.3608 11.6837 38.2116 8.81069C37.4454 6.99109 36.0089 5.4588 34.1893 4.78842C31.3163 3.6392 24.6125 3.9265 21.5479 3.9265C18.3875 3.9265 11.6837 3.6392 8.90646 4.78842C6.99109 5.55457 5.55457 6.99109 4.78842 8.81069C3.6392 11.6837 3.9265 18.3875 3.9265 21.4521C3.9265 24.6125 3.6392 31.3163 4.78842 34.0935C5.55457 36.0089 6.99109 37.4454 8.90646 38.2116C11.6837 39.3608 18.3875 39.0735 21.5479 39.0735C24.6125 39.0735 31.3163 39.3608 34.1893 38.2116C36.0089 37.4454 37.5412 36.0089 38.2116 34.0935Z" fill="#7D8085"/>
</svg>
