<svg width="175" height="49" viewBox="0 0 175 49" fill="none" xmlns="http://www.w3.org/2000/svg">
<path fill-rule="evenodd" clip-rule="evenodd" d="M150.114 26.6964C149.12 26.718 148.127 26.6071 147.161 26.3668C146.479 26.1955 145.835 25.8974 145.263 25.4879C144.831 25.1781 144.482 24.7659 144.248 24.2883C144.054 23.8848 143.95 23.4439 143.945 22.9963C143.919 22.4834 144.067 21.9769 144.366 21.5593C144.649 21.1981 145.031 20.9276 145.465 20.7815C145.932 20.6216 146.422 20.5414 146.915 20.5442C146.889 21.4068 147.046 22.2651 147.377 23.0622C147.631 23.6831 148.07 24.2114 148.633 24.5766C149.196 24.9417 149.857 25.1263 150.527 25.1056C151.565 25.1056 152.37 24.8332 152.944 24.2883C153.222 24.0295 153.442 23.7148 153.59 23.3649C153.738 23.015 153.81 22.6378 153.801 22.258C153.814 21.7054 153.643 21.1642 153.314 20.72C152.913 20.2273 152.415 19.8233 151.85 19.5335C151.055 19.1051 150.237 18.7221 149.398 18.3865C148.358 17.9822 147.375 17.4461 146.471 16.7914C145.814 16.3123 145.286 15.6783 144.933 14.9457C144.615 14.2188 144.458 13.4319 144.472 12.6386C144.449 11.641 144.745 10.6621 145.316 9.84375C145.904 9.03169 146.701 8.39394 147.623 7.99809C148.666 7.54485 149.794 7.32009 150.932 7.33892C152.01 7.3087 153.086 7.44657 154.122 7.7476C154.948 8.02006 155.559 8.38626 155.955 8.84621C156.339 9.27307 156.55 9.82762 156.548 10.4018C156.547 10.7064 156.474 11.0065 156.334 11.277C156.194 11.5476 155.992 11.7809 155.744 11.9575C155.208 12.3793 154.395 12.5903 153.305 12.5903C153.297 12.0516 153.203 11.5176 153.028 11.0083C152.854 10.462 152.553 9.96486 152.149 9.55811C151.932 9.35136 151.675 9.19098 151.394 9.08672C151.113 8.98246 150.814 8.93652 150.514 8.95168C149.85 8.93881 149.202 9.15792 148.682 9.5713C148.163 9.98438 147.904 10.5864 147.904 11.3774C147.901 11.8561 148.018 12.3278 148.247 12.7485C148.57 13.2645 149.013 13.6943 149.539 14.0009C150.401 14.528 151.31 14.9738 152.254 15.3324C153.286 15.7311 154.268 16.2472 155.181 16.8705C155.855 17.3054 156.405 17.9087 156.775 18.6208C157.145 19.3329 157.322 20.1291 157.291 20.9309C157.31 21.9948 157.003 23.039 156.412 23.9235C155.787 24.8231 154.924 25.5307 153.92 25.9669C152.719 26.4825 151.421 26.7314 150.114 26.6964ZM64.9831 26.6965C63.9885 26.7181 62.9955 26.6072 62.0301 26.367C61.3478 26.1956 60.7038 25.8975 60.1317 25.4881C59.6993 25.1783 59.3505 24.7661 59.1166 24.2884C58.9227 23.8849 58.8192 23.444 58.8133 22.9964C58.7875 22.4835 58.9362 21.977 59.2352 21.5594C59.5173 21.1982 59.8993 20.9277 60.3338 20.7816C60.8005 20.6217 61.2907 20.5415 61.784 20.5443C61.7573 21.4069 61.9146 22.2653 62.2454 23.0623C62.5001 23.6832 62.9383 24.2116 63.5013 24.5767C64.0643 24.9419 64.7254 25.1264 65.3962 25.1058C66.4333 25.1058 67.2389 24.8333 67.8132 24.2884C68.0911 24.0296 68.3112 23.7149 68.4589 23.365C68.6066 23.0151 68.6786 22.6379 68.6701 22.2582C68.6829 21.7055 68.5113 21.1643 68.1823 20.7201C67.782 20.2275 67.2837 19.8234 66.7189 19.5336C65.9239 19.1052 65.1053 18.7222 64.2668 18.3867C63.2296 17.9832 62.2482 17.4486 61.3467 16.7959C60.6898 16.3168 60.1614 15.6828 59.8087 14.9502C59.4908 14.2233 59.3334 13.4364 59.3473 12.6431C59.3245 11.6455 59.6201 10.6666 60.191 9.84827C60.7795 9.0362 61.5766 8.39846 62.4981 8.0026C63.5414 7.54936 64.6697 7.32461 65.8071 7.34344C66.8853 7.31321 67.9617 7.45109 68.9975 7.75212C69.8236 8.02458 70.4344 8.39078 70.8299 8.85073C71.2141 9.27759 71.4255 9.83213 71.4232 10.4064C71.4226 10.7109 71.3493 11.011 71.2095 11.2816C71.0696 11.5521 70.8672 11.7854 70.619 11.962C70.0829 12.3839 69.2699 12.5948 68.1801 12.5948C68.1721 12.0561 68.0787 11.5222 67.9032 11.0128C67.7296 10.4665 67.4283 9.96938 67.0244 9.56263C66.8073 9.35588 66.5504 9.19549 66.2694 9.09124C65.9883 8.98698 65.689 8.94103 65.3896 8.9562C64.7253 8.94332 64.0773 9.16243 63.5571 9.57581C63.0386 9.98889 62.7793 10.5909 62.7793 11.3819C62.7759 11.8606 62.8938 12.3323 63.1221 12.753C63.4449 13.269 63.8883 13.6988 64.4141 14.0054C65.276 14.5326 66.1852 14.9783 67.1298 15.3369C68.1612 15.7356 69.1432 16.2517 70.0565 16.875C70.7308 17.3099 71.28 17.9133 71.6499 18.6253C72.0199 19.3374 72.1977 20.1336 72.1658 20.9354C72.1851 21.9993 71.8784 23.0436 71.287 23.9281C70.6626 24.8276 69.7997 25.5352 68.7953 25.9715C67.5921 26.4865 66.2914 26.7339 64.9831 26.6965ZM83.677 26.6964C82.342 26.7276 81.0119 26.5223 79.7484 26.09C78.7263 25.738 77.8469 25.0623 77.2436 24.1652C76.6576 23.2864 76.3647 22.1262 76.3647 20.6848V10.6128C76.3865 10.2516 76.3233 9.89039 76.1801 9.55812C76.0795 9.35482 75.905 9.19763 75.6923 9.11868C75.4757 9.04606 75.2484 9.01042 75.02 9.01322H73.8862V7.61578H82.9827V9.01322H81.8841C81.6545 9.01025 81.4264 9.0505 81.2117 9.13187C80.9958 9.22398 80.822 9.39316 80.724 9.60646C80.5792 9.96144 80.5162 10.3444 80.5394 10.727V20.9046C80.5394 22.3811 80.8953 23.4065 81.6072 23.9807C82.3191 24.5549 83.2713 24.8405 84.4636 24.8376C85.1667 24.8557 85.865 24.716 86.507 24.4289C87.0727 24.162 87.5356 23.7176 87.8254 23.1633C88.1577 22.4801 88.3162 21.7253 88.2868 20.9661V10.6392C88.3087 10.278 88.2454 9.91676 88.1022 9.58449C88.0016 9.38119 87.8271 9.224 87.6144 9.14505C87.3978 9.07244 87.1705 9.03678 86.9421 9.03958H85.8435V7.64215H92.7515V9.03958H91.6178C91.3882 9.03661 91.1601 9.07686 90.9454 9.15823C90.7295 9.25035 90.5556 9.41953 90.4576 9.63283C90.3129 9.98781 90.2498 10.3708 90.2731 10.7534V21.0364C90.3011 22.0927 90.0655 23.1394 89.5875 24.0817C89.1104 24.953 88.3599 25.6433 87.4518 26.0461C86.4821 26.4796 85.2239 26.6964 83.677 26.6964ZM93.9072 25.0353V26.4328L100.806 26.4503V25.0529H99.7078C99.4782 25.0559 99.2502 25.0156 99.0355 24.9343C98.817 24.8393 98.6426 24.665 98.5477 24.4465C98.4066 24.0982 98.3436 23.7232 98.3631 23.3479V11.9223L108.646 26.4503H111.063V10.7358C111.04 10.3532 111.103 9.97023 111.248 9.61525C111.346 9.40195 111.519 9.23276 111.735 9.14065C111.95 9.05928 112.178 9.01904 112.408 9.02201H113.506V7.62457H106.625V9.02201H107.723C107.952 9.01921 108.179 9.05485 108.396 9.12747C108.608 9.20642 108.783 9.36361 108.883 9.56691C109.027 9.89918 109.09 10.2604 109.068 10.6216V20.7727L99.7606 7.61578H93.9072V9.01322H95.0058C95.2342 9.01042 95.4615 9.04606 95.6781 9.11868C95.8908 9.19763 96.0653 9.35482 96.1659 9.55812C96.3091 9.89039 96.3723 10.2516 96.3505 10.6128V23.3303C96.37 23.7056 96.307 24.0806 96.1659 24.4289C96.071 24.6474 95.8966 24.8218 95.6781 24.9167C95.4634 24.9981 95.2353 25.0383 95.0058 25.0353H93.9072ZM114.684 26.4328V25.0353H115.783C116.011 25.0381 116.239 25.0025 116.455 24.9299C116.668 24.8509 116.842 24.6937 116.943 24.4904C117.084 24.1667 117.147 23.8146 117.128 23.4621V10.6128C117.148 10.2517 117.085 9.89071 116.943 9.55812C116.842 9.35482 116.668 9.19763 116.455 9.11868C116.239 9.04606 116.011 9.01042 115.783 9.01322H114.684V7.61578H123.174C124.844 7.61578 126.211 7.80035 127.274 8.16948C128.338 8.53862 129.124 9.08792 129.634 9.8174C130.162 10.6078 130.429 11.5436 130.399 12.4936C130.424 13.3162 130.242 14.132 129.871 14.8666C129.541 15.4908 129.082 16.0387 128.527 16.475C128.003 16.8845 127.427 17.2215 126.813 17.4769L129.951 22.8821C130.293 23.495 130.729 24.0509 131.242 24.53C131.613 24.8599 132.091 25.0428 132.587 25.0441H132.693V26.4416H131.814C130.931 26.4544 130.049 26.3927 129.177 26.257C128.545 26.1639 127.943 25.9246 127.419 25.5583C126.902 25.1551 126.475 24.6475 126.167 24.0686L123.029 18.2679H121.289V23.4621C121.269 23.8147 121.332 24.167 121.474 24.4904C121.576 24.697 121.756 24.8548 121.975 24.9299C122.187 25.0005 122.41 25.0361 122.634 25.0353H123.768V26.4328H114.684ZM122.779 16.7298C123.992 16.7298 124.824 16.4047 125.284 15.7543C125.743 15.1039 125.969 14.1371 125.969 12.854C125.995 12.1244 125.888 11.3961 125.653 10.7051C125.469 10.1993 125.102 9.78074 124.624 9.53176C124.03 9.26071 123.379 9.13422 122.726 9.16263H121.302V16.7298H122.779ZM133.323 25.0353V26.4327L142.424 26.4239V25.0265H141.326C141.092 25.0286 140.86 24.9884 140.64 24.9079C140.53 24.8637 140.43 24.7977 140.346 24.7138C140.262 24.63 140.196 24.5301 140.152 24.4201C140.021 24.0694 139.963 23.6955 139.981 23.3215V10.7182C139.959 10.3368 140.017 9.95509 140.152 9.59764C140.198 9.49008 140.265 9.3927 140.348 9.31121C140.432 9.22972 140.531 9.16575 140.64 9.12304C140.86 9.04246 141.092 9.00226 141.326 9.00439H142.424V7.60696H133.323V9.00439H134.422C134.66 8.99999 134.897 9.04024 135.121 9.12304C135.335 9.21343 135.505 9.38369 135.595 9.59764C135.73 9.95509 135.788 10.3368 135.767 10.7182V23.3303C135.785 23.7043 135.727 24.0782 135.595 24.4289C135.508 24.6479 135.337 24.8234 135.121 24.9167C134.897 24.9995 134.66 25.0397 134.422 25.0353H133.323ZM159.343 25.0353V26.4327L174.815 26.4283L175 21.5769H173.181L172.961 22.8161C172.917 23.1701 172.824 23.5162 172.684 23.8444C172.567 24.1237 172.381 24.3687 172.144 24.5563C171.889 24.7414 171.579 24.8344 171.265 24.82H165.991V17.3846H172.24V15.8026H165.991V9.21093H170.417C170.733 9.19592 171.046 9.27878 171.313 9.44823C171.551 9.61853 171.738 9.85114 171.854 10.1206C172 10.4697 172.084 10.8413 172.104 11.2192L172.236 12.4584H174.082L173.976 7.60696H159.343V9.00439H160.441C160.679 8.99999 160.916 9.04024 161.14 9.12304C161.354 9.21343 161.524 9.38369 161.615 9.59764C161.749 9.95509 161.808 10.3368 161.786 10.7182V23.4621C161.806 23.8146 161.743 24.167 161.601 24.4904C161.501 24.6937 161.326 24.8509 161.114 24.9298C160.897 25.0025 160.67 25.0381 160.441 25.0353H159.343Z" fill="#E2E2E2"/>
<path fill-rule="evenodd" clip-rule="evenodd" d="M102.9 41.5452V41.0508H103.043C103.184 41.0519 103.324 41.0357 103.461 41.0025C103.591 40.9681 103.705 40.8906 103.786 40.7828C103.878 40.6458 103.923 40.4819 103.911 40.317V36.8761C103.924 36.709 103.88 36.5426 103.786 36.4037C103.702 36.3032 103.588 36.2323 103.461 36.2016C103.324 36.1684 103.184 36.1521 103.043 36.1532H102.988V35.6588H105.12V40.273C105.107 40.4464 105.149 40.6194 105.24 40.7674C105.319 40.8767 105.435 40.9546 105.566 40.9871C105.703 41.0245 105.845 41.043 105.987 41.042H106.13V41.5364L102.9 41.5452ZM104.471 34.591C104.287 34.598 104.107 34.5396 103.962 34.4262C103.888 34.3566 103.83 34.2708 103.795 34.1755C103.76 34.0802 103.747 33.978 103.757 33.8769C103.748 33.7738 103.763 33.67 103.801 33.5738C103.839 33.4776 103.899 33.3918 103.977 33.3232C104.123 33.2148 104.301 33.1583 104.482 33.1628C104.662 33.1599 104.838 33.2163 104.983 33.3232C105.119 33.4738 105.195 33.6696 105.195 33.8725C105.195 34.0755 105.119 34.2712 104.983 34.4218C104.838 34.5359 104.656 34.5957 104.471 34.591ZM84.4175 41.0508V41.5452L87.6474 41.5364V41.042H87.5046C87.3621 41.0429 87.2202 41.0244 87.0827 40.9871C86.9518 40.9546 86.8366 40.8767 86.7576 40.7674C86.6673 40.619 86.6251 40.4463 86.6367 40.273V35.6588H84.5054V36.1532H84.5603C84.7009 36.1521 84.8412 36.1684 84.9778 36.2016C85.1051 36.2324 85.2191 36.3032 85.303 36.4037C85.3967 36.5426 85.4408 36.709 85.4282 36.8761V40.317C85.4397 40.4819 85.3956 40.6458 85.303 40.7828C85.2225 40.8907 85.1079 40.9681 84.9778 41.0025C84.8412 41.0357 84.7009 41.0519 84.5603 41.0508H84.4175ZM85.4788 34.4262C85.6239 34.5396 85.8045 34.598 85.9885 34.591H85.9929C86.1728 34.5922 86.3478 34.5326 86.4895 34.4218C86.6255 34.2712 86.7008 34.0755 86.7008 33.8725C86.7008 33.6696 86.6255 33.4738 86.4895 33.3232C86.3419 33.2202 86.1663 33.1649 85.9863 33.1649C85.8064 33.1649 85.6307 33.2202 85.4832 33.3232C85.4076 33.3928 85.3494 33.4792 85.3132 33.5753C85.2769 33.6715 85.2637 33.7747 85.2744 33.8769C85.2638 33.978 85.2767 34.0802 85.3122 34.1755C85.3476 34.2708 85.4047 34.3566 85.4788 34.4262ZM66.7123 41.1519C67.3086 41.5081 67.9957 41.6829 68.6898 41.6551C69.3637 41.6766 70.0294 41.5018 70.6057 41.1519C71.1342 40.8079 71.5504 40.3168 71.8032 39.7391C72.3482 38.3743 72.3482 36.8523 71.8032 35.4875C71.5554 34.9105 71.1407 34.4208 70.6123 34.0813C70.0346 33.7328 69.3685 33.5588 68.6942 33.5803C68.0007 33.5548 67.3144 33.7287 66.7167 34.0813C66.189 34.4154 65.7782 34.9053 65.5412 35.4831C65.2717 36.1561 65.141 36.8765 65.1566 37.6012C65.1416 38.3302 65.2724 39.0548 65.5412 39.7325C65.7761 40.315 66.1851 40.8107 66.7123 41.1519ZM69.9488 40.6224C69.594 40.9094 69.1455 41.055 68.6898 41.0311C68.2413 41.0508 67.8012 40.9054 67.4527 40.6224C67.1128 40.3098 66.8741 39.9028 66.7672 39.4535C66.6113 38.8524 66.5374 38.2331 66.5475 37.6122C66.5475 36.5378 66.7123 35.7006 67.0375 35.103C67.3626 34.5053 67.9185 34.2065 68.7008 34.2065C69.1519 34.1835 69.5959 34.3265 69.9488 34.6086C70.281 34.9214 70.5108 35.3274 70.6079 35.7731C70.8775 36.9851 70.8775 38.2415 70.6079 39.4535C70.5102 39.9003 70.2805 40.3075 69.9488 40.6224ZM74.1937 41.4639C74.4679 41.5951 74.7688 41.6605 75.0726 41.6551C75.3248 41.6673 75.5768 41.6276 75.8131 41.5386C76.0026 41.455 76.1742 41.3357 76.3184 41.1871C76.4743 41.0216 76.621 40.8478 76.7579 40.6663H76.8568L77.0435 41.5452H78.6804V41.0508H78.6475C78.5121 41.0562 78.3772 41.0322 78.252 40.9805C78.2013 40.9567 78.1558 40.923 78.1181 40.8816C78.0804 40.8401 78.0512 40.7916 78.0323 40.7388C77.9823 40.585 77.96 40.4236 77.9663 40.262V37.4254C77.9663 36.7377 77.795 36.2499 77.4456 35.9643C77.0962 35.6786 76.5755 35.538 75.879 35.538C75.5338 35.5342 75.1894 35.5711 74.8529 35.6479C74.5806 35.7013 74.3247 35.818 74.1058 35.9884C74.0137 36.0635 73.9403 36.1589 73.8915 36.2672C73.8427 36.3755 73.8198 36.4937 73.8246 36.6125C73.815 36.7199 73.8356 36.8278 73.8841 36.9241C73.9327 37.0204 74.0072 37.1012 74.0992 37.1574C74.3489 37.277 74.6248 37.3314 74.9012 37.3156C74.8983 37.1068 74.9227 36.8985 74.9737 36.696C75.0133 36.527 75.1104 36.3771 75.2484 36.2719C75.4224 36.159 75.6281 36.1051 75.835 36.1181C76.0505 36.1013 76.2648 36.1621 76.4393 36.2895C76.5759 36.4119 76.6672 36.5767 76.6986 36.7575C76.7408 36.985 76.7607 37.216 76.7579 37.4474V38.0846L75.857 38.1198C75.0147 38.1491 74.3885 38.3043 73.9784 38.5856C73.7729 38.732 73.6085 38.9286 73.5008 39.1568C73.3931 39.3849 73.3457 39.6368 73.3632 39.8885C73.3505 40.2329 73.4261 40.5748 73.5829 40.8817C73.7215 41.1341 73.9349 41.3375 74.1937 41.4639ZM76.1383 40.7608C75.9217 40.8863 75.6743 40.9487 75.4242 40.941C75.264 40.9436 75.1063 40.901 74.9693 40.8179C74.8445 40.7399 74.7493 40.6223 74.6991 40.484C74.6365 40.3062 74.6067 40.1186 74.6112 39.9303C74.6038 39.6877 74.6511 39.4467 74.7496 39.225C74.8491 39.0288 75.0138 38.8735 75.2154 38.7855C75.5005 38.6655 75.8069 38.6042 76.1163 38.6053L76.7645 38.5702V39.4491C76.7703 39.7211 76.7139 39.9909 76.5997 40.2379C76.5007 40.4538 76.3402 40.6357 76.1383 40.7608ZM81.4996 41.6551C81.148 41.6604 80.7978 41.6092 80.4625 41.5034C80.2081 41.4321 79.9794 41.2895 79.8033 41.0926C79.6543 40.9118 79.5762 40.6829 79.5836 40.4488C79.569 40.2958 79.6061 40.1424 79.689 40.0129C79.7718 39.8835 79.8956 39.7855 80.0406 39.7347C80.1437 39.6943 80.253 39.672 80.3636 39.6688C80.3503 40.0258 80.4461 40.3783 80.6383 40.6795C80.7423 40.8203 80.8808 40.9319 81.0406 41.0035C81.2003 41.0751 81.3758 41.1043 81.5501 41.0882C81.8658 41.1108 82.1788 41.0161 82.429 40.8223C82.5238 40.741 82.5996 40.6397 82.6508 40.5258C82.7021 40.4119 82.7276 40.2881 82.7256 40.1631C82.7318 40.0086 82.6921 39.8557 82.6114 39.7237C82.5036 39.579 82.3647 39.4603 82.2049 39.3765C81.9382 39.2293 81.6605 39.103 81.3743 38.9986C81.0457 38.8628 80.7283 38.7012 80.4251 38.5152C80.1951 38.3752 80.0009 38.1833 79.8583 37.9549C79.7262 37.708 79.6618 37.4306 79.6715 37.1508C79.6598 36.9185 79.7078 36.6871 79.8109 36.4787C79.914 36.2702 80.0687 36.0916 80.2603 35.9599C80.7232 35.6655 81.2659 35.522 81.8138 35.549C82.1367 35.5396 82.4588 35.5872 82.7652 35.6896C82.9822 35.7612 83.1759 35.8903 83.3255 36.0631C83.4407 36.2023 83.5043 36.3769 83.5056 36.5575C83.5101 36.6529 83.4927 36.7481 83.4546 36.8358C83.4165 36.9234 83.3588 37.0011 83.2859 37.0629C83.0959 37.2026 82.862 37.2697 82.6268 37.2518C82.6444 36.9475 82.5618 36.6457 82.3916 36.3927C82.3046 36.2879 82.1938 36.2055 82.0684 36.1524C81.943 36.0993 81.8067 36.0769 81.671 36.0873C81.4035 36.0669 81.1377 36.145 80.9239 36.307C80.8404 36.3824 80.7744 36.4751 80.7308 36.5788C80.6871 36.6825 80.6668 36.7945 80.6712 36.9069C80.6692 37.0644 80.7177 37.2184 80.8096 37.3463C80.9284 37.4928 81.0786 37.6107 81.2491 37.6913C81.4556 37.7967 81.7303 37.911 82.073 38.0494C82.396 38.1694 82.7054 38.3233 82.9959 38.5086C83.2201 38.6554 83.4061 38.8535 83.5386 39.0865C83.6655 39.3288 83.7276 39.5997 83.7188 39.8731C83.7327 40.1247 83.6856 40.376 83.5816 40.6056C83.4775 40.8351 83.3196 41.0361 83.1211 41.1914C82.6464 41.5204 82.0764 41.6834 81.4996 41.6551ZM90.1786 41.655C89.8253 41.664 89.4729 41.6157 89.1349 41.5122C88.8805 41.4409 88.6518 41.2983 88.4758 41.1014C88.3268 40.9206 88.2487 40.6917 88.256 40.4576C88.2415 40.3046 88.2786 40.1511 88.3614 40.0217C88.4443 39.8923 88.568 39.7943 88.7131 39.7435C88.8161 39.703 88.9254 39.6807 89.036 39.6776C89.0228 40.0345 89.1186 40.3871 89.3107 40.6883C89.4147 40.8291 89.5532 40.9407 89.713 41.0123C89.8727 41.0839 90.0482 41.113 90.2225 41.097C90.5383 41.1196 90.8512 41.0249 91.1014 40.8311C91.1963 40.7498 91.272 40.6485 91.3233 40.5346C91.3745 40.4207 91.4001 40.2968 91.3981 40.1719C91.4043 40.0174 91.3645 39.8644 91.2838 39.7325C91.176 39.5878 91.0371 39.4691 90.8773 39.3853C90.6106 39.2381 90.3329 39.1118 90.0468 39.0074C89.7181 38.8716 89.4007 38.7099 89.0976 38.524C88.8675 38.384 88.6734 38.1921 88.5307 37.9637C88.3986 37.7168 88.3342 37.4394 88.3439 37.1595C88.3323 36.9273 88.3803 36.6959 88.4833 36.4874C88.5864 36.279 88.7411 36.1004 88.9328 35.9686C89.3956 35.6743 89.9384 35.5308 90.4862 35.5578C90.8091 35.5484 91.1312 35.596 91.4376 35.6984C91.6547 35.77 91.8483 35.8991 91.9979 36.0719C92.1131 36.211 92.1767 36.3857 92.1781 36.5663C92.1826 36.6617 92.1651 36.7569 92.127 36.8445C92.0889 36.9322 92.0312 37.0099 91.9584 37.0716C91.7683 37.2114 91.5344 37.2785 91.2992 37.2606C91.3168 36.9562 91.2342 36.6545 91.0641 36.4015C90.9771 36.2967 90.8662 36.2143 90.7409 36.1612C90.6155 36.1081 90.4792 36.0857 90.3434 36.0961C90.0759 36.0757 89.8102 36.1538 89.5963 36.3158C89.5128 36.3911 89.4469 36.4839 89.4032 36.5876C89.3595 36.6912 89.3392 36.8032 89.3437 36.9156C89.3416 37.0732 89.3901 37.2272 89.4821 37.3551C89.6008 37.5016 89.751 37.6195 89.9215 37.7001C90.1281 37.8055 90.4027 37.9198 90.7455 38.0582C91.0685 38.1782 91.3778 38.3321 91.6683 38.5174C91.8939 38.6609 92.0822 38.856 92.2176 39.0865C92.3446 39.3288 92.4066 39.5997 92.3978 39.8731C92.4117 40.1247 92.3647 40.376 92.2606 40.6055C92.1566 40.8351 91.9986 41.0361 91.8002 41.1914C91.3255 41.5204 90.7554 41.6834 90.1786 41.655ZM96.1112 41.0508V41.5452L102.164 41.5408L102.241 39.159H101.659L101.527 39.983C101.499 40.1472 101.451 40.3073 101.384 40.4598C101.32 40.6163 101.207 40.7485 101.064 40.838C100.92 40.9274 100.752 40.9696 100.583 40.9585H98.4512V34.9162C98.4395 34.7519 98.4778 34.588 98.5611 34.446C98.6308 34.345 98.7345 34.2725 98.8533 34.2416C98.9837 34.207 99.1182 34.19 99.2532 34.1911H99.4729V33.6967H96.1112V34.1911H96.3309C96.4705 34.1899 96.6095 34.2083 96.744 34.246C96.8633 34.2832 96.9659 34.3609 97.034 34.4658C97.1182 34.6178 97.1564 34.7911 97.1439 34.9645V40.2818C97.155 40.4537 97.1169 40.6252 97.034 40.7762C96.9673 40.8823 96.8642 40.9605 96.744 40.9959C96.6098 41.0346 96.4705 41.0532 96.3309 41.0508H96.1112ZM107.064 43.771C107.458 44.0449 108.048 44.1819 108.833 44.1819C109.858 44.1833 110.616 44.0002 111.107 43.6326C111.341 43.4566 111.53 43.2266 111.656 42.9623C111.782 42.6979 111.843 42.407 111.832 42.1143C111.839 41.8159 111.774 41.5204 111.641 41.253C111.505 41.0006 111.294 40.797 111.037 40.6707C110.693 40.5111 110.317 40.4357 109.938 40.451H108.675C108.5 40.4678 108.325 40.4334 108.17 40.3521C108.125 40.3175 108.09 40.2726 108.067 40.2213C108.044 40.1699 108.034 40.1138 108.038 40.0577C108.032 39.9104 108.084 39.7666 108.18 39.6556C108.276 39.5485 108.392 39.4611 108.521 39.3985C108.614 39.4157 108.708 39.4282 108.802 39.4359C108.923 39.4534 109.026 39.4534 109.114 39.4534C109.806 39.4534 110.318 39.2733 110.652 38.9129C110.99 38.541 111.168 38.0523 111.151 37.5507C111.157 37.2846 111.112 37.0199 111.019 36.7706C110.939 36.5651 110.828 36.3731 110.69 36.2016C110.756 36.1639 110.826 36.1337 110.898 36.1115C110.977 36.0898 111.058 36.0787 111.14 36.0785C111.194 36.0739 111.249 36.0828 111.298 36.1042C111.348 36.1257 111.392 36.1591 111.426 36.2016C111.485 36.2806 111.516 36.3774 111.514 36.4762C111.604 36.4862 111.696 36.4753 111.781 36.4445C111.867 36.4136 111.945 36.3636 112.008 36.2982C112.103 36.181 112.154 36.0339 112.151 35.883C112.151 35.8071 112.136 35.7319 112.107 35.6617C112.078 35.5916 112.035 35.5279 111.982 35.4743C111.911 35.4112 111.828 35.3632 111.738 35.333C111.648 35.3027 111.553 35.291 111.459 35.2985C111.311 35.2976 111.165 35.3283 111.03 35.3886C110.901 35.443 110.781 35.5171 110.674 35.6083C110.568 35.6993 110.467 35.7961 110.371 35.8983C110.214 35.7838 110.038 35.699 109.85 35.6479C109.61 35.5725 109.36 35.5354 109.108 35.538C108.389 35.538 107.864 35.7182 107.51 36.0807C107.326 36.2808 107.184 36.5157 107.093 36.7715C107.001 37.0274 106.961 37.299 106.976 37.5704C106.97 37.9328 107.065 38.2898 107.251 38.6009C107.423 38.8938 107.691 39.1187 108.009 39.2381C107.785 39.3613 107.584 39.5235 107.416 39.7171C107.283 39.8835 107.213 40.0911 107.218 40.3038C107.212 40.5224 107.291 40.7349 107.438 40.897C107.558 41.0381 107.708 41.1507 107.877 41.2266C107.629 41.2591 107.387 41.3334 107.163 41.4463C106.958 41.5499 106.784 41.7052 106.658 41.8968C106.528 42.1076 106.463 42.3522 106.471 42.5999C106.461 42.8295 106.511 43.0578 106.615 43.2629C106.719 43.4679 106.873 43.6429 107.064 43.771ZM110.037 43.4524C109.655 43.5731 109.255 43.6274 108.855 43.6128C108.575 43.6259 108.296 43.5795 108.035 43.4766C107.851 43.4026 107.696 43.2687 107.596 43.0964C107.506 42.9276 107.461 42.7385 107.464 42.5471C107.448 42.3256 107.508 42.1052 107.636 41.9231C107.748 41.7831 107.902 41.6829 108.075 41.6375C108.253 41.5843 108.438 41.5577 108.624 41.5584H109.756C110.028 41.542 110.3 41.5989 110.543 41.7232C110.639 41.7951 110.715 41.8914 110.762 42.0022C110.809 42.113 110.826 42.2343 110.811 42.3538C110.815 42.5856 110.754 42.8139 110.635 43.0129C110.49 43.2219 110.28 43.3766 110.037 43.4524ZM109.62 38.7393C109.459 38.8457 109.268 38.8981 109.075 38.8888C108.938 38.8992 108.801 38.8739 108.677 38.8154C108.553 38.7568 108.446 38.667 108.367 38.5548C108.2 38.2469 108.124 37.8979 108.148 37.5485C108.139 37.2819 108.168 37.0155 108.235 36.7575C108.282 36.5687 108.385 36.399 108.532 36.2719C108.684 36.1561 108.873 36.0977 109.064 36.1071C109.258 36.0988 109.45 36.1552 109.609 36.2675C109.754 36.3919 109.856 36.5598 109.899 36.7465C109.963 37.0043 109.993 37.2696 109.987 37.5353C109.992 37.7889 109.965 38.0423 109.905 38.2889C109.865 38.4674 109.764 38.6264 109.62 38.7393ZM112.47 41.5452V41.0508H112.535C112.684 41.0523 112.832 41.0338 112.975 40.9959C113.104 40.9632 113.217 40.8852 113.293 40.7762C113.384 40.6263 113.426 40.4521 113.414 40.2774V34.4152C113.427 34.2488 113.383 34.083 113.289 33.945C113.206 33.8431 113.092 33.7713 112.964 33.7407C112.827 33.7067 112.687 33.6898 112.546 33.6901H112.448V33.1958H114.623V35.4479C114.623 35.5951 114.623 35.7489 114.607 35.9093C114.597 36.0149 114.59 36.1375 114.582 36.2754V36.2755V36.2755V36.2756V36.2756V36.2757C114.578 36.3473 114.573 36.423 114.568 36.5026H114.634C114.736 36.2896 114.878 36.0979 115.051 35.9379C115.208 35.7968 115.394 35.6918 115.596 35.6303C115.81 35.567 116.032 35.536 116.255 35.538C116.514 35.5207 116.773 35.5571 117.017 35.6448C117.261 35.7326 117.484 35.8697 117.673 36.0478C118.002 36.3883 118.167 36.9267 118.167 37.6803V40.262C118.156 40.438 118.192 40.6138 118.27 40.7718C118.334 40.8794 118.437 40.9581 118.558 40.9915C118.695 41.0307 118.837 41.0492 118.98 41.0464H119.013V41.5408H116.958V37.8055C116.98 37.4236 116.895 37.0433 116.712 36.7069C116.548 36.4477 116.255 36.318 115.833 36.318C115.584 36.3072 115.339 36.3851 115.141 36.5377C114.95 36.7004 114.811 36.9159 114.741 37.1574C114.652 37.4535 114.609 37.7619 114.614 38.0714V40.3345C114.603 40.4981 114.644 40.661 114.73 40.8003C114.804 40.9095 114.915 40.9878 115.042 41.0201C115.186 41.054 115.334 41.0702 115.482 41.0684H115.515V41.5628L112.47 41.5452ZM120.782 41.2772C121.044 41.5291 121.447 41.6551 121.99 41.6551C122.217 41.6572 122.444 41.6359 122.667 41.5914C122.825 41.5621 122.979 41.5172 123.128 41.4573V40.908C123.003 40.9322 122.895 40.9498 122.783 40.963C122.661 40.9793 122.538 40.9873 122.414 40.9871C122.301 40.9929 122.189 40.9729 122.085 40.9288C121.981 40.8846 121.888 40.8174 121.814 40.7323C121.652 40.5027 121.574 40.2239 121.595 39.9435V36.318H123.023V35.6589H121.595V34.3054H120.979C120.939 34.5413 120.873 34.772 120.782 34.9931C120.71 35.1667 120.605 35.3249 120.474 35.4589C120.355 35.5856 120.208 35.6833 120.045 35.7446C119.892 35.8084 119.728 35.842 119.562 35.8434V36.318H120.386V39.9435C120.386 40.5784 120.518 41.0245 120.782 41.2772ZM123.598 41.5452V41.0508H123.748C123.888 41.0519 124.028 41.0357 124.165 41.0025C124.295 40.9681 124.41 40.8907 124.49 40.7828C124.583 40.6458 124.627 40.4819 124.616 40.317V36.8761C124.628 36.709 124.584 36.5426 124.49 36.4037C124.406 36.3032 124.292 36.2324 124.165 36.2016C124.028 36.1684 123.888 36.1521 123.748 36.1532H123.693V35.6589H125.824V40.273C125.811 40.4464 125.854 40.6194 125.945 40.7674C126.023 40.8762 126.138 40.9539 126.268 40.9871C126.406 41.0244 126.549 41.0429 126.692 41.042H126.824V41.5364L123.598 41.5452ZM125.169 34.591C124.985 34.5976 124.803 34.5393 124.657 34.4262C124.584 34.3558 124.528 34.2698 124.493 34.1747C124.458 34.0796 124.445 33.9778 124.455 33.8769C124.444 33.7747 124.458 33.6715 124.494 33.5753C124.53 33.4792 124.588 33.3928 124.664 33.3232C124.81 33.2188 124.986 33.1628 125.166 33.1628C125.346 33.1628 125.521 33.2188 125.668 33.3232C125.805 33.4731 125.882 33.6691 125.882 33.8725C125.882 34.0759 125.805 34.2719 125.668 34.4218C125.526 34.5339 125.35 34.5936 125.169 34.591ZM127.263 41.0509V41.5452L130.337 41.587V41.0926H130.293C130.145 41.0949 129.998 41.0787 129.854 41.0443C129.728 41.0106 129.619 40.9326 129.546 40.8245C129.461 40.6849 129.421 40.5221 129.432 40.3587V38.0956C129.428 37.7987 129.467 37.5028 129.546 37.2167C129.609 36.9647 129.742 36.7359 129.931 36.5575C130.136 36.3887 130.397 36.3033 130.662 36.318C130.827 36.3009 130.994 36.3278 131.146 36.3961C131.297 36.4645 131.427 36.5717 131.524 36.707C131.707 37.043 131.793 37.4234 131.772 37.8056V41.5408H133.837V41.0465H133.782C133.639 41.0492 133.496 41.0307 133.358 40.9915C133.3 40.9752 133.245 40.9473 133.197 40.9096C133.149 40.8719 133.109 40.825 133.079 40.7718C133.004 40.613 132.97 40.4376 132.98 40.2621V37.6803C132.98 36.9267 132.82 36.3884 132.497 36.0478C132.32 35.8728 132.108 35.7369 131.876 35.6491C131.643 35.5613 131.394 35.5234 131.146 35.538C130.924 35.5354 130.703 35.559 130.487 35.6083C130.281 35.6589 130.09 35.7541 129.926 35.8874C129.726 36.0641 129.561 36.2764 129.438 36.5136H129.384L129.241 35.6589H127.312V36.1554H127.355C127.503 36.1528 127.651 36.169 127.795 36.2038C127.919 36.2341 128.028 36.3082 128.103 36.4125C128.19 36.5556 128.23 36.7222 128.219 36.8893V40.2774C128.231 40.4516 128.19 40.6252 128.103 40.7762C128.028 40.887 127.914 40.9655 127.784 40.9959C127.636 41.0347 127.483 41.0532 127.329 41.0509H127.263ZM136.683 44.1819C135.898 44.1819 135.308 44.0449 134.914 43.771C134.723 43.6429 134.568 43.4679 134.464 43.2629C134.36 43.0578 134.311 42.8295 134.321 42.5999C134.312 42.3522 134.377 42.1076 134.507 41.8968C134.634 41.7052 134.808 41.5499 135.013 41.4463C135.237 41.3334 135.478 41.2591 135.727 41.2266C135.558 41.1507 135.408 41.0381 135.287 40.897C135.141 40.7349 135.062 40.5224 135.068 40.3038C135.063 40.0911 135.133 39.8835 135.265 39.7171C135.433 39.5235 135.634 39.3613 135.859 39.2381C135.541 39.1187 135.273 38.8938 135.101 38.6009C134.915 38.2898 134.82 37.9328 134.826 37.5704C134.811 37.2992 134.851 37.0278 134.942 36.772C135.033 36.5162 135.175 36.2812 135.358 36.0807C135.714 35.7189 136.247 35.538 136.957 35.538C137.208 35.5354 137.458 35.5725 137.698 35.6479C137.886 35.699 138.063 35.7839 138.221 35.8983C138.316 35.7967 138.417 35.6999 138.522 35.6083C138.629 35.5175 138.75 35.4435 138.88 35.3886C139.018 35.3267 139.168 35.296 139.319 35.2985C139.414 35.2908 139.508 35.3024 139.598 35.3327C139.687 35.3629 139.77 35.4111 139.84 35.4743C139.894 35.5275 139.938 35.5911 139.967 35.6613C139.997 35.7314 140.012 35.8068 140.011 35.883C140.014 36.0339 139.964 36.181 139.869 36.2982C139.805 36.3636 139.728 36.4136 139.642 36.4445C139.556 36.4753 139.465 36.4862 139.374 36.4762C139.375 36.3776 139.344 36.2813 139.286 36.2016C139.253 36.1591 139.209 36.1257 139.159 36.1042C139.109 36.0828 139.055 36.0739 139.001 36.0785C138.919 36.0787 138.838 36.0898 138.759 36.1115C138.686 36.1333 138.616 36.1635 138.55 36.2016C138.689 36.3731 138.8 36.5651 138.88 36.7706C138.973 37.0199 139.018 37.2846 139.012 37.5507C139.029 38.0528 138.85 38.5419 138.511 38.9129C138.18 39.2733 137.667 39.4534 136.973 39.4534C136.885 39.4534 136.779 39.4534 136.658 39.4359C136.565 39.4282 136.472 39.4157 136.379 39.3985C136.25 39.4611 136.134 39.5485 136.039 39.6556C135.941 39.7661 135.89 39.9102 135.896 40.0577C135.892 40.1138 135.902 40.1699 135.925 40.2213C135.948 40.2726 135.984 40.3175 136.028 40.3521C136.183 40.4334 136.359 40.4678 136.533 40.451H137.797C138.175 40.4356 138.552 40.5109 138.895 40.6707C139.153 40.7964 139.364 41.0001 139.499 41.253C139.69 41.652 139.74 42.1031 139.644 42.5345C139.548 42.9658 139.31 43.3524 138.968 43.6326C138.47 44.0002 137.708 44.1833 136.683 44.1819ZM136.705 43.6128L136.708 43.6129C136.428 43.6262 136.149 43.5805 135.887 43.4787C135.703 43.4045 135.548 43.2707 135.448 43.0986C135.358 42.9298 135.312 42.7407 135.316 42.5493C135.3 42.3282 135.36 42.1081 135.485 41.9253C135.598 41.7861 135.752 41.6861 135.925 41.6397C136.103 41.5865 136.288 41.5599 136.474 41.5606H137.605C137.877 41.5439 138.148 41.6009 138.39 41.7254C138.487 41.7965 138.563 41.8923 138.611 42.0028C138.658 42.1133 138.675 42.2344 138.66 42.3538C138.664 42.5856 138.603 42.8139 138.484 43.0129C138.339 43.2224 138.128 43.3772 137.885 43.4524C137.505 43.5729 137.107 43.6272 136.708 43.6129L136.711 43.6128H136.705ZM136.924 38.8888L136.929 38.889C136.79 38.9011 136.651 38.8765 136.525 38.8178C136.399 38.7588 136.29 38.6673 136.21 38.5526C136.043 38.2447 135.967 37.8957 135.991 37.5463C135.984 37.2803 136.015 37.0148 136.083 36.7575C136.131 36.5694 136.234 36.4002 136.379 36.2719C136.533 36.1564 136.722 36.0981 136.913 36.1071C137.107 36.0975 137.299 36.1541 137.456 36.2675C137.603 36.3909 137.706 36.5592 137.748 36.7465C137.813 37.0043 137.842 37.2696 137.836 37.5353C137.841 37.789 137.813 38.0424 137.753 38.2889C137.713 38.4678 137.612 38.6272 137.467 38.7393C137.308 38.8452 137.119 38.8976 136.929 38.889L136.931 38.8888H136.924ZM143.351 41.0508V41.5452L149.405 41.5408L149.482 39.159H148.899L148.767 39.983C148.739 40.1469 148.691 40.3069 148.625 40.4598C148.56 40.6163 148.448 40.7485 148.304 40.838C148.16 40.9274 147.992 40.9696 147.823 40.9585H145.691V34.9162C145.678 34.7519 145.717 34.5876 145.801 34.446C145.87 34.3452 145.973 34.2726 146.091 34.2416C146.222 34.207 146.358 34.19 146.493 34.1911H146.713V33.6967H143.351V34.1911H143.571C143.71 34.1898 143.848 34.2083 143.982 34.246C144.102 34.2838 144.205 34.3613 144.274 34.4658C144.358 34.6178 144.396 34.7911 144.384 34.9645V40.2818C144.395 40.4537 144.357 40.6252 144.274 40.7762C144.206 40.8821 144.102 40.96 143.982 40.9959C143.848 41.0347 143.71 41.0532 143.571 41.0508H143.351ZM151.349 41.6221C151.159 41.6283 150.973 41.5685 150.822 41.4529C150.68 41.2803 150.602 41.0636 150.602 40.8399C150.602 40.6163 150.68 40.3996 150.822 40.2269C150.974 40.1147 151.16 40.0566 151.349 40.0621C151.538 40.0573 151.724 40.1153 151.877 40.2269C152.019 40.3996 152.096 40.6163 152.096 40.8399C152.096 41.0636 152.019 41.2803 151.877 41.4529C151.725 41.5678 151.539 41.6276 151.349 41.6221ZM153.173 41.0508V41.5452L159.222 41.5408L159.299 39.159H158.716L158.585 39.983C158.556 40.1469 158.508 40.3069 158.442 40.4598C158.377 40.6163 158.265 40.7485 158.121 40.838C157.977 40.9274 157.809 40.9696 157.64 40.9585H155.508V34.9162C155.496 34.7519 155.534 34.5876 155.618 34.446C155.687 34.3452 155.79 34.2726 155.908 34.2416C156.04 34.207 156.175 34.19 156.31 34.1911H156.541V33.6967H153.179V34.1911H153.41C153.549 34.1898 153.687 34.2083 153.821 34.246C153.941 34.2838 154.044 34.3613 154.113 34.4658C154.197 34.6178 154.236 34.7911 154.223 34.9645V40.2818C154.234 40.4537 154.196 40.6252 154.113 40.7762C154.045 40.8821 153.942 40.96 153.821 40.9959C153.688 41.0347 153.549 41.0532 153.41 41.0508H153.173ZM161.171 41.6221C160.981 41.6283 160.794 41.5685 160.643 41.4529C160.501 41.2803 160.424 41.0636 160.424 40.8399C160.424 40.6163 160.501 40.3996 160.643 40.2269C160.796 40.1147 160.981 40.0566 161.171 40.0621C161.36 40.0573 161.545 40.1153 161.698 40.2269C161.84 40.3996 161.918 40.6163 161.918 40.8399C161.918 41.0636 161.84 41.2803 161.698 41.4529C161.547 41.5678 161.361 41.6276 161.171 41.6221ZM164.559 41.1519C165.135 41.5041 165.802 41.6791 166.477 41.6551C166.845 41.6534 167.211 41.6054 167.567 41.5122C167.83 41.4481 168.08 41.342 168.31 41.198C168.478 41.0903 168.622 40.948 168.731 40.7806C168.817 40.6497 168.865 40.4976 168.87 40.3411C168.872 40.2509 168.853 40.1615 168.815 40.0797C168.781 40.0102 168.733 39.9493 168.672 39.9017C168.539 40.0731 168.388 40.2299 168.222 40.3697C168.032 40.5268 167.816 40.6495 167.584 40.7322C167.291 40.8306 166.982 40.8767 166.673 40.8685C166.2 40.8927 165.734 40.7513 165.354 40.4686C165.002 40.1716 164.747 39.7748 164.625 39.3304C164.461 38.7667 164.383 38.1815 164.394 37.5946C164.384 36.9708 164.458 36.3485 164.614 35.7445C164.719 35.2961 164.961 34.8915 165.306 34.5866C165.669 34.3078 166.119 34.1668 166.576 34.1889C166.843 34.1751 167.106 34.2526 167.323 34.4086C167.503 34.5519 167.64 34.7419 167.718 34.9579C167.798 35.177 167.839 35.4082 167.839 35.6413C168.113 35.6557 168.384 35.5784 168.608 35.4216C168.702 35.3536 168.777 35.2643 168.829 35.1611C168.881 35.0578 168.907 34.9437 168.905 34.8283C168.905 34.5936 168.816 34.3676 168.657 34.1955C168.448 33.9843 168.186 33.8326 167.899 33.7561C167.48 33.6356 167.045 33.5801 166.609 33.5913C165.914 33.5677 165.227 33.7455 164.631 34.1032C164.095 34.4447 163.672 34.938 163.416 35.5204C163.131 36.1801 162.991 36.8935 163.005 37.6122C162.989 38.3402 163.122 39.0639 163.394 39.7391C163.632 40.3162 164.038 40.8085 164.559 41.1519Z" fill="#E2E2E2"/>
<path fill-rule="evenodd" clip-rule="evenodd" d="M46.7562 19.4046H47.5261C46.4085 13.9269 43.4329 9.00344 39.1027 5.46743C34.7725 1.93142 29.3536 0 23.763 0C18.1725 0 12.7536 1.93142 8.42338 5.46743C4.09315 9.00344 1.11751 13.9269 0 19.4046H0.769886C1.88199 14.1302 4.7736 9.39853 8.95991 6.00286C13.1462 2.60719 18.3727 0.753996 23.763 0.753996C29.1534 0.753996 34.3798 2.60719 38.5662 6.00286C42.7525 9.39853 45.6441 14.1302 46.7562 19.4046ZM23.764 48.5036C35.4651 48.5036 45.2747 40.1494 47.5261 29.0935H46.7642C45.6538 34.3715 42.762 39.107 38.574 42.5056C34.386 45.9042 29.1565 47.7591 23.763 47.7591C18.3695 47.7591 13.1401 45.9042 8.95209 42.5056C4.76407 39.107 1.87227 34.3715 0.76185 29.0935H0C2.25137 40.1534 12.0629 48.5036 23.764 48.5036Z" fill="#E2E2E2"/>
<path fill-rule="evenodd" clip-rule="evenodd" d="M25.0607 20.3454L26.8598 21.4891L30.2972 36.9372L11.5465 24.9144L11.4902 24.8883L10.7705 24.426C10.6942 24.3797 10.262 24.1164 9.68908 23.7144C9.67666 23.7144 9.66898 23.7059 9.65889 23.6947C9.65427 23.6895 9.64915 23.6839 9.64284 23.6782C7.95409 22.2523 6.85216 20.2523 6.54899 18.063C6.24582 15.8736 6.76281 13.6495 8.00054 11.8183C8.02887 11.7654 8.06255 11.7156 8.10105 11.6695C8.17543 11.5771 8.2498 11.4846 8.31413 11.3921C8.5453 11.1067 8.77647 10.8293 9.00763 10.572L9.09005 10.4876C12.9817 6.15769 17.981 4.5154 20.4193 4.24604C23.3115 3.76497 26.2742 3.92625 29.0971 4.71843C31.817 5.47075 34.3238 6.84735 36.4181 8.73873C38.337 10.5021 39.9121 12.6062 41.0636 14.9441V18.7473C39.8615 15.3923 38.2272 12.6626 36.1688 10.568C34.1298 8.47006 31.5667 6.95569 28.7453 6.18182C26.1267 5.44194 23.3768 5.29024 20.6927 5.73757H20.6102C19.4805 5.85014 17.1568 6.43912 14.6562 7.89849C13.3199 8.67628 12.0873 9.61982 10.9876 10.7067C10.93 10.7511 10.8765 10.8036 10.8226 10.8565C10.8106 10.8682 10.7986 10.8799 10.7866 10.8916C10.5519 11.1097 10.333 11.3442 10.1313 11.5932L10.1132 11.6112C9.39699 12.4905 8.87572 13.5119 8.58393 14.6077C8.29214 15.7036 8.23648 16.849 8.42064 17.968C8.60479 19.087 9.02456 20.1541 9.65215 21.0986C10.2797 22.0432 11.1008 22.8437 12.0611 23.447L15.6974 25.7889L28.0337 33.7048L25.0607 20.3454ZM38.4382 35.9321C34.5466 40.2519 29.5473 41.8962 27.109 42.1636C24.2165 42.6439 21.2537 42.4813 18.4312 41.6872C15.7117 40.9339 13.2051 39.5574 11.1102 37.6669C9.19135 35.9042 7.61621 33.8008 6.46471 31.4635V27.6583C7.66946 31.0153 9.30104 33.7424 11.3594 35.8396C13.4005 37.9332 15.9631 39.4445 18.7829 40.2178C21.4008 40.9577 24.1494 41.1121 26.8336 40.67L26.916 40.66C28.0477 40.5494 30.3695 39.9584 32.8721 38.4991C34.2128 37.7264 35.4502 36.7868 36.5547 35.7029C36.6164 35.6536 36.6734 35.5981 36.7312 35.5418C36.7394 35.5339 36.7475 35.526 36.7557 35.518C36.9899 35.2994 37.2088 35.065 37.411 34.8165L37.4291 34.7964C38.1453 33.9171 38.6666 32.8957 38.9584 31.7999C39.2502 30.704 39.3059 29.5586 39.1217 28.4396C38.9375 27.3206 38.5178 26.2535 37.8902 25.309C37.2626 24.3644 36.4415 23.5639 35.4813 22.9606L31.8328 20.6248L19.4985 12.7028L22.4655 26.0683L20.6664 24.9225L17.2311 9.48652L35.9818 21.5072L36.0381 21.5354L36.7577 21.9957C36.8341 22.0419 37.2663 22.3053 37.8392 22.7073C37.8516 22.7073 37.8593 22.7158 37.8694 22.727C37.874 22.7321 37.8791 22.7378 37.8854 22.7435C39.5738 24.1697 40.6754 26.1696 40.9786 28.3588C41.2817 30.5481 40.765 32.7721 39.5277 34.6034C39.4989 34.6554 39.4653 34.7045 39.4272 34.7501L39.4272 34.7502C39.3528 34.8426 39.2785 34.9351 39.2141 35.0275C38.983 35.315 38.7518 35.5904 38.5206 35.8497L38.4382 35.9321Z" fill="#E2E2E2"/>
</svg>
