<svg width="15" height="15" viewBox="0 0 15 15" fill="none" xmlns="http://www.w3.org/2000/svg">
<path d="M14.7087 12.9029C14.9709 13.1942 14.9709 13.6311 14.6796 13.8932L13.8641 14.7087C13.6019 15 13.165 15 12.8738 14.7087L9.99029 11.8252C9.84466 11.6796 9.78641 11.5049 9.78641 11.3301V10.835C8.73786 11.6505 7.45631 12.1165 6.05825 12.1165C2.70874 12.1165 0 9.40777 0 6.05825C0 2.73786 2.70874 0 6.05825 0C9.37864 0 12.1165 2.73786 12.1165 6.05825C12.1165 7.48544 11.6214 8.76699 10.835 9.78641H11.301C11.4757 9.78641 11.6505 9.87379 11.7961 9.99029L14.7087 12.9029ZM6.05825 9.78641C8.09709 9.78641 9.78641 8.12621 9.78641 6.05825C9.78641 4.01942 8.09709 2.3301 6.05825 2.3301C3.99029 2.3301 2.3301 4.01942 2.3301 6.05825C2.3301 8.12621 3.99029 9.78641 6.05825 9.78641Z" fill="#E2E2E2"/>
</svg>
