<svg width="21" height="21" viewBox="0 0 21 21" fill="none" xmlns="http://www.w3.org/2000/svg">
<path d="M8.71875 8.01562L13.2188 10.5469L8.71875 13.0781V8.01562ZM21 2.25V18.75C21 20.0156 19.9688 21 18.75 21H2.25C0.984375 21 0 20.0156 0 18.75V2.25C0 1.03125 0.984375 0 2.25 0H18.75C19.9688 0 21 1.03125 21 2.25ZM19.0312 10.5469C19.0312 10.5469 19.0312 7.73438 18.6562 6.42188C18.4688 5.67188 17.8594 5.0625 17.1562 4.875C15.7969 4.5 10.5 4.5 10.5 4.5C10.5 4.5 5.15625 4.5 3.79688 4.875C3.09375 5.0625 2.48438 5.67188 2.29688 6.42188C1.96875 7.73438 1.96875 10.5469 1.96875 10.5469C1.96875 10.5469 1.96875 13.3125 2.29688 14.6719C2.48438 15.4219 3.09375 15.9844 3.79688 16.1719C5.15625 16.5 10.5 16.5 10.5 16.5C10.5 16.5 15.7969 16.5 17.1562 16.1719C17.8594 15.9844 18.4688 15.4219 18.6562 14.6719C19.0312 13.3125 19.0312 10.5469 19.0312 10.5469Z" fill="#E2E2E2"/>
</svg>
