<svg width="42" height="42" viewBox="0 0 42 42" fill="none" xmlns="http://www.w3.org/2000/svg">
<path d="M17.4375 16.0312L26.4375 21.0938L17.4375 26.1562V16.0312ZM42 4.5V37.5C42 40.0312 39.9375 42 37.5 42H4.5C1.96875 42 0 40.0312 0 37.5V4.5C0 2.0625 1.96875 0 4.5 0H37.5C39.9375 0 42 2.0625 42 4.5ZM38.0625 21.0938C38.0625 21.0938 38.0625 15.4688 37.3125 12.8438C36.9375 11.3438 35.7188 10.125 34.3125 9.75C31.5938 9 21 9 21 9C21 9 10.3125 9 7.59375 9.75C6.1875 10.125 4.96875 11.3438 4.59375 12.8438C3.9375 15.4688 3.9375 21.0938 3.9375 21.0938C3.9375 21.0938 3.9375 26.625 4.59375 29.3438C4.96875 30.8438 6.1875 31.9688 7.59375 32.3438C10.3125 33 21 33 21 33C21 33 31.5938 33 34.3125 32.3438C35.7188 31.9688 36.9375 30.8438 37.3125 29.3438C38.0625 26.625 38.0625 21.0938 38.0625 21.0938Z" fill="#7D8085"/>
</svg>
