<svg width="116" height="22" viewBox="0 0 116 22" fill="none" xmlns="http://www.w3.org/2000/svg">
<path d="M8.81334 18.727C8.08054 18.7235 7.34885 18.6696 6.62344 18.5657C5.50878 18.4116 4.9855 17.8668 4.83139 16.7737C4.80089 16.4976 4.79012 16.2197 4.79913 15.9422C4.79913 10.7452 4.79913 5.5506 4.79913 0.358412V0H0V17.5192C0.019276 17.5669 0.0348494 17.616 0.0465898 17.6661C0.110083 18.2452 0.319248 18.7987 0.654559 19.275C0.989871 19.7513 1.4404 20.1349 1.96409 20.39C3.59553 21.2452 5.41618 21.6754 7.25783 21.6409C12.358 21.6982 17.4546 21.6624 22.5548 21.6624H22.8702V18.727H22.5118C17.9493 18.7342 13.3831 18.7413 8.81334 18.727Z" fill="#E30D18"/>
<path d="M64.6215 18.7342C64.281 18.7342 63.9405 18.7342 63.6 18.7342C59.0864 18.7342 54.5728 18.7342 50.0592 18.7342C49.298 18.7515 48.5428 18.5946 47.8514 18.2754C47.5521 18.1473 47.2987 17.9314 47.1246 17.6563C46.9506 17.3811 46.8641 17.0596 46.8766 16.7343C46.8766 12.8108 46.8766 8.88863 46.8766 4.96761C46.8424 4.57844 46.953 4.19035 47.1871 3.87758C47.4212 3.56481 47.7623 3.34932 48.1453 3.27232C48.8491 3.09178 49.5699 2.98606 50.2958 2.95692C52.4463 2.91391 54.6254 2.95692 56.7902 2.93542H64.5928C64.833 2.93542 64.9513 2.85657 64.9298 2.6021C64.9298 2.18275 64.9298 1.76341 64.9298 1.34407V0.00361216H64.5104C60.0231 0.00361216 55.5501 0.00361216 51.0485 0.00361216C49.5831 -0.0182023 48.1186 0.0897403 46.6723 0.32618C45.4053 0.505888 44.2117 1.02895 43.2208 1.83868C42.8543 2.13751 42.5606 2.51577 42.3619 2.94484C42.1632 3.37391 42.0647 3.84255 42.0738 4.3153C42.0738 8.63058 42.0738 12.9447 42.0738 17.2575C42.0731 17.5183 42.0959 17.7786 42.1419 18.0353C42.2351 18.463 42.4132 18.8677 42.6656 19.2254C42.918 19.5831 43.2396 19.8865 43.6114 20.1177C45.1992 21.2323 47.0378 21.6266 48.9123 21.6517C54.1416 21.7126 59.3708 21.6732 64.6 21.6517C64.6932 21.6517 64.7828 21.6517 64.9011 21.6517V18.9887C64.9118 18.7844 64.7936 18.7342 64.6215 18.7342Z" fill="#E30D18"/>
<path d="M90.094 18.7306H75.9296C75.0994 18.7637 74.2715 18.6221 73.4995 18.3148C73.2011 18.205 72.9409 18.0112 72.7501 17.7568C72.5593 17.5025 72.4462 17.1984 72.4243 16.8812C72.4064 16.6661 72.392 16.4475 72.392 16.2324C72.392 12.6483 72.392 9.06421 72.392 5.4801C72.392 5.3224 72.392 5.1647 72.392 5.01058C72.4458 3.99627 72.8651 3.44432 73.8543 3.21852C74.4408 3.06921 75.0416 2.98389 75.6464 2.96405C78.1553 2.93179 80.6928 2.93896 83.2125 2.93537H89.9434C90.0976 2.93537 90.2517 2.93537 90.413 2.9067V0.0143215H90.0546C85.5565 0.0143215 81.062 0.0143215 76.5675 0.0143215C75.2066 -0.00375033 73.8463 0.0861343 72.4996 0.28313C71.4014 0.42631 70.344 0.792192 69.3921 1.35836C68.825 1.67843 68.3574 2.14914 68.0411 2.71844C67.7248 3.28773 67.5722 3.93342 67.6001 4.58407C67.6359 8.77748 67.6287 12.9673 67.6001 17.1607C67.5787 17.7461 67.7107 18.3268 67.9829 18.8455C68.2551 19.3641 68.6581 19.8027 69.152 20.1176C70.7648 21.2359 72.6142 21.6229 74.5102 21.6445C79.718 21.7018 84.9329 21.666 90.1406 21.666H90.4596C90.4596 20.7807 90.4596 19.9384 90.4596 19.0961C90.4703 18.7557 90.4381 18.7306 90.094 18.7306Z" fill="#E30D18"/>
<path d="M16.5444 2.63076C16.5394 2.67008 16.5433 2.71001 16.5558 2.74763C16.5683 2.78525 16.5891 2.81959 16.6166 2.84813C16.6441 2.87666 16.6776 2.89867 16.7148 2.91253C16.7519 2.9264 16.7917 2.93176 16.8311 2.92824H17.1465H25.132C25.5441 2.92824 25.562 2.94974 25.562 3.35475V21.6337H30.3397V3.44435C30.3397 2.98558 30.397 2.92824 30.8486 2.92824H37.0527H38.938C39.3322 2.92824 39.3824 2.88164 39.3824 2.49814V0.0466095H16.5444C16.5444 0.924718 16.5408 1.77774 16.5444 2.63076Z" fill="#E30D18"/>
<path d="M111.222 0.0466095V0.362013C111.222 3.16121 111.222 5.95682 111.222 8.75601C111.222 9.35098 111.38 9.38682 110.577 9.38682H99.3374V12.315H104.531C106.642 12.315 108.753 12.315 110.868 12.315C111.172 12.315 111.226 12.3724 111.244 12.6734C111.244 12.9064 111.222 13.143 111.222 13.3903V21.6732H116V0.0466095H111.222Z" fill="#E30D18"/>
<path d="M93.1584 21.6552H97.9217V0.0466095H93.1584V21.6552Z" fill="#E30D18"/>
<path d="M64.4999 9.36531H64.2669H50.6007H48.5972C48.4968 9.36531 48.3965 9.36531 48.2889 9.38324V12.2935H63.6361C63.9658 12.2935 64.2992 12.2935 64.6289 12.2935C64.6701 12.301 64.7125 12.2988 64.7527 12.2871C64.7929 12.2753 64.8297 12.2543 64.8604 12.2257C64.891 12.1972 64.9145 12.1619 64.9291 12.1226C64.9437 12.0834 64.9489 12.0413 64.9443 11.9996C64.9443 11.8527 64.9264 11.7057 64.9264 11.5552C64.9264 10.9746 64.9264 10.3904 64.9479 9.80616C64.9407 9.44058 64.8655 9.36531 64.4999 9.36531Z" fill="#E30D18"/>
</svg>
